<svg width="320" height="1139" viewBox="0 0 320 1139" fill="none" xmlns="http://www.w3.org/2000/svg">
<rect width="320" height="1139" fill="#EDF7FD"/>
<ellipse rx="32.0056" ry="31.9834" transform="matrix(-1 0 0 1 120.148 298.29)" fill="white" fill-opacity="0.55"/>
<ellipse rx="32.0056" ry="31.9834" transform="matrix(-1 0 0 1 42.4202 218.332)" fill="white"/>
<ellipse rx="32.0056" ry="31.9834" transform="matrix(-1 0 0 1 117.862 218.332)" fill="white"/>
<ellipse rx="32.0056" ry="31.9834" transform="matrix(-1 0 0 1 42.4202 138.373)" fill="white"/>
<ellipse rx="32.0056" ry="31.9834" transform="matrix(-1 0 0 1 42.4202 298.29)" fill="white"/>
<ellipse rx="32.0056" ry="31.9834" transform="matrix(-1 0 0 1 42.4202 378.248)" fill="white" fill-opacity="0.55"/>
<ellipse rx="32.0056" ry="31.9834" transform="matrix(-1 0 0 1 117.862 458.207)" fill="white"/>
<ellipse cx="315.308" cy="834.793" rx="32.0056" ry="31.9834" fill="white"/>
<ellipse cx="239.866" cy="834.793" rx="32.0056" ry="31.9834" fill="white"/>
<ellipse cx="315.308" cy="754.834" rx="32.0056" ry="31.9834" fill="white"/>
<ellipse cx="315.308" cy="914.751" rx="32.0056" ry="31.9834" fill="white"/>
<ellipse cx="237.58" cy="914.751" rx="32.0056" ry="31.9834" fill="white" fill-opacity="0.55"/>
<ellipse cx="315.308" cy="994.709" rx="32.0056" ry="31.9834" fill="white" fill-opacity="0.55"/>
<ellipse cx="239.866" cy="1074.67" rx="32.0056" ry="31.9834" fill="white"/>
<ellipse cx="164.425" cy="994.709" rx="32.0056" ry="31.9834" fill="white"/>
</svg>
