<svg width="1024" height="799" viewBox="0 0 1024 799" fill="none" xmlns="http://www.w3.org/2000/svg">
<rect width="1024" height="799" fill="#0E378F"/>
<path d="M398 582H660.729L949 739H628.836L398 582Z" fill="#10295C"/>
<rect x="524.158" y="296.679" width="33.9277" height="29.7291" fill="#C6E3F5"/>
<rect x="502.543" y="326.409" width="38.579" height="40.1893" fill="white" fill-opacity="0.5"/>
<rect x="541.122" y="326.409" width="38.579" height="40.1893" fill="#10295C"/>
<rect x="493.24" y="363.295" width="86.4608" height="26.7011" fill="#2482BC"/>
<path d="M492.419 376.783H548.92" stroke="white" stroke-width="2.70016"/>
<path d="M541.806 342.924L579.975 342.925" stroke="white" stroke-width="2.70016"/>
<path d="M524.158 309.617L558.086 309.617" stroke="white" stroke-width="2.70016"/>
<path d="M521.696 364.671V388.757" stroke="white" stroke-width="2.70016"/>
<path d="M560.001 326.409L560.001 361.643" stroke="white" stroke-width="2.70016"/>
<path d="M541.122 299.157L541.122 326.959" stroke="white" stroke-width="2.70016"/>
<path d="M525.391 378.985L522.097 376.826M521.639 376.526L517.886 374.067C515.99 372.926 517.537 369.768 520.147 371.521C522.631 373.189 522.347 375.384 521.639 376.526ZM521.639 376.526L517.886 378.985M521.639 376.526L522.097 376.826M521.639 376.526C521.791 374.857 522.769 371.784 524.487 371.521C526.848 371.158 526.902 372.889 526.295 374.067C525.753 375.121 523.496 376.346 522.097 376.826" stroke="white" stroke-width="2.70016"/>
<path d="M563.696 345.127L560.402 342.968M559.944 342.668L556.191 340.209C554.295 339.068 555.842 335.91 558.452 337.663C560.936 339.332 560.652 341.527 559.944 342.668ZM559.944 342.668L556.191 345.127M559.944 342.668L560.402 342.968M559.944 342.668C560.096 341 561.074 337.926 562.792 337.663C565.153 337.301 565.207 339.031 564.6 340.209C564.058 341.263 561.801 342.488 560.402 342.968" stroke="white" stroke-width="2.70016"/>
<path d="M544.817 299.983L541.523 297.824M541.065 297.524L537.312 295.065C535.416 293.924 536.963 290.766 539.573 292.519C542.057 294.187 541.773 296.383 541.065 297.524ZM541.065 297.524L537.312 299.983M541.065 297.524L541.523 297.824M541.065 297.524C541.218 295.856 542.195 292.782 543.913 292.519C546.274 292.157 546.328 293.887 545.722 295.065C545.179 296.119 542.923 297.344 541.523 297.824" stroke="white" stroke-width="2.70016"/>
<mask id="mask0_725:3578" style="mask-type:alpha" maskUnits="userSpaceOnUse" x="502" y="327" width="39" height="37">
<rect x="502.269" y="327.51" width="38.579" height="35.785" fill="#C4C4C4"/>
</mask>
<g mask="url(#mask0_725:3578)">
<path d="M478.112 328.067L513.78 292.779" stroke="#0E378F" stroke-width="2.70016"/>
<path d="M481.912 333.502L517.58 298.215" stroke="#0E378F" stroke-width="2.70016"/>
<path d="M485.713 338.937L521.38 303.649" stroke="#0E378F" stroke-width="2.70016"/>
<path d="M489.512 344.371L525.18 309.084" stroke="#0E378F" stroke-width="2.70016"/>
<path d="M492.7 348.93L528.368 313.642" stroke="#0E378F" stroke-width="2.70016"/>
<path d="M496.01 353.663L531.678 318.376" stroke="#0E378F" stroke-width="2.70016"/>
<path d="M499.32 358.396L534.988 323.109" stroke="#0E378F" stroke-width="2.70016"/>
<path d="M502.506 362.955L538.174 327.667" stroke="#0E378F" stroke-width="2.70016"/>
<path d="M505.94 367.864L541.608 332.576" stroke="#0E378F" stroke-width="2.70016"/>
<path d="M509.74 373.299L545.408 338.011" stroke="#0E378F" stroke-width="2.70016"/>
<path d="M513.54 378.733L549.208 343.446" stroke="#0E378F" stroke-width="2.70016"/>
<path d="M517.34 384.168L553.008 348.881" stroke="#0E378F" stroke-width="2.70016"/>
<path d="M520.528 388.726L556.196 353.439" stroke="#0E378F" stroke-width="2.70016"/>
<path d="M523.838 393.459L559.506 358.172" stroke="#0E378F" stroke-width="2.70016"/>
<path d="M527.147 398.193L562.814 362.906" stroke="#0E378F" stroke-width="2.70016"/>
</g>
<mask id="mask1_725:3578" style="mask-type:alpha" maskUnits="userSpaceOnUse" x="547" y="363" width="33" height="26">
<rect x="547.688" y="363.019" width="32.0124" height="25.8753" fill="#C4C4C4"/>
</mask>
<g mask="url(#mask1_725:3578)">
<path d="M546.616 393.647L545.989 354.439" stroke="white" stroke-width="2.70016" stroke-dasharray="3.6 3.6"/>
<path d="M550.827 393.703L550.199 354.495" stroke="white" stroke-width="2.70016" stroke-dasharray="3.6 3.6"/>
<path d="M555.198 393.761L554.571 354.553" stroke="white" stroke-width="2.70016" stroke-dasharray="3.6 3.6"/>
<path d="M559.57 393.819L558.942 354.611" stroke="white" stroke-width="2.70016" stroke-dasharray="3.6 3.6"/>
<path d="M563.78 393.876L563.152 354.668" stroke="white" stroke-width="2.70016" stroke-dasharray="3.6 3.6"/>
<path d="M568.314 393.935L567.686 354.727" stroke="white" stroke-width="2.70016" stroke-dasharray="3.6 3.6"/>
<path d="M573.335 394.002L572.707 354.794" stroke="white" stroke-width="2.70016" stroke-dasharray="3.6 3.6"/>
<path d="M578.353 394.069L577.725 354.861" stroke="white" stroke-width="2.70016" stroke-dasharray="3.6 3.6"/>
</g>
<rect x="579.73" y="456.502" width="63.7611" height="64.5293" fill="white" fill-opacity="0.5"/>
<mask id="mask2_725:3578" style="mask-type:alpha" maskUnits="userSpaceOnUse" x="575" y="456" width="72" height="67">
<rect x="575.89" y="456.502" width="70.6749" height="66.0657" fill="#C4C4C4"/>
</mask>
<g mask="url(#mask2_725:3578)">
<path d="M533.774 457.775L599.36 392.889" stroke="#0E378F" stroke-width="3.66442"/>
<path d="M540.762 467.769L606.348 402.882" stroke="#0E378F" stroke-width="3.66442"/>
<path d="M547.75 477.762L613.336 412.876" stroke="#0E378F" stroke-width="3.66442"/>
<path d="M554.736 487.756L620.322 422.87" stroke="#0E378F" stroke-width="3.66442"/>
<path d="M560.598 496.137L626.185 431.251" stroke="#0E378F" stroke-width="3.66442"/>
<path d="M566.684 504.84L632.27 439.954" stroke="#0E378F" stroke-width="3.66442"/>
<path d="M572.77 513.545L638.356 448.659" stroke="#0E378F" stroke-width="3.66442"/>
<path d="M578.631 521.927L644.217 457.04" stroke="#0E378F" stroke-width="3.66442"/>
<path d="M584.943 530.953L650.529 466.067" stroke="#0E378F" stroke-width="3.66442"/>
<path d="M591.931 540.947L657.517 476.061" stroke="#0E378F" stroke-width="3.66442"/>
<path d="M598.918 550.94L664.504 486.054" stroke="#0E378F" stroke-width="3.66442"/>
<path d="M605.906 560.934L671.492 496.047" stroke="#0E378F" stroke-width="3.66442"/>
<path d="M611.768 569.315L677.354 504.429" stroke="#0E378F" stroke-width="3.66442"/>
<path d="M617.853 578.019L683.439 513.132" stroke="#0E378F" stroke-width="3.66442"/>
<path d="M623.938 586.723L689.524 521.836" stroke="#0E378F" stroke-width="3.66442"/>
</g>
<rect x="399.685" y="521.084" width="61.1534" height="61.8902" fill="white" fill-opacity="0.5"/>
<mask id="mask3_725:3578" style="mask-type:alpha" maskUnits="userSpaceOnUse" x="396" y="521" width="68" height="64">
<rect x="396" y="521.084" width="67.7844" height="63.3637" fill="#C4C4C4"/>
</mask>
<g mask="url(#mask3_725:3578)">
<path d="M355.607 522.304L418.511 460.072" stroke="#0E378F" stroke-width="3.66442"/>
<path d="M362.31 531.89L425.213 469.657" stroke="#0E378F" stroke-width="3.66442"/>
<path d="M369.011 541.474L431.915 479.241" stroke="#0E378F" stroke-width="3.66442"/>
<path d="M375.712 551.059L438.616 488.827" stroke="#0E378F" stroke-width="3.66442"/>
<path d="M381.335 559.098L444.238 496.865" stroke="#0E378F" stroke-width="3.66442"/>
<path d="M387.171 567.445L450.075 505.212" stroke="#0E378F" stroke-width="3.66442"/>
<path d="M393.009 575.794L455.913 513.561" stroke="#0E378F" stroke-width="3.66442"/>
<path d="M398.63 583.833L461.534 521.6" stroke="#0E378F" stroke-width="3.66442"/>
<path d="M404.684 592.49L467.588 530.257" stroke="#0E378F" stroke-width="3.66442"/>
<path d="M411.386 602.075L474.29 539.843" stroke="#0E378F" stroke-width="3.66442"/>
<path d="M418.087 611.659L480.991 549.427" stroke="#0E378F" stroke-width="3.66442"/>
<path d="M424.789 621.244L487.692 559.011" stroke="#0E378F" stroke-width="3.66442"/>
<path d="M430.411 629.283L493.315 567.05" stroke="#0E378F" stroke-width="3.66442"/>
<path d="M436.248 637.631L499.152 575.398" stroke="#0E378F" stroke-width="3.66442"/>
<path d="M442.085 645.979L504.988 583.746" stroke="#0E378F" stroke-width="3.66442"/>
</g>
<rect x="516.282" y="389.483" width="32.0084" height="32.394" fill="white" fill-opacity="0.5"/>
<mask id="mask4_725:3578" style="mask-type:alpha" maskUnits="userSpaceOnUse" x="514" y="389" width="36" height="34">
<rect x="514.354" y="389.483" width="35.4792" height="33.1653" fill="#C4C4C4"/>
</mask>
<g mask="url(#mask4_725:3578)">
<path d="M493.211 390.121L526.136 357.548" stroke="#0E378F" stroke-width="2.70016"/>
<path d="M496.719 395.138L529.644 362.565" stroke="#0E378F" stroke-width="2.70016"/>
<path d="M500.227 400.155L533.151 367.582" stroke="#0E378F" stroke-width="2.70016"/>
<path d="M503.735 405.172L536.659 372.598" stroke="#0E378F" stroke-width="2.70016"/>
<path d="M506.678 409.379L539.603 376.806" stroke="#0E378F" stroke-width="2.70016"/>
<path d="M509.732 413.748L542.657 381.175" stroke="#0E378F" stroke-width="2.70016"/>
<path d="M512.787 418.118L545.712 385.545" stroke="#0E378F" stroke-width="2.70016"/>
<path d="M515.73 422.326L548.654 389.752" stroke="#0E378F" stroke-width="2.70016"/>
<path d="M518.899 426.857L551.823 394.284" stroke="#0E378F" stroke-width="2.70016"/>
<path d="M522.407 431.874L555.331 399.301" stroke="#0E378F" stroke-width="2.70016"/>
<path d="M525.914 436.891L558.838 404.317" stroke="#0E378F" stroke-width="2.70016"/>
<path d="M529.422 441.907L562.346 409.334" stroke="#0E378F" stroke-width="2.70016"/>
<path d="M532.365 446.115L565.289 413.542" stroke="#0E378F" stroke-width="2.70016"/>
<path d="M535.42 450.484L568.344 417.911" stroke="#0E378F" stroke-width="2.70016"/>
<path d="M538.474 454.854L571.399 422.28" stroke="#0E378F" stroke-width="2.70016"/>
</g>
<rect x="479.625" y="389.637" width="36.4589" height="31.9471" fill="#C6E3F5"/>
<path d="M479.625 403.54L516.084 403.54" stroke="white" stroke-width="2.70016"/>
<path d="M497.854 392.299L497.854 422.176" stroke="white" stroke-width="2.70016"/>
<path d="M501.825 393.187L498.285 390.867M497.793 390.545L493.76 387.902C491.723 386.676 493.385 383.282 496.19 385.166C498.859 386.959 498.554 389.318 497.793 390.545ZM497.793 390.545L493.76 393.187M497.793 390.545L498.285 390.867M497.793 390.545C497.957 388.752 499.007 385.449 500.854 385.166C503.391 384.777 503.449 386.636 502.797 387.902C502.214 389.035 499.789 390.351 498.285 390.867" stroke="white" stroke-width="2.70016"/>
<rect x="548.656" y="390.092" width="64.2231" height="66.5005" fill="#4AACE9"/>
<path d="M580.995 390.092L580.995 456.592" stroke="white" stroke-width="2.70016"/>
<path d="M586.235 421.065L580.751 417.493M579.988 416.996L573.742 412.928C570.585 411.039 573.161 405.814 577.505 408.714C581.64 411.475 581.167 415.107 579.988 416.996ZM579.988 416.996L573.742 421.065M579.988 416.996L580.751 417.493M579.988 416.996C580.243 414.236 581.87 409.15 584.73 408.714C588.66 408.115 588.75 410.978 587.74 412.928C586.837 414.672 583.081 416.698 580.751 417.493" stroke="white" stroke-width="2.70016"/>
<rect x="504.605" y="488.184" width="38.3838" height="32.2911" fill="#10295C"/>
<mask id="mask5_725:3578" style="mask-type:alpha" maskUnits="userSpaceOnUse" x="502" y="487" width="40" height="34">
<rect x="502.777" y="487.575" width="38.9931" height="32.9055" fill="#C4C4C4"/>
</mask>
<g mask="url(#mask5_725:3578)">
<path d="M506.599 526.595L505.834 476.734" stroke="white" stroke-width="2.60413" stroke-dasharray="3.47 3.47"/>
<path d="M511.924 526.669L511.159 476.808" stroke="white" stroke-width="2.60413" stroke-dasharray="3.47 3.47"/>
<path d="M517.249 526.743L516.484 476.882" stroke="white" stroke-width="2.60413" stroke-dasharray="3.47 3.47"/>
<path d="M522.377 526.814L521.612 476.953" stroke="white" stroke-width="2.60413" stroke-dasharray="3.47 3.47"/>
<path d="M527.9 526.891L527.135 477.03" stroke="white" stroke-width="2.60413" stroke-dasharray="3.47 3.47"/>
<path d="M534.014 526.975L533.25 477.115" stroke="white" stroke-width="2.60413" stroke-dasharray="3.47 3.47"/>
<path d="M540.128 527.06L539.363 477.2" stroke="white" stroke-width="2.60413" stroke-dasharray="3.47 3.47"/>
</g>
<rect x="458.905" y="421.699" width="89.9755" height="38.6145" fill="#10295C"/>
<path d="M459.284 441.005H549.763" stroke="white" stroke-width="2.70016"/>
<path d="M506.228 421.319V459.933" stroke="white" stroke-width="2.70016"/>
<path d="M511.854 444.412L506.644 440.931M505.92 440.447L499.986 436.483C496.988 434.642 499.434 429.55 503.561 432.377C507.489 435.067 507.04 438.607 505.92 440.447ZM505.92 440.447L499.986 444.412M505.92 440.447L506.644 440.931M505.92 440.447C506.161 437.757 507.707 432.802 510.424 432.377C514.157 431.793 514.243 434.583 513.283 436.483C512.426 438.182 508.857 440.156 506.644 440.931" stroke="white" stroke-width="2.70016"/>
<rect x="430.884" y="456.719" width="73.3316" height="63.8694" fill="#C6E3F5"/>
<path d="M467.549 462.041L467.549 521.771" stroke="white" stroke-width="2.70016"/>
<path d="M475.537 463.815L468.416 459.178M467.426 458.533L459.315 453.251C455.217 450.798 458.561 444.014 464.201 447.78C469.57 451.364 468.957 456.08 467.426 458.533ZM467.426 458.533L459.315 463.815M467.426 458.533L468.416 459.178M467.426 458.533C467.756 454.948 469.869 448.346 473.582 447.78C478.685 447.002 478.802 450.719 477.491 453.251C476.318 455.515 471.441 458.145 468.416 459.178" stroke="white" stroke-width="2.70016"/>
<path d="M430.884 484.514L504.215 484.514" stroke="white" stroke-width="2.70016"/>
<rect x="503.996" y="456.502" width="75.5491" height="32.4861" fill="#2482BC"/>
<path d="M503.996 472.774H579.284" stroke="white" stroke-width="3.34819"/>
<path d="M543.007 456.635V488.73" stroke="white" stroke-width="3.34819"/>
<path d="M547.931 475.708L543.541 472.832M542.93 472.432L537.93 469.155C535.403 467.634 537.465 463.426 540.942 465.762C544.252 467.986 543.874 470.911 542.93 472.432ZM542.93 472.432L537.93 475.708M542.93 472.432L543.541 472.832M542.93 472.432C543.134 470.209 544.436 466.113 546.726 465.762C549.872 465.28 549.944 467.586 549.135 469.155C548.412 470.56 545.406 472.191 543.541 472.832" stroke="white" stroke-width="3.34819"/>
<rect x="520.446" y="520.475" width="146.224" height="62.1452" fill="#2482BC"/>
<path d="M521.056 551.548H666.671" stroke="white" stroke-width="2.70016"/>
<path d="M596.604 519.866V582.011" stroke="white" stroke-width="2.70016"/>
<path d="M605.661 557.031L597.277 551.43M596.111 550.651L586.561 544.27C581.736 541.308 585.673 533.113 592.314 537.662C598.636 541.992 597.914 547.688 596.111 550.651ZM596.111 550.651L586.561 557.031M596.111 550.651L597.277 551.43M596.111 550.651C596.5 546.321 598.987 538.346 603.359 537.662C609.368 536.722 609.505 541.213 607.962 544.27C606.581 547.005 600.838 550.183 597.277 551.43" stroke="white" stroke-width="2.70016"/>
<rect x="460.524" y="520.648" width="60.1042" height="62.2356" fill="#4AACE9"/>
<path d="M461.59 546.224L521.055 546.224" stroke="white" stroke-width="2.70016"/>
<path d="M490.79 520.648L490.79 582.883" stroke="white" stroke-width="2.70016"/>
<path d="M495.695 549.634L490.562 546.291M489.848 545.826L484.002 542.019C481.048 540.251 483.459 535.361 487.524 538.075C491.394 540.659 490.952 544.058 489.848 545.826ZM489.848 545.826L484.002 549.634M489.848 545.826L490.562 546.291M489.848 545.826C490.086 543.243 491.609 538.483 494.286 538.075C497.964 537.514 498.048 540.194 497.103 542.019C496.258 543.651 492.743 545.547 490.562 546.291" stroke="white" stroke-width="2.70016"/>
<rect x="542.988" y="488.948" width="36.4589" height="31.9471" fill="#C6E3F5"/>
<path d="M542.988 502.851L579.447 502.851" stroke="white" stroke-width="2.70016"/>
<path d="M561.218 491.61L561.218 521.486" stroke="white" stroke-width="2.70016"/>
<path d="M565.189 492.497L561.648 490.178M561.156 489.855L557.124 487.213C555.086 485.986 556.749 482.593 559.553 484.477C562.222 486.27 561.917 488.629 561.156 489.855ZM561.156 489.855L557.124 492.497M561.156 489.855L561.648 490.178M561.156 489.855C561.32 488.062 562.371 484.76 564.217 484.477C566.754 484.087 566.812 485.947 566.16 487.213C565.577 488.346 563.152 489.661 561.648 490.178" stroke="white" stroke-width="2.70016"/>
<path d="M464.67 346.157L466.226 350.976L471.262 350.976L467.188 353.954L468.744 358.772L464.67 355.794L460.596 358.772L462.152 353.954L458.078 350.976L463.114 350.976L464.67 346.157Z" fill="#4AACE9"/>
<path d="M625.355 405.73L626.146 408.162H628.703L626.634 409.666L627.424 412.098L625.355 410.595L623.286 412.098L624.076 409.666L622.007 408.162H624.565L625.355 405.73Z" fill="#4AACE9"/>
<path d="M441.221 428.476L442.011 430.908H444.569L442.5 432.411L443.29 434.844L441.221 433.341L439.152 434.844L439.942 432.411L437.873 430.908H440.431L441.221 428.476Z" fill="#4AACE9"/>
<path d="M594.756 365.654L595.972 369.396L599.907 369.396L596.723 371.709L597.939 375.451L594.756 373.138L591.573 375.451L592.789 371.709L589.605 369.396L593.54 369.396L594.756 365.654Z" fill="#4AACE9"/>
<path d="M486.172 321.245L486.962 323.677H489.519L487.45 325.181L488.241 327.613L486.172 326.11L484.102 327.613L484.893 325.181L482.824 323.677H485.381L486.172 321.245Z" fill="#4AACE9"/>
<path d="M94.7432 626.439H95.9619V639.414C95.9619 639.702 95.9577 639.99 95.9492 640.277C95.9492 640.557 95.9111 641.428 95.835 642.893H95.9365L102.906 626.439H104.519V645H103.3V631.683C103.3 630.616 103.351 629.507 103.452 628.356H103.351L96.3301 645H94.7432V626.439ZM114.688 645L109.749 628.103H109.647C109.732 629.88 109.774 631.006 109.774 631.479V645H108.581V626.439H110.422L114.586 640.633C114.958 641.885 115.2 642.952 115.31 643.832H115.411C115.496 643.206 115.758 642.148 116.198 640.658L120.324 626.439H122.229V645H120.984V631.581C120.984 631.056 121.027 629.905 121.111 628.128H121.01L116.097 645H114.688ZM133.032 645H126.304V626.439H133.032V627.633H127.548V634.679H132.728V635.872H127.548V643.807H133.032V645ZM150.45 635.694C150.45 638.75 150.027 641.107 149.181 642.766C148.343 644.424 147.128 645.254 145.537 645.254C143.971 645.254 142.765 644.454 141.919 642.854C141.073 641.255 140.641 638.927 140.624 635.872H137.552V645H136.308V626.439H137.552V634.679H140.624C140.768 629.008 142.414 626.173 145.562 626.173C147.137 626.173 148.343 626.99 149.181 628.623C150.027 630.257 150.45 632.614 150.45 635.694ZM141.919 635.694C141.919 638.453 142.228 640.54 142.846 641.953C143.464 643.358 144.361 644.061 145.537 644.061C146.722 644.061 147.619 643.354 148.229 641.94C148.838 640.519 149.143 638.437 149.143 635.694C149.143 632.927 148.838 630.849 148.229 629.461C147.628 628.064 146.739 627.366 145.562 627.366C144.361 627.366 143.451 628.073 142.833 629.486C142.224 630.891 141.919 632.961 141.919 635.694ZM156.963 645H155.719V627.633H152.024V626.439H160.657V627.633H156.963V645ZM168.16 627.341C166.764 627.341 165.651 628.081 164.821 629.562C164 631.035 163.59 633.079 163.59 635.694C163.59 637.396 163.78 638.877 164.161 640.138C164.542 641.399 165.088 642.368 165.799 643.045C166.51 643.722 167.335 644.061 168.274 644.061C169.239 644.061 170.069 643.887 170.763 643.54V644.683C170.103 645.063 169.235 645.254 168.16 645.254C166.984 645.254 165.951 644.873 165.062 644.111C164.182 643.35 163.501 642.249 163.019 640.811C162.536 639.363 162.295 637.649 162.295 635.669C162.295 632.707 162.82 630.379 163.869 628.687C164.927 626.994 166.366 626.147 168.186 626.147C169.32 626.147 170.31 626.41 171.156 626.935L170.585 628.026C169.874 627.569 169.066 627.341 168.16 627.341ZM177.212 636.888L173.759 645H172.35L176.044 636.71C175.113 636.465 174.385 635.906 173.86 635.034C173.336 634.154 173.073 633.066 173.073 631.771C173.073 628.217 174.677 626.439 177.885 626.439H180.906V645H179.649V636.913L177.212 636.888ZM179.649 627.582H178.075C176.755 627.582 175.807 627.908 175.231 628.56C174.664 629.211 174.381 630.261 174.381 631.708C174.381 633.113 174.647 634.146 175.181 634.806C175.714 635.466 176.564 635.796 177.732 635.796H179.649V627.582ZM198.845 645H197.601V627.633H191.126V645H189.882V626.439H198.845V645ZM210.677 631.771C210.677 633.684 210.237 635.089 209.356 635.986C208.485 636.883 207.19 637.332 205.472 637.332H204.151V645H202.907V626.439H205.446C207.257 626.439 208.582 626.867 209.42 627.722C210.258 628.576 210.677 629.926 210.677 631.771ZM204.151 636.189H205.396C206.851 636.189 207.884 635.847 208.493 635.161C209.103 634.476 209.407 633.346 209.407 631.771C209.407 630.273 209.09 629.203 208.455 628.56C207.829 627.908 206.855 627.582 205.535 627.582H204.151V636.189ZM223.651 635.694C223.651 638.767 223.19 641.128 222.268 642.778C221.354 644.429 220.029 645.254 218.294 645.254C216.542 645.254 215.213 644.424 214.308 642.766C213.402 641.098 212.949 638.733 212.949 635.669C212.949 632.47 213.398 630.087 214.295 628.521C215.192 626.956 216.538 626.173 218.332 626.173C220.059 626.173 221.375 626.998 222.28 628.648C223.194 630.29 223.651 632.639 223.651 635.694ZM214.244 635.694C214.244 638.453 214.587 640.54 215.272 641.953C215.966 643.358 216.974 644.061 218.294 644.061C219.623 644.061 220.63 643.362 221.315 641.966C222.009 640.569 222.356 638.479 222.356 635.694C222.356 632.944 222.018 630.87 221.341 629.474C220.664 628.069 219.661 627.366 218.332 627.366C216.969 627.366 215.945 628.077 215.26 629.499C214.583 630.912 214.244 632.978 214.244 635.694ZM230.189 645H228.945V627.633H225.251V626.439H233.884V627.633H230.189V645ZM236.144 626.439H237.362V639.414C237.362 639.702 237.358 639.99 237.35 640.277C237.35 640.557 237.312 641.428 237.235 642.893H237.337L244.307 626.439H245.919V645H244.7V631.683C244.7 630.616 244.751 629.507 244.853 628.356H244.751L237.73 645H236.144V626.439ZM249.981 626.439H253.536C254.992 626.439 256.109 626.812 256.888 627.557C257.675 628.301 258.068 629.402 258.068 630.857C258.068 633.371 257.15 634.81 255.313 635.174V635.275C256.371 635.495 257.159 635.969 257.675 636.697C258.191 637.417 258.449 638.424 258.449 639.719C258.449 641.378 258.081 642.673 257.345 643.604C256.608 644.535 255.576 645 254.247 645H249.981V626.439ZM251.226 634.704H253.562C254.721 634.704 255.546 634.387 256.037 633.752C256.536 633.109 256.786 632.135 256.786 630.832C256.786 629.783 256.511 628.979 255.961 628.42C255.419 627.861 254.611 627.582 253.536 627.582H251.226V634.704ZM251.226 635.847V643.857H254.082C256.13 643.857 257.154 642.469 257.154 639.693C257.154 638.458 256.854 637.51 256.253 636.85C255.652 636.181 254.81 635.847 253.727 635.847H251.226ZM271.589 635.694C271.589 638.767 271.128 641.128 270.205 642.778C269.291 644.429 267.966 645.254 266.231 645.254C264.479 645.254 263.151 644.424 262.245 642.766C261.34 641.098 260.887 638.733 260.887 635.669C260.887 632.47 261.335 630.087 262.232 628.521C263.13 626.956 264.475 626.173 266.27 626.173C267.996 626.173 269.312 626.998 270.218 628.648C271.132 630.29 271.589 632.639 271.589 635.694ZM262.182 635.694C262.182 638.453 262.524 640.54 263.21 641.953C263.904 643.358 264.911 644.061 266.231 644.061C267.56 644.061 268.567 643.362 269.253 641.966C269.947 640.569 270.294 638.479 270.294 635.694C270.294 632.944 269.955 630.87 269.278 629.474C268.601 628.069 267.598 627.366 266.27 627.366C264.907 627.366 263.883 628.077 263.197 629.499C262.52 630.912 262.182 632.978 262.182 635.694ZM284.005 645H282.761V627.633H276.286V645H275.042V626.439H284.005V645ZM298.147 635.694C298.147 638.767 297.686 641.128 296.764 642.778C295.85 644.429 294.525 645.254 292.79 645.254C291.038 645.254 289.709 644.424 288.804 642.766C287.898 641.098 287.445 638.733 287.445 635.669C287.445 632.47 287.894 630.087 288.791 628.521C289.688 626.956 291.034 626.173 292.828 626.173C294.555 626.173 295.871 626.998 296.776 628.648C297.69 630.29 298.147 632.639 298.147 635.694ZM288.74 635.694C288.74 638.453 289.083 640.54 289.769 641.953C290.463 643.358 291.47 644.061 292.79 644.061C294.119 644.061 295.126 643.362 295.812 641.966C296.506 640.569 296.853 638.479 296.853 635.694C296.853 632.944 296.514 630.87 295.837 629.474C295.16 628.069 294.157 627.366 292.828 627.366C291.465 627.366 290.441 628.077 289.756 629.499C289.079 630.912 288.74 632.978 288.74 635.694ZM302.845 635.402L308.101 626.439H309.446L304.14 635.402L309.865 645H308.431L302.845 635.504V645H301.601V626.439H302.845V635.402ZM318.93 645L317.292 638.271H312.785L311.173 645H309.878L314.347 626.439H315.629L320.199 645H318.93ZM317 637.015L315.362 630.096C315.193 629.317 315.062 628.581 314.969 627.887C314.893 628.623 314.774 629.359 314.613 630.096L313.026 637.015H317ZM328.921 640.036C328.921 641.687 328.506 642.969 327.677 643.883C326.847 644.797 325.684 645.254 324.186 645.254C323.001 645.254 321.917 645.021 320.936 644.556V643.185C321.367 643.455 321.871 643.671 322.446 643.832C323.022 643.984 323.602 644.061 324.186 644.061C326.479 644.061 327.626 642.728 327.626 640.062C327.626 638.657 327.296 637.624 326.636 636.964C325.976 636.304 324.951 635.974 323.563 635.974H322.294V634.78H323.64C324.833 634.78 325.756 634.433 326.407 633.739C327.059 633.045 327.385 632.025 327.385 630.68C327.385 629.562 327.135 628.733 326.636 628.191C326.145 627.641 325.451 627.366 324.554 627.366C324.054 627.366 323.593 627.476 323.17 627.696C322.755 627.916 322.404 628.2 322.116 628.547L321.278 627.684C322.209 626.676 323.335 626.173 324.655 626.173C325.916 626.173 326.898 626.575 327.601 627.379C328.312 628.174 328.667 629.275 328.667 630.68C328.667 631.89 328.379 632.906 327.804 633.727C327.237 634.539 326.466 635.072 325.493 635.326V635.428C326.619 635.572 327.469 636.041 328.045 636.837C328.629 637.632 328.921 638.699 328.921 640.036ZM339.598 645L337.96 638.271H333.453L331.841 645H330.546L335.015 626.439H336.297L340.867 645H339.598ZM337.668 637.015L336.03 630.096C335.861 629.317 335.73 628.581 335.637 627.887C335.561 628.623 335.442 629.359 335.281 630.096L333.694 637.015H337.668ZM351.874 645H350.63V635.872H344.155V645H342.911V626.439H344.155V634.679H350.63V626.439H351.874V645ZM355.937 626.439H357.155V639.414C357.155 639.702 357.151 639.99 357.143 640.277C357.143 640.557 357.104 641.428 357.028 642.893H357.13L364.1 626.439H365.712V645H364.493V631.683C364.493 630.616 364.544 629.507 364.646 628.356H364.544L357.523 645H355.937V626.439ZM373.151 636.888L369.698 645H368.289L371.983 636.71C371.052 636.465 370.325 635.906 369.8 635.034C369.275 634.154 369.013 633.066 369.013 631.771C369.013 628.217 370.617 626.439 373.824 626.439H376.846V645H375.589V636.913L373.151 636.888ZM375.589 627.582H374.015C372.694 627.582 371.746 627.908 371.171 628.56C370.604 629.211 370.32 630.261 370.32 631.708C370.32 633.113 370.587 634.146 371.12 634.806C371.653 635.466 372.504 635.796 373.672 635.796H375.589V627.582ZM382.787 642.689C382.229 644.594 381.526 646.481 380.68 648.352H379.88C380.515 646.193 380.938 644.209 381.149 642.397H382.609L382.787 642.689ZM400.142 645H398.897V635.872H392.423V645H391.179V626.439H392.423V634.679H398.897V626.439H400.142V645ZM410.933 645H404.204V626.439H410.933V627.633H405.448V634.679H410.628V635.872H405.448V643.807H410.933V645ZM424.288 635.694C424.288 638.767 423.827 641.128 422.904 642.778C421.99 644.429 420.666 645.254 418.931 645.254C417.179 645.254 415.85 644.424 414.944 642.766C414.039 641.098 413.586 638.733 413.586 635.669C413.586 632.47 414.035 630.087 414.932 628.521C415.829 626.956 417.174 626.173 418.969 626.173C420.695 626.173 422.011 626.998 422.917 628.648C423.831 630.29 424.288 632.639 424.288 635.694ZM414.881 635.694C414.881 638.453 415.224 640.54 415.909 641.953C416.603 643.358 417.61 644.061 418.931 644.061C420.259 644.061 421.267 643.362 421.952 641.966C422.646 640.569 422.993 638.479 422.993 635.694C422.993 632.944 422.655 630.87 421.978 629.474C421.3 628.069 420.298 627.366 418.969 627.366C417.606 627.366 416.582 628.077 415.896 629.499C415.219 630.912 414.881 632.978 414.881 635.694ZM428.985 627.633V634.679H430.966C432.625 634.679 433.848 635.093 434.635 635.923C435.43 636.744 435.828 638.035 435.828 639.795C435.828 641.42 435.396 642.694 434.533 643.616C433.678 644.539 432.498 645 430.991 645H427.741V626.439H434.99V627.633H428.985ZM428.985 643.857H431.042C432.176 643.857 433.044 643.51 433.645 642.816C434.245 642.114 434.546 641.107 434.546 639.795C434.546 638.432 434.262 637.429 433.695 636.786C433.128 636.143 432.235 635.821 431.017 635.821H428.985V643.857ZM445.489 645H444.194L441.414 636.469L438.189 645H436.933L440.817 635.148L437.479 626.439H438.786L441.541 634.158L444.22 626.439H445.489L442.214 635.428L445.489 645ZM457.88 635.694C457.88 638.767 457.419 641.128 456.496 642.778C455.582 644.429 454.257 645.254 452.522 645.254C450.771 645.254 449.442 644.424 448.536 642.766C447.631 641.098 447.178 638.733 447.178 635.669C447.178 632.47 447.626 630.087 448.523 628.521C449.421 626.956 450.766 626.173 452.561 626.173C454.287 626.173 455.603 626.998 456.509 628.648C457.423 630.29 457.88 632.639 457.88 635.694ZM448.473 635.694C448.473 638.453 448.815 640.54 449.501 641.953C450.195 643.358 451.202 644.061 452.522 644.061C453.851 644.061 454.858 643.362 455.544 641.966C456.238 640.569 456.585 638.479 456.585 635.694C456.585 632.944 456.246 630.87 455.569 629.474C454.892 628.069 453.889 627.366 452.561 627.366C451.198 627.366 450.174 628.077 449.488 629.499C448.811 630.912 448.473 632.978 448.473 635.694ZM470.689 649.685H469.496V645H460.622V649.685H459.429V643.807H460.546C461.545 640.768 462.251 637.933 462.666 635.301C463.089 632.669 463.301 629.715 463.301 626.439H469.103V643.807H470.689V649.685ZM467.858 643.807V627.633H464.558C464.371 633.6 463.462 638.991 461.828 643.807H467.858ZM473.241 626.439H474.46V639.414C474.46 639.702 474.456 639.99 474.447 640.277C474.447 640.557 474.409 641.428 474.333 642.893H474.435L481.404 626.439H483.017V645H481.798V631.683C481.798 630.616 481.849 629.507 481.95 628.356H481.849L474.828 645H473.241V626.439ZM493.186 645L488.247 628.103H488.146C488.23 629.88 488.272 631.006 488.272 631.479V645H487.079V626.439H488.92L493.084 640.633C493.456 641.885 493.698 642.952 493.808 643.832H493.909C493.994 643.206 494.256 642.148 494.696 640.658L498.822 626.439H500.727V645H499.482V631.581C499.482 631.056 499.525 629.905 499.609 628.128H499.508L494.595 645H493.186ZM514.882 635.694C514.882 638.767 514.421 641.128 513.498 642.778C512.584 644.429 511.259 645.254 509.524 645.254C507.772 645.254 506.444 644.424 505.538 642.766C504.632 641.098 504.18 638.733 504.18 635.669C504.18 632.47 504.628 630.087 505.525 628.521C506.423 626.956 507.768 626.173 509.562 626.173C511.289 626.173 512.605 626.998 513.511 628.648C514.425 630.29 514.882 632.639 514.882 635.694ZM505.475 635.694C505.475 638.453 505.817 640.54 506.503 641.953C507.197 643.358 508.204 644.061 509.524 644.061C510.853 644.061 511.86 643.362 512.546 641.966C513.24 640.569 513.587 638.479 513.587 635.694C513.587 632.944 513.248 630.87 512.571 629.474C511.894 628.069 510.891 627.366 509.562 627.366C508.2 627.366 507.176 628.077 506.49 629.499C505.813 630.912 505.475 632.978 505.475 635.694ZM532.198 645H530.954V627.633H524.479V645H523.235V626.439H532.198V645ZM544.03 631.771C544.03 633.684 543.59 635.089 542.71 635.986C541.838 636.883 540.543 637.332 538.825 637.332H537.505V645H536.261V626.439H538.8C540.611 626.439 541.936 626.867 542.773 627.722C543.611 628.576 544.03 629.926 544.03 631.771ZM537.505 636.189H538.749C540.205 636.189 541.237 635.847 541.847 635.161C542.456 634.476 542.761 633.346 542.761 631.771C542.761 630.273 542.443 629.203 541.809 628.56C541.182 627.908 540.209 627.582 538.889 627.582H537.505V636.189ZM557.005 635.694C557.005 638.767 556.544 641.128 555.621 642.778C554.707 644.429 553.382 645.254 551.647 645.254C549.896 645.254 548.567 644.424 547.661 642.766C546.756 641.098 546.303 638.733 546.303 635.669C546.303 632.47 546.751 630.087 547.648 628.521C548.546 626.956 549.891 626.173 551.686 626.173C553.412 626.173 554.728 626.998 555.634 628.648C556.548 630.29 557.005 632.639 557.005 635.694ZM547.598 635.694C547.598 638.453 547.94 640.54 548.626 641.953C549.32 643.358 550.327 644.061 551.647 644.061C552.976 644.061 553.983 643.362 554.669 641.966C555.363 640.569 555.71 638.479 555.71 635.694C555.71 632.944 555.371 630.87 554.694 629.474C554.017 628.069 553.014 627.366 551.686 627.366C550.323 627.366 549.299 628.077 548.613 629.499C547.936 630.912 547.598 632.978 547.598 635.694ZM561.702 635.402L566.958 626.439H568.304L562.997 635.402L568.723 645H567.288L561.702 635.504V645H560.458V626.439H561.702V635.402ZM580.847 635.694C580.847 638.767 580.385 641.128 579.463 642.778C578.549 644.429 577.224 645.254 575.489 645.254C573.737 645.254 572.409 644.424 571.503 642.766C570.597 641.098 570.145 638.733 570.145 635.669C570.145 632.47 570.593 630.087 571.49 628.521C572.387 626.956 573.733 626.173 575.527 626.173C577.254 626.173 578.57 626.998 579.476 628.648C580.39 630.29 580.847 632.639 580.847 635.694ZM571.439 635.694C571.439 638.453 571.782 640.54 572.468 641.953C573.162 643.358 574.169 644.061 575.489 644.061C576.818 644.061 577.825 643.362 578.511 641.966C579.205 640.569 579.552 638.479 579.552 635.694C579.552 632.944 579.213 630.87 578.536 629.474C577.859 628.069 576.856 627.366 575.527 627.366C574.165 627.366 573.141 628.077 572.455 629.499C571.778 630.912 571.439 632.978 571.439 635.694ZM593.263 645H592.019V635.872H585.544V645H584.3V626.439H585.544V634.679H592.019V626.439H593.263V645ZM602.568 627.341C601.172 627.341 600.059 628.081 599.229 629.562C598.409 631.035 597.998 633.079 597.998 635.694C597.998 637.396 598.188 638.877 598.569 640.138C598.95 641.399 599.496 642.368 600.207 643.045C600.918 643.722 601.743 644.061 602.683 644.061C603.647 644.061 604.477 643.887 605.171 643.54V644.683C604.511 645.063 603.643 645.254 602.568 645.254C601.392 645.254 600.359 644.873 599.471 644.111C598.59 643.35 597.909 642.249 597.427 640.811C596.944 639.363 596.703 637.649 596.703 635.669C596.703 632.707 597.228 630.379 598.277 628.687C599.335 626.994 600.774 626.147 602.594 626.147C603.728 626.147 604.718 626.41 605.564 626.935L604.993 628.026C604.282 627.569 603.474 627.341 602.568 627.341ZM610.186 639.566L606.212 626.439H607.507L610.325 635.948C610.418 636.278 610.562 636.888 610.757 637.776H610.871C610.973 637.057 611.091 636.448 611.227 635.948L613.626 626.439H614.921L610.782 641.928C610.469 643.104 610.08 643.955 609.614 644.479C609.149 644.996 608.544 645.254 607.799 645.254C607.393 645.254 607.02 645.169 606.682 645V643.832C607.054 643.984 607.418 644.061 607.773 644.061C608.197 644.061 608.552 643.874 608.84 643.502C609.128 643.121 609.394 642.495 609.64 641.623L610.186 639.566ZM624.696 645H623.452V627.633H619.809L619.313 633.676C618.95 638.077 618.649 640.849 618.412 641.991C618.175 643.134 617.849 643.951 617.435 644.441C617.028 644.932 616.423 645.178 615.619 645.178C615.23 645.178 614.912 645.102 614.667 644.949V643.781C614.862 643.917 615.154 643.984 615.543 643.984C615.822 643.984 616.055 643.929 616.241 643.819C616.436 643.709 616.609 643.498 616.762 643.185C616.923 642.863 617.062 642.406 617.181 641.813C617.308 641.221 617.426 640.442 617.536 639.478C617.655 638.513 618.048 634.167 618.717 626.439H624.696V645ZM636.846 639.795C636.846 641.42 636.414 642.694 635.551 643.616C634.696 644.539 633.515 645 632.009 645H628.759V626.439H630.003V634.679H631.983C633.642 634.679 634.865 635.093 635.652 635.923C636.448 636.744 636.846 638.035 636.846 639.795ZM630.003 643.857H632.06C633.194 643.857 634.061 643.51 634.662 642.816C635.263 642.114 635.563 641.107 635.563 639.795C635.563 638.432 635.28 637.429 634.713 636.786C634.146 636.143 633.253 635.821 632.034 635.821H630.003V643.857ZM642.939 645H641.695V627.633H638.001V626.439H646.634V627.633H642.939V645ZM648.894 626.439H650.112V639.414C650.112 639.702 650.108 639.99 650.1 640.277C650.1 640.557 650.062 641.428 649.985 642.893H650.087L657.057 626.439H658.669V645H657.45V631.683C657.45 630.616 657.501 629.507 657.603 628.356H657.501L650.48 645H648.894V626.439ZM670.501 631.771C670.501 633.684 670.061 635.089 669.181 635.986C668.309 636.883 667.014 637.332 665.296 637.332H663.976V645H662.731V626.439H665.271C667.082 626.439 668.406 626.867 669.244 627.722C670.082 628.576 670.501 629.926 670.501 631.771ZM663.976 636.189H665.22C666.675 636.189 667.708 635.847 668.317 635.161C668.927 634.476 669.231 633.346 669.231 631.771C669.231 630.273 668.914 629.203 668.279 628.56C667.653 627.908 666.68 627.582 665.359 627.582H663.976V636.189ZM683.476 635.694C683.476 638.767 683.014 641.128 682.092 642.778C681.178 644.429 679.853 645.254 678.118 645.254C676.366 645.254 675.037 644.424 674.132 642.766C673.226 641.098 672.773 638.733 672.773 635.669C672.773 632.47 673.222 630.087 674.119 628.521C675.016 626.956 676.362 626.173 678.156 626.173C679.883 626.173 681.199 626.998 682.104 628.648C683.019 630.29 683.476 632.639 683.476 635.694ZM674.068 635.694C674.068 638.453 674.411 640.54 675.097 641.953C675.791 643.358 676.798 644.061 678.118 644.061C679.447 644.061 680.454 643.362 681.14 641.966C681.834 640.569 682.181 638.479 682.181 635.694C682.181 632.944 681.842 630.87 681.165 629.474C680.488 628.069 679.485 627.366 678.156 627.366C676.794 627.366 675.77 628.077 675.084 629.499C674.407 630.912 674.068 632.978 674.068 635.694ZM686.929 626.439H690.483C691.939 626.439 693.056 626.812 693.835 627.557C694.622 628.301 695.016 629.402 695.016 630.857C695.016 633.371 694.097 634.81 692.261 635.174V635.275C693.319 635.495 694.106 635.969 694.622 636.697C695.138 637.417 695.396 638.424 695.396 639.719C695.396 641.378 695.028 642.673 694.292 643.604C693.556 644.535 692.523 645 691.194 645H686.929V626.439ZM688.173 634.704H690.509C691.668 634.704 692.493 634.387 692.984 633.752C693.484 633.109 693.733 632.135 693.733 630.832C693.733 629.783 693.458 628.979 692.908 628.42C692.367 627.861 691.558 627.582 690.483 627.582H688.173V634.704ZM688.173 635.847V643.857H691.029C693.077 643.857 694.102 642.469 694.102 639.693C694.102 638.458 693.801 637.51 693.2 636.85C692.599 636.181 691.757 635.847 690.674 635.847H688.173ZM705.477 645L703.839 638.271H699.332L697.72 645H696.425L700.894 626.439H702.176L706.746 645H705.477ZM703.547 637.015L701.909 630.096C701.74 629.317 701.609 628.581 701.516 627.887C701.439 628.623 701.321 629.359 701.16 630.096L699.573 637.015H703.547ZM711.875 645H710.631V627.633H706.937V626.439H715.569V627.633H711.875V645ZM725.916 639.795C725.916 641.42 725.484 642.694 724.621 643.616C723.766 644.539 722.586 645 721.079 645H717.829V626.439H719.073V634.679H721.054C722.713 634.679 723.936 635.093 724.723 635.923C725.518 636.744 725.916 638.035 725.916 639.795ZM719.073 643.857H721.13C722.264 643.857 723.132 643.51 723.732 642.816C724.333 642.114 724.634 641.107 724.634 639.795C724.634 638.432 724.35 637.429 723.783 636.786C723.216 636.143 722.323 635.821 721.104 635.821H719.073V643.857ZM734.168 627.341C732.771 627.341 731.659 628.081 730.829 629.562C730.008 631.035 729.598 633.079 729.598 635.694C729.598 637.396 729.788 638.877 730.169 640.138C730.55 641.399 731.096 642.368 731.807 643.045C732.518 643.722 733.343 644.061 734.282 644.061C735.247 644.061 736.076 643.887 736.771 643.54V644.683C736.11 645.063 735.243 645.254 734.168 645.254C732.992 645.254 731.959 644.873 731.07 644.111C730.19 643.35 729.509 642.249 729.026 640.811C728.544 639.363 728.303 637.649 728.303 635.669C728.303 632.707 728.827 630.379 729.877 628.687C730.935 626.994 732.374 626.147 734.193 626.147C735.327 626.147 736.318 626.41 737.164 626.935L736.593 628.026C735.882 627.569 735.074 627.341 734.168 627.341ZM743.22 636.888L739.767 645H738.357L742.052 636.71C741.121 636.465 740.393 635.906 739.868 635.034C739.343 634.154 739.081 633.066 739.081 631.771C739.081 628.217 740.685 626.439 743.893 626.439H746.914V645H745.657V636.913L743.22 636.888ZM745.657 627.582H744.083C742.763 627.582 741.815 627.908 741.239 628.56C740.672 629.211 740.389 630.261 740.389 631.708C740.389 633.113 740.655 634.146 741.188 634.806C741.722 635.466 742.572 635.796 743.74 635.796H745.657V627.582ZM761.133 627.341C759.736 627.341 758.623 628.081 757.794 629.562C756.973 631.035 756.562 633.079 756.562 635.694C756.562 637.396 756.753 638.877 757.134 640.138C757.515 641.399 758.061 642.368 758.771 643.045C759.482 643.722 760.308 644.061 761.247 644.061C762.212 644.061 763.041 643.887 763.735 643.54V644.683C763.075 645.063 762.208 645.254 761.133 645.254C759.956 645.254 758.924 644.873 758.035 644.111C757.155 643.35 756.474 642.249 755.991 640.811C755.509 639.363 755.268 637.649 755.268 635.669C755.268 632.707 755.792 630.379 756.842 628.687C757.9 626.994 759.339 626.147 761.158 626.147C762.292 626.147 763.283 626.41 764.129 626.935L763.558 628.026C762.847 627.569 762.038 627.341 761.133 627.341ZM776.888 635.694C776.888 638.767 776.426 641.128 775.504 642.778C774.59 644.429 773.265 645.254 771.53 645.254C769.778 645.254 768.45 644.424 767.544 642.766C766.638 641.098 766.186 638.733 766.186 635.669C766.186 632.47 766.634 630.087 767.531 628.521C768.428 626.956 769.774 626.173 771.568 626.173C773.295 626.173 774.611 626.998 775.517 628.648C776.431 630.29 776.888 632.639 776.888 635.694ZM767.48 635.694C767.48 638.453 767.823 640.54 768.509 641.953C769.203 643.358 770.21 644.061 771.53 644.061C772.859 644.061 773.866 643.362 774.552 641.966C775.246 640.569 775.593 638.479 775.593 635.694C775.593 632.944 775.254 630.87 774.577 629.474C773.9 628.069 772.897 627.366 771.568 627.366C770.206 627.366 769.182 628.077 768.496 629.499C767.819 630.912 767.48 632.978 767.48 635.694ZM790.484 627.341C789.088 627.341 787.975 628.081 787.146 629.562C786.325 631.035 785.914 633.079 785.914 635.694C785.914 637.396 786.104 638.877 786.485 640.138C786.866 641.399 787.412 642.368 788.123 643.045C788.834 643.722 789.659 644.061 790.599 644.061C791.563 644.061 792.393 643.887 793.087 643.54V644.683C792.427 645.063 791.559 645.254 790.484 645.254C789.308 645.254 788.275 644.873 787.387 644.111C786.507 643.35 785.825 642.249 785.343 640.811C784.86 639.363 784.619 637.649 784.619 635.669C784.619 632.707 785.144 630.379 786.193 628.687C787.251 626.994 788.69 626.147 790.51 626.147C791.644 626.147 792.634 626.41 793.48 626.935L792.909 628.026C792.198 627.569 791.39 627.341 790.484 627.341ZM805.122 645H803.878V627.633H797.403V645H796.159V626.439H805.122V645ZM815.913 645H809.185V626.439H815.913V627.633H810.429V634.679H815.608V635.872H810.429V643.807H815.913V645ZM828.151 643.807H829.561V649.685H828.367V645H819.188V626.439H820.433V643.807H826.907V626.439H828.151V643.807ZM832.29 626.439H833.509V639.414C833.509 639.702 833.505 639.99 833.496 640.277C833.496 640.557 833.458 641.428 833.382 642.893H833.483L840.453 626.439H842.065V645H840.847V631.683C840.847 630.616 840.897 629.507 840.999 628.356H840.897L833.877 645H832.29V626.439ZM853.148 645L851.511 638.271H847.004L845.392 645H844.097L848.565 626.439H849.848L854.418 645H853.148ZM851.219 637.015L849.581 630.096C849.412 629.317 849.281 628.581 849.188 627.887C849.111 628.623 848.993 629.359 848.832 630.096L847.245 637.015H851.219ZM864.206 645H862.962V627.633H859.318L858.823 633.676C858.459 638.077 858.159 640.849 857.922 641.991C857.685 643.134 857.359 643.951 856.944 644.441C856.538 644.932 855.933 645.178 855.129 645.178C854.74 645.178 854.422 645.102 854.177 644.949V643.781C854.371 643.917 854.663 643.984 855.053 643.984C855.332 643.984 855.565 643.929 855.751 643.819C855.946 643.709 856.119 643.498 856.271 643.185C856.432 642.863 856.572 642.406 856.69 641.813C856.817 641.221 856.936 640.442 857.046 639.478C857.164 638.513 857.558 634.167 858.227 626.439H864.206V645ZM868.269 626.439H869.487V639.414C869.487 639.702 869.483 639.99 869.475 640.277C869.475 640.557 869.437 641.428 869.36 642.893H869.462L876.432 626.439H878.044V645H876.825V631.683C876.825 630.616 876.876 629.507 876.978 628.356H876.876L869.855 645H868.269V626.439ZM887.35 627.341C885.953 627.341 884.84 628.081 884.011 629.562C883.19 631.035 882.779 633.079 882.779 635.694C882.779 637.396 882.97 638.877 883.351 640.138C883.731 641.399 884.277 642.368 884.988 643.045C885.699 643.722 886.524 644.061 887.464 644.061C888.429 644.061 889.258 643.887 889.952 643.54V644.683C889.292 645.063 888.424 645.254 887.35 645.254C886.173 645.254 885.141 644.873 884.252 644.111C883.372 643.35 882.69 642.249 882.208 640.811C881.726 639.363 881.484 637.649 881.484 635.669C881.484 632.707 882.009 630.379 883.059 628.687C884.117 626.994 885.555 626.147 887.375 626.147C888.509 626.147 889.499 626.41 890.346 626.935L889.774 628.026C889.063 627.569 888.255 627.341 887.35 627.341ZM896.109 645H894.865V627.633H891.171V626.439H899.804V627.633H896.109V645ZM912.144 635.694C912.144 638.767 911.682 641.128 910.76 642.778C909.846 644.429 908.521 645.254 906.786 645.254C905.034 645.254 903.705 644.424 902.8 642.766C901.894 641.098 901.441 638.733 901.441 635.669C901.441 632.47 901.89 630.087 902.787 628.521C903.684 626.956 905.03 626.173 906.824 626.173C908.551 626.173 909.867 626.998 910.772 628.648C911.687 630.29 912.144 632.639 912.144 635.694ZM902.736 635.694C902.736 638.453 903.079 640.54 903.765 641.953C904.459 643.358 905.466 644.061 906.786 644.061C908.115 644.061 909.122 643.362 909.808 641.966C910.502 640.569 910.849 638.479 910.849 635.694C910.849 632.944 910.51 630.87 909.833 629.474C909.156 628.069 908.153 627.366 906.824 627.366C905.462 627.366 904.438 628.077 903.752 629.499C903.075 630.912 902.736 632.978 902.736 635.694ZM921.703 645L916.765 628.103H916.663C916.748 629.88 916.79 631.006 916.79 631.479V645H915.597V626.439H917.438L921.602 640.633C921.974 641.885 922.215 642.952 922.325 643.832H922.427C922.511 643.206 922.774 642.148 923.214 640.658L927.34 626.439H929.244V645H928V631.581C928 631.056 928.042 629.905 928.127 628.128H928.025L923.112 645H921.703Z" fill="white" fill-opacity="0.3"/>
<path opacity="0.3" d="M0.000120163 725.115C0.000120163 729.888 3.85377 733.758 8.60748 733.758C13.3612 733.758 17.2148 729.888 17.2148 725.115C17.2148 720.342 13.3612 716.472 8.60748 716.472C3.85377 716.472 0.000120163 720.342 0.000120163 725.115Z" fill="white" fill-opacity="0.3"/>
<path d="M21.5177 725.115C21.5177 729.888 25.3713 733.758 30.1251 733.758C34.8788 733.758 38.7324 729.888 38.7324 725.115C38.7324 720.342 34.8788 716.472 30.1251 716.472C25.3713 716.472 21.5177 720.342 21.5177 725.115Z" fill="white"/>
<path opacity="0.3" d="M43.0367 725.115C43.0367 729.888 46.8904 733.758 51.6441 733.758C56.3978 733.758 60.2515 729.888 60.2515 725.115C60.2515 720.342 56.3978 716.472 51.6441 716.472C46.8904 716.472 43.0367 720.342 43.0367 725.115Z" fill="white" fill-opacity="0.3"/>
<path opacity="0.3" d="M43.0367 703.509C43.0367 708.282 46.8904 712.151 51.6441 712.151C56.3978 712.151 60.2515 708.282 60.2515 703.509C60.2515 698.735 56.3978 694.866 51.6441 694.866C46.8904 694.866 43.0367 698.735 43.0367 703.509Z" fill="white" fill-opacity="0.3"/>
<path d="M21.38 703.509C21.38 708.282 25.2337 712.151 29.9874 712.151C34.7411 712.151 38.5947 708.282 38.5947 703.509C38.5947 698.735 34.7411 694.866 29.9874 694.866C25.2337 694.866 21.38 698.735 21.38 703.509Z" fill="white" fill-opacity="0.3"/>
<path d="M43.0367 681.902C43.0367 686.676 46.8904 690.545 51.6441 690.545C56.3978 690.545 60.2515 686.676 60.2515 681.902C60.2515 677.129 56.3978 673.26 51.6441 673.26C46.8904 673.26 43.0367 677.129 43.0367 681.902Z" fill="white" fill-opacity="0.3"/>
<path opacity="0.3" d="M21.38 681.902C21.38 686.676 25.2337 690.545 29.9874 690.545C34.7411 690.545 38.5947 686.676 38.5947 681.902C38.5947 677.129 34.7411 673.26 29.9874 673.26C25.2337 673.26 21.38 677.129 21.38 681.902Z" fill="white" fill-opacity="0.3"/>
<path d="M107.591 681.902C107.591 686.676 111.445 690.545 116.199 690.545C120.953 690.545 124.806 686.676 124.806 681.902C124.806 677.129 120.953 673.26 116.199 673.26C111.445 673.26 107.591 677.129 107.591 681.902Z" fill="white"/>
<path d="M171.862 681.902C171.862 686.676 175.716 690.545 180.47 690.545C185.224 690.545 189.077 686.676 189.077 681.902C189.077 677.129 185.224 673.26 180.47 673.26C175.716 673.26 171.862 677.129 171.862 681.902Z" fill="white" fill-opacity="0.3"/>
<path d="M257.383 681.902C257.383 686.676 261.237 690.545 265.99 690.545C270.744 690.545 274.598 686.676 274.598 681.902C274.598 677.129 270.744 673.26 265.99 673.26C261.237 673.26 257.383 677.129 257.383 681.902Z" fill="white"/>
<path d="M300.143 681.902C300.143 686.676 303.997 690.545 308.751 690.545C313.504 690.545 317.358 686.676 317.358 681.902C317.358 677.129 313.504 673.26 308.751 673.26C303.997 673.26 300.143 677.129 300.143 681.902Z" fill="white" fill-opacity="0.3"/>
<path d="M407.043 681.902C407.043 686.676 410.897 690.545 415.65 690.545C420.404 690.545 424.258 686.676 424.258 681.902C424.258 677.129 420.404 673.26 415.65 673.26C410.897 673.26 407.043 677.129 407.043 681.902Z" fill="white"/>
<path d="M449.803 725.201C449.803 729.975 453.657 733.844 458.411 733.844C463.164 733.844 467.018 729.975 467.018 725.201C467.018 720.428 463.164 716.559 458.411 716.559C453.657 716.559 449.803 720.428 449.803 725.201Z" fill="white"/>
<path opacity="0.3" d="M129.11 703.811C129.11 708.584 132.964 712.454 137.717 712.454C142.471 712.454 146.325 708.584 146.325 703.811C146.325 699.038 142.471 695.168 137.717 695.168C132.964 695.168 129.11 699.038 129.11 703.811Z" fill="white" fill-opacity="0.3"/>
<path opacity="0.3" d="M172 703.811C172 708.584 175.854 712.454 180.607 712.454C185.361 712.454 189.215 708.584 189.215 703.811C189.215 699.038 185.361 695.168 180.607 695.168C175.854 695.168 172 699.038 172 703.811Z" fill="white" fill-opacity="0.3"/>
<path opacity="0.3" d="M214.76 681.643C214.76 686.416 218.614 690.285 223.367 690.285C228.121 690.285 231.975 686.416 231.975 681.643C231.975 676.869 228.121 673 223.367 673C218.614 673 214.76 676.869 214.76 681.643Z" fill="white" fill-opacity="0.3"/>
<path opacity="0.3" d="M214.76 725.158C214.76 729.931 218.614 733.801 223.367 733.801C228.121 733.801 231.975 729.931 231.975 725.158C231.975 720.385 228.121 716.516 223.367 716.516C218.614 716.516 214.76 720.385 214.76 725.158Z" fill="white" fill-opacity="0.3"/>
<path opacity="0.3" d="M257.521 703.811C257.521 708.584 261.374 712.454 266.128 712.454C270.882 712.454 274.735 708.584 274.735 703.811C274.735 699.038 270.882 695.168 266.128 695.168C261.374 695.168 257.521 699.038 257.521 703.811Z" fill="white" fill-opacity="0.3"/>
<path opacity="0.3" d="M257.521 725.158C257.521 729.931 261.374 733.801 266.128 733.801C270.882 733.801 274.735 729.931 274.735 725.158C274.735 720.385 270.882 716.516 266.128 716.516C261.374 716.516 257.521 720.385 257.521 725.158Z" fill="white" fill-opacity="0.3"/>
<path opacity="0.3" d="M300.28 703.811C300.28 708.584 304.134 712.454 308.888 712.454C313.641 712.454 317.495 708.584 317.495 703.811C317.495 699.038 313.641 695.168 308.888 695.168C304.134 695.168 300.28 699.038 300.28 703.811Z" fill="white" fill-opacity="0.3"/>
<path opacity="0.3" d="M321.524 703.811C321.524 708.584 325.377 712.454 330.131 712.454C334.885 712.454 338.738 708.584 338.738 703.811C338.738 699.038 334.885 695.168 330.131 695.168C325.377 695.168 321.524 699.038 321.524 703.811Z" fill="white" fill-opacity="0.3"/>
<path d="M343.041 703.811C343.041 708.584 346.895 712.454 351.648 712.454C356.402 712.454 360.256 708.584 360.256 703.811C360.256 699.038 356.402 695.168 351.648 695.168C346.895 695.168 343.041 699.038 343.041 703.811Z" fill="white" fill-opacity="0.3"/>
<path opacity="0.3" d="M385.801 725.158C385.801 729.931 389.655 733.801 394.409 733.801C399.162 733.801 403.016 729.931 403.016 725.158C403.016 720.385 399.162 716.516 394.409 716.516C389.655 716.516 385.801 720.385 385.801 725.158Z" fill="white" fill-opacity="0.3"/>
<path opacity="0.3" d="M407.043 703.811C407.043 708.584 410.897 712.454 415.65 712.454C420.404 712.454 424.258 708.584 424.258 703.811C424.258 699.038 420.404 695.168 415.65 695.168C410.897 695.168 407.043 699.038 407.043 703.811Z" fill="white" fill-opacity="0.3"/>
<path d="M428.424 703.811C428.424 708.584 432.278 712.454 437.031 712.454C441.785 712.454 445.639 708.584 445.639 703.811C445.639 699.038 441.785 695.168 437.031 695.168C432.278 695.168 428.424 699.038 428.424 703.811Z" fill="white" fill-opacity="0.3"/>
<path d="M64.5548 725.115C64.5548 729.888 68.4085 733.758 73.1622 733.758C77.9159 733.758 81.7695 729.888 81.7695 725.115C81.7695 720.342 77.9159 716.472 73.1622 716.472C68.4085 716.472 64.5548 720.342 64.5548 725.115Z" fill="white" fill-opacity="0.3"/>
<path opacity="0.3" d="M64.5548 703.509C64.5548 708.282 68.4085 712.151 73.1622 712.151C77.9159 712.151 81.7695 708.282 81.7695 703.509C81.7695 698.735 77.9159 694.866 73.1622 694.866C68.4085 694.866 64.5548 698.735 64.5548 703.509Z" fill="white" fill-opacity="0.3"/>
<path opacity="0.3" d="M107.591 725.115C107.591 729.888 111.445 733.758 116.199 733.758C120.953 733.758 124.806 729.888 124.806 725.115C124.806 720.342 120.953 716.472 116.199 716.472C111.445 716.472 107.591 720.342 107.591 725.115Z" fill="white" fill-opacity="0.3"/>
<path d="M171.862 725.115C171.862 729.888 175.716 733.758 180.47 733.758C185.224 733.758 189.077 729.888 189.077 725.115C189.077 720.342 185.224 716.472 180.47 716.472C175.716 716.472 171.862 720.342 171.862 725.115Z" fill="white"/>
<path opacity="0.3" d="M193.242 703.811C193.242 708.584 197.096 712.454 201.85 712.454C206.603 712.454 210.457 708.584 210.457 703.811C210.457 699.038 206.603 695.168 201.85 695.168C197.096 695.168 193.242 699.038 193.242 703.811Z" fill="white" fill-opacity="0.3"/>
<path opacity="0.3" d="M236.002 725.115C236.002 729.888 239.856 733.758 244.609 733.758C249.363 733.758 253.217 729.888 253.217 725.115C253.217 720.342 249.363 716.472 244.609 716.472C239.856 716.472 236.002 720.342 236.002 725.115Z" fill="white" fill-opacity="0.3"/>
<path opacity="0.3" d="M278.762 725.115C278.762 729.888 282.616 733.758 287.37 733.758C292.123 733.758 295.977 729.888 295.977 725.115C295.977 720.342 292.123 716.472 287.37 716.472C282.616 716.472 278.762 720.342 278.762 725.115Z" fill="white" fill-opacity="0.3"/>
<path opacity="0.3" d="M321.523 725.115C321.523 729.888 325.376 733.758 330.13 733.758C334.884 733.758 338.737 729.888 338.737 725.115C338.737 720.342 334.884 716.472 330.13 716.472C325.376 716.472 321.523 720.342 321.523 725.115Z" fill="white" fill-opacity="0.3"/>
<path opacity="0.3" d="M342.903 725.115C342.903 729.888 346.757 733.758 351.511 733.758C356.265 733.758 360.118 729.888 360.118 725.115C360.118 720.342 356.265 716.472 351.511 716.472C346.757 716.472 342.903 720.342 342.903 725.115Z" fill="white" fill-opacity="0.3"/>
<path opacity="0.3" d="M342.903 681.643C342.903 686.416 346.757 690.285 351.511 690.285C356.265 690.285 360.118 686.416 360.118 681.643C360.118 676.869 356.265 673 351.511 673C346.757 673 342.903 676.869 342.903 681.643Z" fill="white" fill-opacity="0.3"/>
<path opacity="0.3" d="M449.804 681.643C449.804 686.416 453.657 690.285 458.411 690.285C463.165 690.285 467.019 686.416 467.019 681.643C467.019 676.869 463.165 673 458.411 673C453.657 673 449.804 676.869 449.804 681.643Z" fill="white" fill-opacity="0.3"/>
<path opacity="0.3" d="M364.283 703.811C364.283 708.584 368.137 712.454 372.891 712.454C377.644 712.454 381.498 708.584 381.498 703.811C381.498 699.038 377.644 695.168 372.891 695.168C368.137 695.168 364.283 699.038 364.283 703.811Z" fill="white" fill-opacity="0.3"/>
<path opacity="0.3" d="M471.183 703.811C471.183 708.584 475.037 712.454 479.791 712.454C484.544 712.454 488.398 708.584 488.398 703.811C488.398 699.038 484.544 695.168 479.791 695.168C475.037 695.168 471.183 699.038 471.183 703.811Z" fill="white" fill-opacity="0.3"/>
<path opacity="0.3" d="M449.804 703.811C449.804 708.584 453.657 712.454 458.411 712.454C463.165 712.454 467.019 708.584 467.019 703.811C467.019 699.038 463.165 695.168 458.411 695.168C453.657 695.168 449.804 699.038 449.804 703.811Z" fill="white" fill-opacity="0.3"/>
<path opacity="0.3" d="M488.398 725.115C488.398 729.888 492.252 733.758 497.005 733.758C501.759 733.758 505.613 729.888 505.613 725.115C505.613 720.342 501.759 716.472 497.005 716.472C492.252 716.472 488.398 720.342 488.398 725.115Z" fill="white" fill-opacity="0.3"/>
<path d="M509.917 725.115C509.917 729.888 513.77 733.758 518.524 733.758C523.278 733.758 527.131 729.888 527.131 725.115C527.131 720.342 523.278 716.472 518.524 716.472C513.77 716.472 509.917 720.342 509.917 725.115Z" fill="white"/>
<path opacity="0.3" d="M531.435 725.115C531.435 729.888 535.288 733.758 540.042 733.758C544.796 733.758 548.649 729.888 548.649 725.115C548.649 720.342 544.796 716.472 540.042 716.472C535.288 716.472 531.435 720.342 531.435 725.115Z" fill="white" fill-opacity="0.3"/>
<path opacity="0.3" d="M531.435 703.509C531.435 708.282 535.288 712.151 540.042 712.151C544.796 712.151 548.649 708.282 548.649 703.509C548.649 698.735 544.796 694.866 540.042 694.866C535.288 694.866 531.435 698.735 531.435 703.509Z" fill="white" fill-opacity="0.3"/>
<path d="M509.778 703.509C509.778 708.282 513.632 712.151 518.385 712.151C523.139 712.151 526.993 708.282 526.993 703.509C526.993 698.735 523.139 694.866 518.385 694.866C513.632 694.866 509.778 698.735 509.778 703.509Z" fill="white" fill-opacity="0.3"/>
<path d="M531.435 681.902C531.435 686.676 535.288 690.545 540.042 690.545C544.796 690.545 548.649 686.676 548.649 681.902C548.649 677.129 544.796 673.26 540.042 673.26C535.288 673.26 531.435 677.129 531.435 681.902Z" fill="white" fill-opacity="0.3"/>
<path opacity="0.3" d="M509.778 681.902C509.778 686.676 513.632 690.545 518.385 690.545C523.139 690.545 526.993 686.676 526.993 681.902C526.993 677.129 523.139 673.26 518.385 673.26C513.632 673.26 509.778 677.129 509.778 681.902Z" fill="white" fill-opacity="0.3"/>
<path d="M595.99 681.902C595.99 686.676 599.844 690.545 604.597 690.545C609.351 690.545 613.205 686.676 613.205 681.902C613.205 677.129 609.351 673.26 604.597 673.26C599.844 673.26 595.99 677.129 595.99 681.902Z" fill="white"/>
<path d="M660.261 681.902C660.261 686.676 664.115 690.545 668.868 690.545C673.622 690.545 677.476 686.676 677.476 681.902C677.476 677.129 673.622 673.26 668.868 673.26C664.115 673.26 660.261 677.129 660.261 681.902Z" fill="white" fill-opacity="0.3"/>
<path d="M745.781 681.902C745.781 686.676 749.635 690.545 754.389 690.545C759.142 690.545 762.996 686.676 762.996 681.902C762.996 677.129 759.142 673.26 754.389 673.26C749.635 673.26 745.781 677.129 745.781 681.902Z" fill="white"/>
<path d="M788.541 681.902C788.541 686.676 792.395 690.545 797.148 690.545C801.902 690.545 805.756 686.676 805.756 681.902C805.756 677.129 801.902 673.26 797.148 673.26C792.395 673.26 788.541 677.129 788.541 681.902Z" fill="white" fill-opacity="0.3"/>
<path opacity="0.3" d="M617.507 703.811C617.507 708.584 621.361 712.454 626.115 712.454C630.869 712.454 634.722 708.584 634.722 703.811C634.722 699.038 630.869 695.168 626.115 695.168C621.361 695.168 617.507 699.038 617.507 703.811Z" fill="white" fill-opacity="0.3"/>
<path opacity="0.3" d="M660.399 703.811C660.399 708.584 664.252 712.454 669.006 712.454C673.76 712.454 677.613 708.584 677.613 703.811C677.613 699.038 673.76 695.168 669.006 695.168C664.252 695.168 660.399 699.038 660.399 703.811Z" fill="white" fill-opacity="0.3"/>
<path opacity="0.3" d="M703.158 681.643C703.158 686.416 707.012 690.285 711.766 690.285C716.519 690.285 720.373 686.416 720.373 681.643C720.373 676.869 716.519 673 711.766 673C707.012 673 703.158 676.869 703.158 681.643Z" fill="white" fill-opacity="0.3"/>
<path opacity="0.3" d="M703.158 725.158C703.158 729.932 707.012 733.801 711.766 733.801C716.519 733.801 720.373 729.932 720.373 725.158C720.373 720.385 716.519 716.516 711.766 716.516C707.012 716.516 703.158 720.385 703.158 725.158Z" fill="white" fill-opacity="0.3"/>
<path opacity="0.3" d="M745.919 703.811C745.919 708.584 749.772 712.454 754.526 712.454C759.28 712.454 763.133 708.584 763.133 703.811C763.133 699.038 759.28 695.168 754.526 695.168C749.772 695.168 745.919 699.038 745.919 703.811Z" fill="white" fill-opacity="0.3"/>
<path opacity="0.3" d="M745.919 725.158C745.919 729.932 749.772 733.801 754.526 733.801C759.28 733.801 763.133 729.932 763.133 725.158C763.133 720.385 759.28 716.516 754.526 716.516C749.772 716.516 745.919 720.385 745.919 725.158Z" fill="white" fill-opacity="0.3"/>
<path opacity="0.3" d="M788.678 703.811C788.678 708.584 792.532 712.454 797.285 712.454C802.039 712.454 805.893 708.584 805.893 703.811C805.893 699.038 802.039 695.168 797.285 695.168C792.532 695.168 788.678 699.038 788.678 703.811Z" fill="white" fill-opacity="0.3"/>
<path opacity="0.3" d="M809.921 703.811C809.921 708.584 813.775 712.454 818.528 712.454C823.282 712.454 827.136 708.584 827.136 703.811C827.136 699.038 823.282 695.168 818.528 695.168C813.775 695.168 809.921 699.038 809.921 703.811Z" fill="white" fill-opacity="0.3"/>
<path d="M831.439 703.811C831.439 708.584 835.293 712.454 840.046 712.454C844.8 712.454 848.654 708.584 848.654 703.811C848.654 699.038 844.8 695.168 840.046 695.168C835.293 695.168 831.439 699.038 831.439 703.811Z" fill="white" fill-opacity="0.3"/>
<path d="M552.953 725.115C552.953 729.888 556.806 733.758 561.56 733.758C566.314 733.758 570.167 729.888 570.167 725.115C570.167 720.342 566.314 716.472 561.56 716.472C556.806 716.472 552.953 720.342 552.953 725.115Z" fill="white" fill-opacity="0.3"/>
<path opacity="0.3" d="M552.953 703.509C552.953 708.282 556.806 712.151 561.56 712.151C566.314 712.151 570.167 708.282 570.167 703.509C570.167 698.735 566.314 694.866 561.56 694.866C556.806 694.866 552.953 698.735 552.953 703.509Z" fill="white" fill-opacity="0.3"/>
<path opacity="0.3" d="M595.99 725.115C595.99 729.888 599.844 733.758 604.597 733.758C609.351 733.758 613.205 729.888 613.205 725.115C613.205 720.342 609.351 716.472 604.597 716.472C599.844 716.472 595.99 720.342 595.99 725.115Z" fill="white" fill-opacity="0.3"/>
<path d="M660.261 725.115C660.261 729.888 664.115 733.758 668.868 733.758C673.622 733.758 677.476 729.888 677.476 725.115C677.476 720.342 673.622 716.472 668.868 716.472C664.115 716.472 660.261 720.342 660.261 725.115Z" fill="white"/>
<path opacity="0.3" d="M681.64 703.811C681.64 708.584 685.493 712.454 690.247 712.454C695.001 712.454 698.854 708.584 698.854 703.811C698.854 699.038 695.001 695.168 690.247 695.168C685.493 695.168 681.64 699.038 681.64 703.811Z" fill="white" fill-opacity="0.3"/>
<path opacity="0.3" d="M724.4 725.115C724.4 729.888 728.253 733.758 733.007 733.758C737.761 733.758 741.614 729.888 741.614 725.115C741.614 720.342 737.761 716.472 733.007 716.472C728.253 716.472 724.4 720.342 724.4 725.115Z" fill="white" fill-opacity="0.3"/>
<path opacity="0.3" d="M767.16 725.115C767.16 729.888 771.014 733.758 775.768 733.758C780.521 733.758 784.375 729.888 784.375 725.115C784.375 720.342 780.521 716.472 775.768 716.472C771.014 716.472 767.16 720.342 767.16 725.115Z" fill="white" fill-opacity="0.3"/>
<path opacity="0.3" d="M809.921 725.115C809.921 729.888 813.775 733.758 818.528 733.758C823.282 733.758 827.136 729.888 827.136 725.115C827.136 720.342 823.282 716.472 818.528 716.472C813.775 716.472 809.921 720.342 809.921 725.115Z" fill="white" fill-opacity="0.3"/>
<path opacity="0.3" d="M831.301 725.115C831.301 729.888 835.155 733.758 839.909 733.758C844.662 733.758 848.516 729.888 848.516 725.115C848.516 720.342 844.662 716.472 839.909 716.472C835.155 716.472 831.301 720.342 831.301 725.115Z" fill="white" fill-opacity="0.3"/>
<path opacity="0.3" d="M831.301 681.643C831.301 686.416 835.155 690.285 839.909 690.285C844.662 690.285 848.516 686.416 848.516 681.643C848.516 676.869 844.662 673 839.909 673C835.155 673 831.301 676.869 831.301 681.643Z" fill="white" fill-opacity="0.3"/>
<path d="M849 681.902C849 686.676 852.854 690.545 857.607 690.545C862.361 690.545 866.215 686.676 866.215 681.902C866.215 677.129 862.361 673.26 857.607 673.26C852.854 673.26 849 677.129 849 681.902Z" fill="white"/>
<path d="M913.271 681.902C913.271 686.676 917.125 690.545 921.878 690.545C926.632 690.545 930.486 686.676 930.486 681.902C930.486 677.129 926.632 673.26 921.878 673.26C917.125 673.26 913.271 677.129 913.271 681.902Z" fill="white" fill-opacity="0.3"/>
<path d="M998.792 681.902C998.792 686.676 1002.65 690.545 1007.4 690.545C1012.15 690.545 1016.01 686.676 1016.01 681.902C1016.01 677.129 1012.15 673.26 1007.4 673.26C1002.65 673.26 998.792 677.129 998.792 681.902Z" fill="white"/>
<path opacity="0.3" d="M870.518 703.811C870.518 708.584 874.371 712.454 879.125 712.454C883.879 712.454 887.732 708.584 887.732 703.811C887.732 699.038 883.879 695.168 879.125 695.168C874.371 695.168 870.518 699.038 870.518 703.811Z" fill="white" fill-opacity="0.3"/>
<path opacity="0.3" d="M913.409 703.811C913.409 708.584 917.262 712.454 922.016 712.454C926.77 712.454 930.624 708.584 930.624 703.811C930.624 699.038 926.77 695.168 922.016 695.168C917.262 695.168 913.409 699.038 913.409 703.811Z" fill="white" fill-opacity="0.3"/>
<path opacity="0.3" d="M956.169 681.643C956.169 686.416 960.022 690.285 964.776 690.285C969.53 690.285 973.383 686.416 973.383 681.643C973.383 676.869 969.53 673 964.776 673C960.022 673 956.169 676.869 956.169 681.643Z" fill="white" fill-opacity="0.3"/>
<path opacity="0.3" d="M956.169 725.158C956.169 729.932 960.022 733.801 964.776 733.801C969.53 733.801 973.383 729.932 973.383 725.158C973.383 720.385 969.53 716.516 964.776 716.516C960.022 716.516 956.169 720.385 956.169 725.158Z" fill="white" fill-opacity="0.3"/>
<path opacity="0.3" d="M998.929 703.811C998.929 708.584 1002.78 712.454 1007.54 712.454C1012.29 712.454 1016.14 708.584 1016.14 703.811C1016.14 699.038 1012.29 695.168 1007.54 695.168C1002.78 695.168 998.929 699.038 998.929 703.811Z" fill="white" fill-opacity="0.3"/>
<path opacity="0.3" d="M998.929 725.158C998.929 729.932 1002.78 733.801 1007.54 733.801C1012.29 733.801 1016.14 729.932 1016.14 725.158C1016.14 720.385 1012.29 716.516 1007.54 716.516C1002.78 716.516 998.929 720.385 998.929 725.158Z" fill="white" fill-opacity="0.3"/>
<path opacity="0.3" d="M849 725.115C849 729.888 852.854 733.758 857.607 733.758C862.361 733.758 866.215 729.888 866.215 725.115C866.215 720.342 862.361 716.472 857.607 716.472C852.854 716.472 849 720.342 849 725.115Z" fill="white" fill-opacity="0.3"/>
<path d="M913.271 725.115C913.271 729.888 917.125 733.758 921.878 733.758C926.632 733.758 930.486 729.888 930.486 725.115C930.486 720.342 926.632 716.472 921.878 716.472C917.125 716.472 913.271 720.342 913.271 725.115Z" fill="white"/>
<path opacity="0.3" d="M934.65 703.811C934.65 708.584 938.504 712.454 943.257 712.454C948.011 712.454 951.865 708.584 951.865 703.811C951.865 699.038 948.011 695.168 943.257 695.168C938.504 695.168 934.65 699.038 934.65 703.811Z" fill="white" fill-opacity="0.3"/>
<path opacity="0.3" d="M977.41 725.115C977.41 729.888 981.263 733.758 986.017 733.758C990.771 733.758 994.625 729.888 994.625 725.115C994.625 720.342 990.771 716.472 986.017 716.472C981.263 716.472 977.41 720.342 977.41 725.115Z" fill="white" fill-opacity="0.3"/>
<path opacity="0.3" d="M1020.17 725.115C1020.17 729.888 1024.02 733.758 1028.78 733.758C1033.53 733.758 1037.39 729.888 1037.39 725.115C1037.39 720.342 1033.53 716.472 1028.78 716.472C1024.02 716.472 1020.17 720.342 1020.17 725.115Z" fill="white" fill-opacity="0.3"/>
</svg>
