<svg width="1023" height="577" viewBox="0 0 1023 577" fill="none" xmlns="http://www.w3.org/2000/svg">
<mask id="mask0_619:2766" style="mask-type:alpha" maskUnits="userSpaceOnUse" x="0" y="0" width="1024" height="577">
<rect width="1024" height="577" fill="#EDF7FD"/>
</mask>
<g mask="url(#mask0_619:2766)">
<rect width="1024" height="577" fill="#EDF7FD"/>
<ellipse cx="833.889" cy="129.332" rx="32.0057" ry="31.9834" fill="white"/>
<ellipse cx="758.447" cy="129.332" rx="32.0057" ry="31.9834" fill="white"/>
<ellipse cx="833.889" cy="49.3727" rx="32.0057" ry="31.9834" fill="white"/>
<ellipse cx="833.889" cy="209.29" rx="32.0057" ry="31.9834" fill="white"/>
<ellipse cx="756.16" cy="209.29" rx="32.0057" ry="31.9834" fill="white" fill-opacity="0.55"/>
<ellipse cx="911.617" cy="209.29" rx="32.0056" ry="31.9834" fill="white"/>
<ellipse cx="833.889" cy="289.248" rx="32.0057" ry="31.9834" fill="white" fill-opacity="0.55"/>
<ellipse cx="911.617" cy="289.248" rx="32.0056" ry="31.9834" fill="white"/>
<ellipse cx="911.617" cy="369.207" rx="32.0056" ry="31.9834" fill="white"/>
<ellipse cx="987.058" cy="369.207" rx="32.0056" ry="31.9834" fill="white"/>
<ellipse cx="987.058" cy="444.596" rx="32.0056" ry="31.9834" fill="white"/>
<ellipse cx="987.058" cy="522.271" rx="32.0056" ry="31.9834" fill="white"/>
<ellipse cx="911.617" cy="522.271" rx="32.0056" ry="31.9834" fill="white"/>
<ellipse cx="758.447" cy="289.248" rx="32.0057" ry="31.9834" fill="white"/>
<ellipse cx="758.447" cy="369.207" rx="32.0057" ry="31.9834" fill="white"/>
<ellipse cx="683.006" cy="289.248" rx="32.0056" ry="31.9834" fill="white"/>
<ellipse rx="27.9329" ry="27.9135" transform="matrix(-1 0 0 1 254.649 187.594)" fill="white"/>
<ellipse rx="27.9329" ry="27.9135" transform="matrix(-1 0 0 1 320.491 187.594)" fill="white"/>
<ellipse rx="27.9329" ry="27.9135" transform="matrix(-1 0 0 1 254.649 117.81)" fill="white"/>
<ellipse rx="27.9329" ry="27.9135" transform="matrix(-1 0 0 1 254.649 257.377)" fill="white"/>
<ellipse rx="27.9329" ry="27.9135" transform="matrix(-1 0 0 1 322.487 257.377)" fill="white" fill-opacity="0.55"/>
<ellipse rx="27.9329" ry="27.9135" transform="matrix(-1 0 0 1 186.812 257.377)" fill="white"/>
<ellipse rx="27.9329" ry="27.9135" transform="matrix(-1 0 0 1 254.649 327.161)" fill="white" fill-opacity="0.55"/>
<ellipse rx="27.9329" ry="27.9135" transform="matrix(-1 0 0 1 186.812 327.161)" fill="white"/>
<ellipse rx="27.9329" ry="27.9135" transform="matrix(-1 0 0 1 186.812 396.945)" fill="white"/>
<ellipse rx="27.9329" ry="27.9135" transform="matrix(-1 0 0 1 120.97 396.945)" fill="white"/>
<ellipse rx="27.9329" ry="27.9135" transform="matrix(-1 0 0 1 120.97 462.741)" fill="white"/>
<ellipse rx="27.9329" ry="27.9135" transform="matrix(-1 0 0 1 120.97 530.531)" fill="white"/>
<ellipse rx="27.9329" ry="27.9135" transform="matrix(-1 0 0 1 -10.7142 530.531)" fill="white"/>
<ellipse rx="27.9329" ry="27.9135" transform="matrix(-1 0 0 1 186.812 530.531)" fill="white"/>
<ellipse rx="27.9329" ry="27.9135" transform="matrix(-1 0 0 1 45.1521 396.945)" fill="white"/>
<ellipse rx="27.9329" ry="27.9135" transform="matrix(-1 0 0 1 45.1521 187.594)" fill="white" fill-opacity="0.55"/>
<ellipse rx="27.9329" ry="27.9135" transform="matrix(-1 0 0 1 -10.7142 117.81)" fill="white"/>
<ellipse rx="27.9329" ry="27.9135" transform="matrix(-1 0 0 1 -10.7142 52.0137)" fill="white"/>
<ellipse rx="27.9329" ry="27.9135" transform="matrix(-1 0 0 1 320.491 327.161)" fill="white"/>
<ellipse rx="27.9329" ry="27.9135" transform="matrix(-1 0 0 1 320.491 396.945)" fill="white"/>
<ellipse rx="27.9329" ry="27.9135" transform="matrix(-1 0 0 1 386.332 327.161)" fill="white"/>
</g>
</svg>
