<svg width="1440" height="810" viewBox="0 0 1440 810" fill="none" xmlns="http://www.w3.org/2000/svg">
<g clip-path="url(#clip0_601:1373)">
<rect width="1441" height="810" fill="#4AACE9" fill-opacity="0.1"/>
<path d="M1238.61 129.332C1238.61 146.996 1224.28 161.315 1206.6 161.315C1188.92 161.315 1174.59 146.996 1174.59 129.332C1174.59 111.668 1188.92 97.3481 1206.6 97.3481C1224.28 97.3481 1238.61 111.668 1238.61 129.332Z" fill="white"/>
<ellipse cx="1131.16" cy="129.332" rx="32.0057" ry="31.9834" fill="white"/>
<ellipse cx="1206.6" cy="49.3727" rx="32.0057" ry="31.9834" fill="white"/>
<ellipse cx="1206.6" cy="209.29" rx="32.0057" ry="31.9834" fill="white"/>
<ellipse cx="1128.87" cy="209.29" rx="32.0057" ry="31.9834" fill="white" fill-opacity="0.55"/>
<ellipse cx="1284.33" cy="209.29" rx="32.0056" ry="31.9834" fill="white"/>
<ellipse cx="1206.6" cy="289.248" rx="32.0057" ry="31.9834" fill="white" fill-opacity="0.55"/>
<ellipse cx="1284.33" cy="289.248" rx="32.0056" ry="31.9834" fill="white"/>
<ellipse cx="1284.33" cy="369.207" rx="32.0056" ry="31.9834" fill="white"/>
<ellipse cx="1359.77" cy="369.207" rx="32.0056" ry="31.9834" fill="white"/>
<ellipse cx="1359.77" cy="444.596" rx="32.0056" ry="31.9834" fill="white"/>
<ellipse cx="1359.77" cy="522.271" rx="32.0056" ry="31.9834" fill="white"/>
<ellipse cx="1284.33" cy="522.271" rx="32.0056" ry="31.9834" fill="white"/>
<ellipse cx="1446.64" cy="369.207" rx="32.0057" ry="31.9834" fill="white"/>
<ellipse cx="1446.64" cy="129.332" rx="32.0057" ry="31.9834" fill="white" fill-opacity="0.55"/>
<ellipse cx="1131.16" cy="289.248" rx="32.0057" ry="31.9834" fill="white"/>
<ellipse cx="1131.16" cy="369.207" rx="32.0057" ry="31.9834" fill="white"/>
<ellipse cx="1055.72" cy="289.248" rx="32.0056" ry="31.9834" fill="white"/>
<ellipse rx="32.0056" ry="31.9834" transform="matrix(-1 0 0 1 262.419 273.332)" fill="white"/>
<ellipse rx="32.0056" ry="31.9834" transform="matrix(-1 0 0 1 337.862 273.332)" fill="white"/>
<ellipse rx="32.0056" ry="31.9834" transform="matrix(-1 0 0 1 262.419 193.373)" fill="white"/>
<ellipse rx="32.0056" ry="31.9834" transform="matrix(-1 0 0 1 262.419 353.29)" fill="white"/>
<ellipse rx="32.0056" ry="31.9834" transform="matrix(-1 0 0 1 340.148 353.29)" fill="white" fill-opacity="0.55"/>
<ellipse rx="32.0056" ry="31.9834" transform="matrix(-1 0 0 1 184.692 353.29)" fill="white"/>
<ellipse rx="32.0056" ry="31.9834" transform="matrix(-1 0 0 1 262.419 433.248)" fill="white" fill-opacity="0.55"/>
<ellipse rx="32.0056" ry="31.9834" transform="matrix(-1 0 0 1 184.692 433.248)" fill="white"/>
<ellipse rx="32.0056" ry="31.9834" transform="matrix(-1 0 0 1 184.692 513.207)" fill="white"/>
<ellipse rx="32.0056" ry="31.9834" transform="matrix(-1 0 0 1 109.25 513.207)" fill="white"/>
<ellipse rx="32.0056" ry="31.9834" transform="matrix(-1 0 0 1 109.25 588.596)" fill="white"/>
<ellipse rx="32.0056" ry="31.9834" transform="matrix(-1 0 0 1 109.25 666.271)" fill="white"/>
<ellipse rx="32.0056" ry="31.9834" transform="matrix(-1 0 0 1 184.692 666.271)" fill="white"/>
<ellipse rx="32.0056" ry="31.9834" transform="matrix(-1 0 0 1 22.3782 513.207)" fill="white"/>
<ellipse rx="32.0056" ry="31.9834" transform="matrix(-1 0 0 1 22.3782 273.332)" fill="white" fill-opacity="0.55"/>
<ellipse rx="32.0056" ry="31.9834" transform="matrix(-1 0 0 1 337.862 433.248)" fill="white"/>
<ellipse rx="32.0056" ry="31.9834" transform="matrix(-1 0 0 1 337.862 513.207)" fill="white"/>
<ellipse rx="32.0056" ry="31.9834" transform="matrix(-1 0 0 1 413.303 433.248)" fill="white"/>
</g>
<defs>
<clipPath id="clip0_601:1373">
<rect width="1441" height="810" fill="white"/>
</clipPath>
</defs>
</svg>
