<svg width="23" height="23" viewBox="0 0 23 23" fill="none" xmlns="http://www.w3.org/2000/svg">
<path d="M12.25 13.2109H10.3438L9.94531 5.57812H12.6484L12.25 13.2109ZM9.91406 15.8828C9.91406 15.4453 10.0312 15.1146 10.2656 14.8906C10.5 14.6667 10.8411 14.5547 11.2891 14.5547C11.7214 14.5547 12.0547 14.6693 12.2891 14.8984C12.5286 15.1276 12.6484 15.4557 12.6484 15.8828C12.6484 16.2943 12.5286 16.6198 12.2891 16.8594C12.0495 17.0938 11.7161 17.2109 11.2891 17.2109C10.8516 17.2109 10.513 17.0964 10.2734 16.8672C10.0339 16.6328 9.91406 16.3047 9.91406 15.8828Z" fill="#FF0000"/>
<rect x="1" y="1" width="21" height="21" rx="10.5" stroke="#FF0000"/>
</svg>
