<svg xmlns="http://www.w3.org/2000/svg">
    <symbol id="logo-alcon" viewBox="0 0 120 33" fill="none">
        <path d="M0.905762 31.7002C1.32423 30.6976 1.72209 29.7343 2.12613 28.7731C3.57738 25.3189 5.03275 21.8667 6.48606 18.4125C7.90639 15.0389 9.32671 11.6653 10.747 8.29168C11.8478 5.67879 12.9548 3.06797 14.0412 0.448876C14.1731 0.128466 14.3298 0.00650356 14.6803 0.00857072C16.9458 0.0230408 19.2113 0.0230408 21.4768 0.00857072C21.8272 0.00650356 21.9942 0.136735 22.1241 0.450943C23.9031 4.75683 25.6904 9.05859 27.4797 13.3604C29.0113 17.044 30.5492 20.7236 32.0849 24.4052C33.0703 26.77 34.0577 29.1328 35.0431 31.4976C35.0678 31.5576 35.0719 31.6237 35.1008 31.7643C34.8802 31.7643 34.6988 31.7643 34.5154 31.7643C31.9076 31.7643 29.2979 31.7519 26.6902 31.7746C26.2305 31.7787 26.0387 31.6175 25.878 31.202C25.2204 29.5028 24.5195 27.8222 23.8474 26.1292C23.7299 25.8315 23.5691 25.7075 23.2393 25.7075C19.6689 25.7178 16.1006 25.7178 12.5302 25.7075C12.188 25.7054 12.0581 25.8584 11.9489 26.1519C11.2871 27.9049 10.5986 29.6454 9.94102 31.4004C9.83589 31.6795 9.69365 31.7663 9.41742 31.7663C6.72312 31.7601 4.02883 31.7643 1.33454 31.7601C1.21292 31.7581 1.09747 31.7271 0.905762 31.7002ZM21.3016 18.9727C20.1698 15.8802 19.0794 12.8973 17.9889 9.9144C17.9291 9.91853 17.8693 9.9206 17.8074 9.92473C16.7066 12.9221 15.6058 15.9195 14.4865 18.9748C16.7973 18.9727 18.9948 18.9727 21.3016 18.9727Z" fill="#204082"/>
        <path d="M104.987 9.29823C104.987 10.0279 104.987 10.6915 104.987 11.4708C105.169 11.3344 105.265 11.2827 105.338 11.2062C107.43 8.97369 110.048 8.31633 112.95 8.82899C116.517 9.45947 118.541 11.7519 119.273 15.2392C119.448 16.0764 119.549 16.9426 119.553 17.7963C119.58 22.2573 119.559 26.7182 119.576 31.1812C119.578 31.6628 119.469 31.8365 118.957 31.8303C116.727 31.8034 114.494 31.8034 112.264 31.8303C111.757 31.8365 111.635 31.6711 111.637 31.1832C111.656 27.2908 111.656 23.3983 111.639 19.5038C111.637 18.8547 111.578 18.1974 111.47 17.5565C111.052 15.0925 108.842 14.8486 107.451 15.4728C105.861 16.186 105.265 17.6185 105.243 19.2599C105.195 22.5839 105.228 25.9079 105.228 29.2339C105.228 29.9574 105.216 30.6809 105.235 31.4044C105.243 31.7228 105.127 31.8261 104.818 31.8241C102.466 31.8158 100.116 31.8117 97.7639 31.8282C97.3186 31.8303 97.3227 31.5863 97.3227 31.268C97.3269 27.512 97.3248 23.758 97.3248 20.002C97.3248 16.6263 97.333 13.2486 97.3145 9.8729C97.3124 9.42639 97.4217 9.28376 97.8855 9.28789C100.064 9.3127 102.245 9.29823 104.424 9.29823C104.577 9.29823 104.729 9.29823 104.987 9.29823Z" fill="#204082"/>
        <path d="M82.2564 32.5062C75.6536 32.5868 70.3001 27.1811 70.2774 20.5724C70.2547 14.0216 75.3939 8.45269 82.4873 8.54158C88.8468 8.6222 94.1344 13.6909 94.19 20.5745C94.2436 27.2308 88.7314 32.5475 82.2564 32.5062ZM77.3976 20.4484C77.3502 23.0468 79.3003 25.4096 82.2461 25.3848C85.095 25.36 87.0121 23.2287 87.0699 20.6159C87.1296 17.8893 84.9301 15.6815 82.2564 15.6733C79.5889 15.665 77.3852 17.8314 77.3976 20.4484Z" fill="#204082"/>
        <path d="M64.5544 23.1214C66.0943 25.0046 67.6012 26.8485 69.104 28.6862C66.9663 31.3776 62.4394 33.0665 58.3578 32.283C52.561 31.1709 48.9411 26.5157 48.5268 21.3002C48.1227 16.2274 51.1489 11.3262 55.882 9.40165C60.8232 7.39237 66.0799 8.86006 69.2009 12.3205C67.6445 14.1065 66.0819 15.9008 64.4782 17.7426C63.3526 16.2688 61.9034 15.5266 60.0997 15.6465C58.7618 15.7354 57.6342 16.3308 56.7601 17.3685C55.0079 19.446 55.3007 22.4599 57.4693 24.2728C59.3287 25.8252 62.4806 25.848 64.5544 23.1214Z" fill="#204082"/>
        <path d="M45.4223 15.9193C45.4223 20.9984 45.4161 26.0774 45.4326 31.1564C45.4346 31.6215 45.3171 31.7765 44.8348 31.7703C42.5713 31.7455 40.3058 31.7496 38.0423 31.7682C37.6074 31.7724 37.4486 31.669 37.4507 31.1977C37.4631 20.988 37.4631 10.7783 37.4528 0.568617C37.4528 0.146916 37.5682 0.00221534 38.0011 0.0042825C40.2831 0.0228869 42.5651 0.0270212 44.8451 0.00014818C45.346 -0.0060533 45.4346 0.182058 45.4326 0.628565C45.4202 5.72411 45.4243 10.8217 45.4243 15.9173C45.4243 15.9193 45.4243 15.9193 45.4223 15.9193Z" fill="#204082"/>
    </symbol>

</svg>