<svg xmlns="http://www.w3.org/2000/svg">
    <symbol id="profile" viewBox="0 0 28 28" fill="none" xmlns="http://www.w3.org/2000/svg">
        <path d="M14 0C6.28042 0 0 6.28042 0 14C0 21.7196 6.28042 28 14 28C21.7196 28 28 21.7196 28 14C28 6.28042 21.7196 0 14 0ZM14 25.7836C7.50236 25.7836 2.21637 20.4973 2.21637 14C2.21637 7.50274 7.50236 2.21637 14 2.21637C20.4973 2.21637 25.7836 7.50312 25.7836 14.0004C25.7836 20.4976 20.4973 25.7836 14 25.7836Z" fill="white"/>
        <path d="M13.9995 16.4844C10.0622 16.4844 6.37823 18.4588 3.62695 22.0434L5.38527 23.3924C7.70763 20.3671 10.767 18.7007 13.9995 18.7007C17.2321 18.7007 20.2914 20.3671 22.6134 23.3924L24.3717 22.0434C21.6205 18.4588 17.9369 16.4844 13.9995 16.4844Z" fill="white"/>
        <path d="M13.9998 5.02393C10.8223 5.02393 8.2373 7.62557 8.2373 10.8234C8.2373 14.0212 10.8223 16.6229 13.9998 16.6229C17.1773 16.6229 19.7624 14.0212 19.7624 10.8234C19.7624 7.62563 17.1773 5.02393 13.9998 5.02393ZM13.9998 14.4065C12.0446 14.4065 10.4537 12.7993 10.4537 10.8234C10.4537 8.84746 12.0446 7.24025 13.9998 7.24025C15.955 7.24025 17.546 8.84784 17.546 10.8234C17.546 12.7989 15.955 14.4065 13.9998 14.4065Z" fill="white"/>
    </symbol>
    <symbol id="arrow" viewBox="0 0 23 21" fill="none" xmlns="http://www.w3.org/2000/svg">
        <path d="M21.7098 11.459C22.2307 10.9381 22.2307 10.0936 21.7098 9.57267L13.2215 1.08438C12.7006 0.563492 11.8561 0.563492 11.3352 1.08438C10.8144 1.60526 10.8144 2.44978 11.3352 2.97066L18.8804 10.5158L11.3352 18.061C10.8144 18.5818 10.8144 19.4264 11.3352 19.9472C11.8561 20.4681 12.7006 20.4681 13.2215 19.9472L21.7098 11.459ZM0.254883 11.8496L20.7667 11.8496L20.7667 9.182L0.254883 9.182L0.254883 11.8496Z" fill="white"/>
    </symbol>

</svg>