<svg width="143" height="28" viewBox="0 0 143 28" fill="none" xmlns="http://www.w3.org/2000/svg">
<path fill-rule="evenodd" clip-rule="evenodd" d="M0.821045 14C3.42453 6.32435 11.1686 0.756714 20.317 0.756714C29.4654 0.756714 37.2094 6.32435 39.8129 14C37.2094 21.6756 29.4654 27.2432 20.317 27.2432C11.1686 27.2432 3.42453 21.6756 0.821045 14Z" fill="white"/>
<path fill-rule="evenodd" clip-rule="evenodd" d="M0 14L0.0802522 13.7634C2.79218 5.76807 10.842 0 20.3169 0C29.7919 0 37.8417 5.76807 40.5536 13.7634L40.6339 14L40.5536 14.2366C37.8417 22.2319 29.7919 28 20.3169 28C10.842 28 2.79218 22.2319 0.0802522 14.2366L0 14ZM20.3169 0.756757C11.1685 0.756757 3.42448 6.32439 0.820996 14C3.42448 21.6756 11.1685 27.2432 20.3169 27.2432C29.4653 27.2432 37.2094 21.6756 39.8129 14C37.2094 6.32439 29.4653 0.756757 20.3169 0.756757Z" fill="#003595"/>
<path fill-rule="evenodd" clip-rule="evenodd" d="M11.8269 14.2007C11.8269 14.2359 11.8272 14.2701 11.8276 14.3053L20.0026 14.2007L14.2254 8.20239C12.6904 9.79159 11.8269 11.9515 11.8269 14.2007Z" fill="#00ADEE"/>
<path fill-rule="evenodd" clip-rule="evenodd" d="M19.9659 5.76111C17.3874 5.76111 14.9118 6.65707 13.085 8.25119L19.9659 14.3051L20.0029 5.76111C19.9905 5.76111 19.9782 5.76111 19.9659 5.76111Z" fill="#CCCCCC"/>
<path fill-rule="evenodd" clip-rule="evenodd" d="M14.0627 20.0488C15.7391 21.5061 18.0226 22.2389 20.373 22.2389L20.3775 22.2386L19.9998 13.5408L14.0627 20.0488Z" fill="#00ADEE"/>
<path fill-rule="evenodd" clip-rule="evenodd" d="M10.5691 14.3051C10.5833 15.5345 10.822 16.8657 11.2716 17.9969C11.7212 19.1284 12.8215 20.4054 13.6387 21.2689L19.3737 14.1888L10.5691 14.3051Z" fill="#003595"/>
<path fill-rule="evenodd" clip-rule="evenodd" d="M20.0029 14.3051L20.0072 22.1539L20.0082 23.4594C21.2953 23.4587 22.57 23.2207 23.7588 22.7587C24.941 22.2991 26.0154 21.6265 26.9208 20.7803L20.0029 14.3051Z" fill="#003595"/>
<path fill-rule="evenodd" clip-rule="evenodd" d="M26.9434 11.0083C26.5435 9.96233 25.9567 9.00972 25.2166 8.20239L19.374 14.3053L27.5497 14.302C27.5494 13.1726 27.3436 12.0538 26.9434 11.0083Z" fill="#00ADEE"/>
<path fill-rule="evenodd" clip-rule="evenodd" d="M19.374 13.9451L26.2957 20.6532L26.9308 21.2685C27.922 20.3094 28.7089 19.1705 29.2467 17.9174C29.7846 16.6645 30.0625 15.3207 30.0653 13.9638L19.374 13.9451Z" fill="#CCCCCC"/>
<path fill-rule="evenodd" clip-rule="evenodd" d="M24.1127 5.30629C22.8241 4.80559 21.441 4.5456 20.0429 4.54053L20.0392 5.48446L20.0029 14.3051L27.5497 7.45686C26.5695 6.5376 25.4012 5.80666 24.1127 5.30629Z" fill="white"/>
<path fill-rule="evenodd" clip-rule="evenodd" d="M24.2161 14C24.2161 16.0896 22.4708 17.7838 20.3169 17.7838C18.1635 17.7838 16.4177 16.0896 16.4177 14C16.4177 11.9103 18.1635 10.2162 20.3169 10.2162C22.4708 10.2162 24.2161 11.9103 24.2161 14Z" fill="#05307E"/>
<path fill-rule="evenodd" clip-rule="evenodd" d="M48.4482 1.91553H49.1189V5.55867L53.2102 1.91553H54.117L50.9721 4.71444L54.2648 8.68975H53.3974L50.4694 5.16026L49.1189 6.36522V8.68975H48.4482V1.91553Z" fill="white"/>
<path fill-rule="evenodd" clip-rule="evenodd" d="M55.3471 8.68963C55.3069 8.68963 55.2583 8.68651 55.2013 8.68029C55.1441 8.67375 55.0855 8.66783 55.0252 8.6616C54.965 8.65507 54.9111 8.64728 54.8641 8.63794C54.8175 8.6286 54.7839 8.62051 54.7639 8.61459V8.07815C54.8175 8.10337 54.8994 8.12049 55.0103 8.12983C55.1208 8.13948 55.203 8.14415 55.2566 8.14415C55.3302 8.14415 55.4174 8.13637 55.5183 8.12049C55.6188 8.10492 55.7246 8.04826 55.8352 7.95081C55.9457 7.85367 56.0565 7.69986 56.1671 7.4894C56.2776 7.27861 56.3748 6.97723 56.459 6.58463C56.5422 6.19171 56.6111 5.69419 56.6651 5.09111C56.719 4.48773 56.7456 3.74642 56.7456 2.86687V1.91541H61.1621V8.63327H60.478V2.46088H57.4094V2.82795C57.4094 3.80651 57.3758 4.6297 57.3089 5.29785C57.2416 5.96599 57.1511 6.518 57.0372 6.95357C56.9231 7.38976 56.7942 7.72508 56.6501 7.96046C56.5056 8.19583 56.3581 8.36676 56.207 8.47324C56.0565 8.58003 55.9054 8.64292 55.7546 8.6616C55.6038 8.68029 55.468 8.68963 55.3471 8.68963Z" fill="white"/>
<path fill-rule="evenodd" clip-rule="evenodd" d="M63.6883 8.68963C63.5187 8.68963 63.3649 8.68 63.227 8.66137C63.089 8.64274 62.9812 8.6207 62.9032 8.59586V8.03266C62.9952 8.06402 63.1048 8.09072 63.2322 8.11246C63.3597 8.1345 63.5082 8.14537 63.6778 8.14537C63.9464 8.14537 64.1714 8.07054 64.3515 7.91996C64.532 7.77 64.7072 7.5356 64.8768 7.21643L64.9723 7.03822L62.1606 1.91541H62.9352L65.3968 6.36263L67.7945 1.91541H68.5588L65.5773 7.37601C65.4214 7.66382 65.2693 7.89388 65.1208 8.06557C64.9723 8.23758 64.822 8.37046 64.67 8.46422C64.5176 8.5583 64.3621 8.61915 64.203 8.6474C64.044 8.67565 63.8723 8.68963 63.6883 8.68963Z" fill="white"/>
<path fill-rule="evenodd" clip-rule="evenodd" d="M72.4694 8.13962C72.9991 8.13962 73.4121 8.01467 73.709 7.76476C74.0053 7.51485 74.1543 7.1717 74.1543 6.73499C74.1543 6.2989 74.0053 5.95543 73.709 5.70584C73.4121 5.45593 72.9991 5.33098 72.4694 5.33098H69.7785V8.13962H72.4694ZM69.0579 1.91541H74.2809V2.46546H69.7786V4.78056H72.6287C73.3347 4.78056 73.8858 4.95481 74.2809 5.30236C74.6767 5.65054 74.8744 6.12775 74.8744 6.73494C74.8744 7.34213 74.6767 7.81965 74.2809 8.16752C73.8858 8.51601 73.3347 8.68963 72.6287 8.68963H69.0579V1.91541Z" fill="white"/>
<path fill-rule="evenodd" clip-rule="evenodd" d="M78.3645 1.91541H84.1811V8.68963H83.4616V2.46546H79.084V8.68963H78.3645V1.91541Z" fill="white"/>
<path fill-rule="evenodd" clip-rule="evenodd" d="M88.3325 5.23617C88.8014 5.23617 89.1806 5.1222 89.471 4.8949C89.7608 4.66697 89.9062 4.31911 89.9062 3.851C89.9062 3.38289 89.7608 3.03503 89.471 2.80741C89.1806 2.57948 88.8014 2.46551 88.3325 2.46551H86.0175V5.23617H88.3325ZM85.3442 1.91541H88.4812C88.7978 1.91541 89.085 1.9581 89.342 2.04381C89.5994 2.1289 89.8204 2.25573 90.0051 2.42339C90.1898 2.59072 90.3316 2.79448 90.4308 3.03497C90.5297 3.27546 90.5791 3.54735 90.5791 3.85094C90.5791 4.15454 90.5297 4.42642 90.4308 4.66691C90.3316 4.9074 90.1898 5.11147 90.0051 5.27881C89.8204 5.44646 89.5994 5.57299 89.342 5.65838C89.085 5.74378 88.7978 5.78648 88.4812 5.78648H86.0175V8.68963H85.3442V1.91541Z" fill="white"/>
<path fill-rule="evenodd" clip-rule="evenodd" d="M91.1606 1.91541H91.8598V7.99704L96.0733 1.91541H96.9772V8.68963H96.2787V2.60799L92.0652 8.68963H91.1606V1.91541Z" fill="white"/>
<path fill-rule="evenodd" clip-rule="evenodd" d="M101.371 8.13951C101.635 8.13951 101.886 8.1191 102.122 8.07766C102.358 8.03622 102.566 7.96244 102.747 7.85444C102.928 7.74706 103.07 7.60484 103.175 7.42746C103.279 7.2507 103.331 7.02277 103.331 6.7446C103.331 6.30789 103.162 5.98106 102.825 5.76255C102.488 5.54435 102.003 5.4351 101.371 5.4351H98.9324V8.13951H101.371ZM101.371 4.88485C101.65 4.88485 101.894 4.85503 102.106 4.79506C102.318 4.73478 102.493 4.65253 102.633 4.54829C102.772 4.44375 102.875 4.32225 102.945 4.18253C103.015 4.04377 103.049 3.89495 103.049 3.73703C103.049 2.88935 102.49 2.46551 101.371 2.46551H98.9324V4.88485H101.371ZM98.2231 1.91541H101.371C101.684 1.91541 101.984 1.94241 102.273 1.99609C102.561 2.04978 102.815 2.14177 103.034 2.2708C103.252 2.40047 103.428 2.57157 103.56 2.78318C103.692 2.99541 103.758 3.25914 103.758 3.5756C103.758 3.75267 103.727 3.92535 103.664 4.09269C103.602 4.26034 103.513 4.41198 103.399 4.54824C103.284 4.68418 103.148 4.79972 102.992 4.89453C102.836 4.98903 102.66 5.05559 102.466 5.09389V5.11273C102.945 5.16956 103.327 5.3482 103.612 5.64865C103.897 5.94942 104.04 6.32083 104.04 6.76351C104.04 6.92802 104.013 7.11953 103.962 7.33773C103.909 7.55593 103.793 7.76628 103.612 7.96847C103.432 8.17129 103.164 8.34176 102.81 8.48085C102.455 8.62024 101.976 8.68963 101.371 8.68963H98.2231V1.91541Z" fill="white"/>
<path fill-rule="evenodd" clip-rule="evenodd" d="M105.038 1.91541H105.737V7.99704L109.95 1.91541H110.855V8.68963H110.156V2.60799L105.942 8.68963H105.038V1.91541Z" fill="white"/>
<path fill-rule="evenodd" clip-rule="evenodd" d="M112.102 8.68963C112.062 8.68963 112.013 8.68651 111.957 8.68029C111.899 8.67375 111.84 8.66783 111.781 8.6616C111.72 8.65507 111.666 8.64728 111.619 8.63794C111.573 8.6286 111.539 8.62051 111.519 8.61459V8.07815C111.573 8.10337 111.654 8.12049 111.765 8.12983C111.875 8.13948 111.958 8.14415 112.012 8.14415C112.085 8.14415 112.173 8.13637 112.274 8.12049C112.374 8.10492 112.48 8.04826 112.59 7.95081C112.701 7.85367 112.811 7.69986 112.922 7.4894C113.032 7.27861 113.13 6.97723 113.214 6.58463C113.298 6.19171 113.366 5.69419 113.421 5.09111C113.474 4.48773 113.5 3.74642 113.5 2.86687V1.91541H117.917V8.63327H117.232V2.46088H114.165V2.82795C114.165 3.80651 114.131 4.6297 114.064 5.29785C113.997 5.96599 113.906 6.518 113.792 6.95357C113.678 7.38976 113.549 7.72508 113.405 7.96046C113.261 8.19583 113.113 8.36676 112.962 8.47324C112.811 8.58003 112.661 8.64292 112.51 8.6616C112.359 8.68029 112.223 8.68963 112.102 8.68963Z" fill="white"/>
<path fill-rule="evenodd" clip-rule="evenodd" d="M118.998 1.91541H124.18V2.46546H119.712V4.91368H123.896V5.46373H119.712V8.13958H124.232V8.68963H118.998V1.91541Z" fill="white"/>
<path fill-rule="evenodd" clip-rule="evenodd" d="M125.313 1.91541H129.966V2.46546H126.031V8.68963H125.313V1.91541Z" fill="white"/>
<path fill-rule="evenodd" clip-rule="evenodd" d="M130.548 1.91541H131.247V7.99704L135.46 1.91541H136.365V8.68963H135.665V2.60799L131.452 8.68963H130.548V1.91541Z" fill="white"/>
<mask id="mask0_619:5093" style="mask-type:alpha" maskUnits="userSpaceOnUse" x="137" y="0" width="7" height="9">
<path fill-rule="evenodd" clip-rule="evenodd" d="M137.14 0H143V8.54102H137.14V0Z" fill="white"/>
</mask>
<g mask="url(#mask0_619:5093)">
<path fill-rule="evenodd" clip-rule="evenodd" d="M138.993 0.912522C138.751 0.701575 138.603 0.39736 138.548 -0.00012207H138.952C138.986 0.239932 139.095 0.428658 139.278 0.567307C139.46 0.70627 139.707 0.775438 140.019 0.775438C140.315 0.775438 140.558 0.707835 140.748 0.572315C140.938 0.436795 141.061 0.245879 141.116 -0.00012207H141.52C141.443 0.39736 141.282 0.701575 141.033 0.912522C140.785 1.1241 140.443 1.22957 140.008 1.22957C139.572 1.22957 139.235 1.1241 138.993 0.912522ZM137.14 1.78744H137.844V7.85014L142.089 1.78744H143V8.54088H142.296V2.47787L138.051 8.54088H137.14V1.78744Z" fill="white"/>
</g>
<path fill-rule="evenodd" clip-rule="evenodd" d="M48.4482 13.5172H51.2006L55.965 25.6872L60.7498 13.5172H63.5025V28H61.5969V15.9517H61.5546L56.8324 28H55.1179L50.3961 15.9517H50.3538V28H48.4482V13.5172Z" fill="white"/>
<mask id="mask1_619:5093" style="mask-type:alpha" maskUnits="userSpaceOnUse" x="65" y="16" width="11" height="12">
<path fill-rule="evenodd" clip-rule="evenodd" d="M65.1467 16.5884H75.9731V27.8526H65.1467V16.5884Z" fill="white"/>
</mask>
<g mask="url(#mask1_619:5093)">
<path fill-rule="evenodd" clip-rule="evenodd" d="M70.5596 26.3099C71.0343 26.3099 71.4837 26.2182 71.9077 26.0381C72.3312 25.8566 72.7016 25.597 73.0184 25.2557C73.3345 24.9148 73.5826 24.492 73.7626 23.9828C73.9425 23.477 74.0321 22.8964 74.0321 22.241C74.0321 21.5879 73.9425 21.009 73.7626 20.4998C73.5826 19.992 73.3345 19.5661 73.0184 19.2181C72.7016 18.8701 72.3312 18.6054 71.9077 18.4256C71.4837 18.2438 71.0343 18.1537 70.5596 18.1537C70.0856 18.1537 69.6355 18.2438 69.2116 18.4256C68.7877 18.6054 68.4173 18.8701 68.1016 19.2181C67.7848 19.5661 67.5362 19.992 67.3574 20.4998C67.1774 21.009 67.0882 21.5879 67.0882 22.241C67.0882 22.8964 67.1774 23.477 67.3574 23.9828C67.5362 24.492 67.7848 24.9148 68.1016 25.2557C68.4173 25.597 68.7877 25.8566 69.2116 26.0381C69.6355 26.2182 70.0856 26.3099 70.5596 26.3099ZM70.5596 27.8528C69.668 27.8528 68.8888 27.7102 68.2198 27.4248C67.5512 27.1395 66.9869 26.744 66.527 26.2366C66.0667 25.7291 65.7215 25.1332 65.4915 24.4528C65.2615 23.772 65.1467 23.0336 65.1467 22.2407C65.1467 21.4502 65.2615 20.7081 65.4915 20.0209C65.7215 19.3316 66.0667 18.7341 66.527 18.2266C66.9869 17.7191 67.5512 17.3183 68.2198 17.0265C68.8888 16.7346 69.668 16.5884 70.5596 16.5884C71.4361 16.5884 72.2128 16.7346 72.8895 17.0265C73.564 17.3183 74.1322 17.7191 74.5925 18.2266C75.0525 18.7341 75.3973 19.3316 75.6283 20.0209C75.8583 20.7081 75.9731 21.4502 75.9731 22.2407C75.9731 23.0336 75.8583 23.772 75.6283 24.4528C75.3973 25.1332 75.0525 25.7291 74.5925 26.2366C74.1322 26.744 73.564 27.1395 72.8895 27.4248C72.2128 27.7102 71.4361 27.8528 70.5596 27.8528Z" fill="white"/>
</g>
<path fill-rule="evenodd" clip-rule="evenodd" d="M77.5181 16.5884H79.5031V25.7791L85.201 16.5884H87.7463V27.8498H85.7616V18.6572L80.0638 27.8498H77.5181V16.5884Z" fill="white"/>
<path fill-rule="evenodd" clip-rule="evenodd" d="M90.2646 13.5172H100.301V15.1396H92.3197V28H90.2646V13.5172Z" fill="white"/>
<path fill-rule="evenodd" clip-rule="evenodd" d="M100.339 27.9625C100.161 27.9625 99.976 27.9453 99.7847 27.912C99.5928 27.8762 99.4356 27.8456 99.313 27.8169V26.2601C99.4489 26.3009 99.5758 26.3295 99.6921 26.343C99.808 26.3565 99.9217 26.3636 100.031 26.3636C100.483 26.3636 100.828 26.1842 101.068 25.8242C101.306 25.4641 101.485 24.9096 101.601 24.1628C101.717 23.4137 101.789 22.4553 101.817 21.2855C101.844 20.1164 101.871 18.72 101.899 17.1005H109.349V27.8391H107.605V18.6573H103.582C103.54 19.9185 103.496 21.1136 103.449 22.2406C103.4 23.3699 103.281 24.357 103.09 25.2005C102.898 26.0453 102.589 26.7169 102.166 27.2151C101.742 27.7141 101.133 27.9625 100.339 27.9625Z" fill="white"/>
<mask id="mask2_619:5093" style="mask-type:alpha" maskUnits="userSpaceOnUse" x="110" y="16" width="12" height="12">
<path fill-rule="evenodd" clip-rule="evenodd" d="M110.925 16.5884H121.406V27.8526H110.925V16.5884Z" fill="white"/>
</mask>
<g mask="url(#mask2_619:5093)">
<path fill-rule="evenodd" clip-rule="evenodd" d="M115.022 26.3098C115.626 26.3098 116.144 26.2303 116.575 26.0688C117.006 25.909 117.358 25.7072 117.632 25.4645C117.905 25.2218 118.107 24.957 118.236 24.6716C118.365 24.3866 118.43 24.1184 118.43 23.8689V22.0543C118.2 22.2344 117.898 22.36 117.524 22.4294C117.15 22.4992 116.759 22.5622 116.349 22.618C115.939 22.6722 115.525 22.7284 115.108 22.7842C114.691 22.8404 114.318 22.9369 113.988 23.0761C113.656 23.2152 113.386 23.4139 113.179 23.6702C112.97 23.9285 112.866 24.2796 112.866 24.7244C112.866 25.0166 112.927 25.2624 113.049 25.4645C113.171 25.6666 113.329 25.8295 113.523 25.9551C113.717 26.079 113.944 26.1707 114.202 26.2249C114.461 26.2811 114.734 26.3098 115.022 26.3098ZM114.612 27.8528C114.11 27.8528 113.635 27.8 113.189 27.6967C112.743 27.5911 112.352 27.4177 112.014 27.1753C111.676 26.9309 111.41 26.6184 111.216 26.2366C111.021 25.853 110.925 25.3912 110.925 24.8482C110.925 24.2371 111.033 23.7361 111.248 23.3478C111.464 22.9574 111.747 22.6416 112.1 22.3988C112.452 22.1544 112.855 21.9712 113.308 21.8453C113.761 21.7197 114.225 21.6164 114.699 21.5332C115.202 21.4346 115.68 21.3619 116.133 21.3141C116.586 21.265 116.985 21.1956 117.33 21.1052C117.675 21.0152 117.948 20.8832 118.15 20.7081C118.351 20.5348 118.452 20.2802 118.452 19.9478C118.452 19.5591 118.376 19.2449 118.225 19.0093C118.075 18.773 117.88 18.5915 117.643 18.4659C117.406 18.342 117.139 18.2571 116.845 18.2164C116.55 18.1741 116.259 18.1535 115.972 18.1535C115.195 18.1535 114.548 18.296 114.03 18.5814C113.513 18.8664 113.232 19.4047 113.189 20.1973H111.356C111.384 19.5303 111.529 18.9667 111.788 18.5083C112.046 18.0502 112.391 17.6765 112.822 17.3914C113.254 17.1077 113.746 16.9025 114.3 16.7769C114.853 16.6513 115.446 16.5884 116.079 16.5884C116.582 16.5884 117.082 16.6243 117.578 16.694C118.075 16.7634 118.524 16.9059 118.926 17.1212C119.328 17.3372 119.652 17.6392 119.896 18.0279C120.141 18.4182 120.263 18.9257 120.263 19.5506V25.0994C120.263 25.5168 120.288 25.8225 120.339 26.0179C120.388 26.2112 120.557 26.3097 120.846 26.3097C120.975 26.3097 121.161 26.2741 121.406 26.2044V27.5809C121.09 27.7627 120.652 27.8528 120.091 27.8528C119.616 27.8528 119.239 27.7238 118.958 27.4672C118.678 27.2092 118.538 26.7884 118.538 26.2044C118.034 26.7884 117.449 27.2092 116.78 27.4672C116.111 27.7238 115.389 27.8528 114.612 27.8528Z" fill="white"/>
</g>
<mask id="mask3_619:5093" style="mask-type:alpha" maskUnits="userSpaceOnUse" x="122" y="16" width="10" height="12">
<path fill-rule="evenodd" clip-rule="evenodd" d="M122.203 16.5884H131.588V27.8524H122.203V16.5884Z" fill="white"/>
</mask>
<g mask="url(#mask3_619:5093)">
<path fill-rule="evenodd" clip-rule="evenodd" d="M127.002 27.8524C125.532 27.8524 124.381 27.5335 123.553 26.8933C122.725 26.2531 122.275 25.3418 122.203 24.1606H124.046C124.102 24.9535 124.402 25.5236 124.946 25.8713C125.488 26.2179 126.167 26.3926 126.981 26.3926C127.853 26.3926 128.524 26.2108 128.995 25.8496C129.467 25.488 129.703 25.0296 129.703 24.4731C129.703 23.9314 129.523 23.5069 129.166 23.2015C128.81 22.8958 128.203 22.7414 127.345 22.7414H125.866V21.3019H127.045C127.689 21.3019 128.238 21.1746 128.695 20.917C129.152 20.6604 129.38 20.2108 129.38 19.5723C129.38 19.1684 129.185 18.8136 128.791 18.5079C128.399 18.2026 127.816 18.0499 127.045 18.0499C126.716 18.0499 126.392 18.0841 126.071 18.1535C125.75 18.2232 125.46 18.3349 125.202 18.488C124.946 18.6406 124.732 18.8427 124.561 19.0919C124.388 19.3414 124.282 19.6488 124.238 20.0104H122.395C122.439 19.3414 122.603 18.7896 122.889 18.3522C123.174 17.9141 123.532 17.5661 123.961 17.3081C124.388 17.0518 124.875 16.8667 125.417 16.7566C125.959 16.6446 126.51 16.5884 127.067 16.5884C127.638 16.5884 128.174 16.6446 128.674 16.7566C129.174 16.8667 129.612 17.0447 129.992 17.2878C130.371 17.5305 130.67 17.8342 130.892 18.1958C131.113 18.5574 131.223 18.9883 131.223 19.4877C131.223 20.114 131.042 20.6215 130.677 21.0101C130.313 21.4004 129.902 21.6432 129.445 21.7417V21.7823C129.703 21.8246 129.959 21.9079 130.217 22.0339C130.473 22.1578 130.702 22.3291 130.902 22.5444C131.101 22.76 131.267 23.0231 131.394 23.3373C131.523 23.6497 131.588 24.0143 131.588 24.4318C131.588 25.0161 131.458 25.5236 131.202 25.9549C130.944 26.3859 130.603 26.7406 130.173 27.0172C129.745 27.2955 129.256 27.5044 128.705 27.6435C128.156 27.7827 127.588 27.8524 127.002 27.8524Z" fill="white"/>
</g>
<mask id="mask4_619:5093" style="mask-type:alpha" maskUnits="userSpaceOnUse" x="132" y="16" width="12" height="12">
<path fill-rule="evenodd" clip-rule="evenodd" d="M132.519 16.5884H143V27.8526H132.519V16.5884Z" fill="white"/>
</mask>
<g mask="url(#mask4_619:5093)">
<path fill-rule="evenodd" clip-rule="evenodd" d="M136.617 26.3098C137.221 26.3098 137.739 26.2303 138.17 26.0688C138.601 25.909 138.953 25.7072 139.227 25.4645C139.499 25.2218 139.701 24.957 139.831 24.6716C139.959 24.3866 140.023 24.1184 140.023 23.8689V22.0543C139.794 22.2344 139.492 22.36 139.118 22.4294C138.744 22.4992 138.353 22.5622 137.944 22.618C137.533 22.6722 137.119 22.7284 136.703 22.7842C136.285 22.8404 135.911 22.9369 135.582 23.0761C135.25 23.2152 134.981 23.4139 134.772 23.6702C134.564 23.9285 134.46 24.2796 134.46 24.7244C134.46 25.0166 134.522 25.2624 134.642 25.4645C134.765 25.6666 134.923 25.8295 135.118 25.9551C135.311 26.079 135.538 26.1707 135.797 26.2249C136.056 26.2811 136.329 26.3098 136.617 26.3098ZM136.206 27.8528C135.705 27.8528 135.229 27.8 134.783 27.6967C134.337 27.5911 133.946 27.4177 133.609 27.1753C133.27 26.9309 133.005 26.6184 132.81 26.2366C132.615 25.853 132.519 25.3912 132.519 24.8482C132.519 24.2371 132.628 23.7361 132.842 23.3478C133.058 22.9574 133.342 22.6416 133.695 22.3988C134.046 22.1544 134.45 21.9712 134.903 21.8453C135.355 21.7197 135.819 21.6164 136.294 21.5332C136.796 21.4346 137.275 21.3619 137.728 21.3141C138.181 21.265 138.579 21.1956 138.925 21.1052C139.269 21.0152 139.543 20.8832 139.745 20.7081C139.945 20.5348 140.047 20.2802 140.047 19.9478C140.047 19.5591 139.971 19.2449 139.82 19.0093C139.669 18.773 139.474 18.5915 139.237 18.4659C139.001 18.342 138.734 18.2571 138.439 18.2164C138.144 18.1741 137.852 18.1535 137.566 18.1535C136.789 18.1535 136.143 18.296 135.625 18.5814C135.108 18.8664 134.827 19.4047 134.783 20.1973H132.951C132.979 19.5303 133.123 18.9667 133.383 18.5083C133.64 18.0502 133.986 17.6765 134.416 17.3914C134.848 17.1077 135.341 16.9025 135.894 16.7769C136.447 16.6513 137.04 16.5884 137.674 16.5884C138.177 16.5884 138.676 16.6243 139.172 16.694C139.669 16.7634 140.119 16.9059 140.52 17.1212C140.922 17.3372 141.247 17.6392 141.491 18.0279C141.735 18.4182 141.858 18.9257 141.858 19.5506V25.0994C141.858 25.5168 141.882 25.8225 141.933 26.0179C141.982 26.2112 142.152 26.3097 142.441 26.3097C142.569 26.3097 142.756 26.2741 143 26.2044V27.5809C142.685 27.7627 142.246 27.8528 141.685 27.8528C141.21 27.8528 140.833 27.7238 140.552 27.4672C140.273 27.2092 140.133 26.7884 140.133 26.2044C139.629 26.7884 139.043 27.2092 138.374 27.4672C137.705 27.7238 136.984 27.8528 136.206 27.8528Z" fill="white"/>
</g>
</svg>
