<svg width="320" height="1356" viewBox="0 0 320 1356" fill="none" xmlns="http://www.w3.org/2000/svg">
<rect width="320" height="1356" fill="#0E378F"/>
<path opacity="0.3" d="M-0.000864029 1349.41C-0.000864029 1352.74 2.75426 1355.45 6.15289 1355.45C9.55151 1355.45 12.3066 1352.74 12.3066 1349.41C12.3066 1346.07 9.55151 1343.37 6.15289 1343.37C2.75426 1343.37 -0.000864029 1346.07 -0.000864029 1349.41Z" fill="white" fill-opacity="0.3"/>
<path d="M15.3839 1349.41C15.3839 1352.74 18.139 1355.45 21.5377 1355.45C24.9363 1355.45 27.6914 1352.74 27.6914 1349.41C27.6914 1346.07 24.9363 1343.37 21.5377 1343.37C18.139 1343.37 15.3839 1346.07 15.3839 1349.41Z" fill="white"/>
<path opacity="0.3" d="M30.7687 1349.41C30.7687 1352.74 33.5238 1355.45 36.9224 1355.45C40.321 1355.45 43.0762 1352.74 43.0762 1349.41C43.0762 1346.07 40.321 1343.37 36.9224 1343.37C33.5238 1343.37 30.7687 1346.07 30.7687 1349.41Z" fill="white" fill-opacity="0.3"/>
<path opacity="0.3" d="M30.7687 1334.31C30.7687 1337.65 33.5238 1340.35 36.9224 1340.35C40.321 1340.35 43.0762 1337.65 43.0762 1334.31C43.0762 1330.98 40.321 1328.28 36.9224 1328.28C33.5238 1328.28 30.7687 1330.98 30.7687 1334.31Z" fill="white" fill-opacity="0.3"/>
<path d="M15.2843 1334.31C15.2843 1337.65 18.0394 1340.35 21.438 1340.35C24.8367 1340.35 27.5918 1337.65 27.5918 1334.31C27.5918 1330.98 24.8367 1328.28 21.438 1328.28C18.0394 1328.28 15.2843 1330.98 15.2843 1334.31Z" fill="white" fill-opacity="0.3"/>
<path d="M30.7687 1319.22C30.7687 1322.55 33.5238 1325.26 36.9224 1325.26C40.321 1325.26 43.0762 1322.55 43.0762 1319.22C43.0762 1315.88 40.321 1313.18 36.9224 1313.18C33.5238 1313.18 30.7687 1315.88 30.7687 1319.22Z" fill="white" fill-opacity="0.3"/>
<path opacity="0.3" d="M15.2843 1319.22C15.2843 1322.55 18.0394 1325.26 21.438 1325.26C24.8367 1325.26 27.5918 1322.55 27.5918 1319.22C27.5918 1315.88 24.8367 1313.18 21.438 1313.18C18.0394 1313.18 15.2843 1315.88 15.2843 1319.22Z" fill="white" fill-opacity="0.3"/>
<path d="M76.921 1319.22C76.921 1322.55 79.6761 1325.26 83.0748 1325.26C86.4734 1325.26 89.2285 1322.55 89.2285 1319.22C89.2285 1315.88 86.4734 1313.18 83.0748 1313.18C79.6761 1313.18 76.921 1315.88 76.921 1319.22Z" fill="white"/>
<path d="M122.871 1319.22C122.871 1322.55 125.626 1325.26 129.025 1325.26C132.424 1325.26 135.179 1322.55 135.179 1319.22C135.179 1315.88 132.424 1313.18 129.025 1313.18C125.626 1313.18 122.871 1315.88 122.871 1319.22Z" fill="white" fill-opacity="0.3"/>
<path d="M184.013 1319.22C184.013 1322.55 186.768 1325.26 190.167 1325.26C193.565 1325.26 196.32 1322.55 196.32 1319.22C196.32 1315.88 193.565 1313.18 190.167 1313.18C186.768 1313.18 184.013 1315.88 184.013 1319.22Z" fill="white"/>
<path d="M214.584 1319.22C214.584 1322.55 217.339 1325.26 220.737 1325.26C224.136 1325.26 226.891 1322.55 226.891 1319.22C226.891 1315.88 224.136 1313.18 220.737 1313.18C217.339 1313.18 214.584 1315.88 214.584 1319.22Z" fill="white" fill-opacity="0.3"/>
<path d="M291.011 1319.22C291.011 1322.55 293.766 1325.26 297.165 1325.26C300.563 1325.26 303.318 1322.55 303.318 1319.22C303.318 1315.88 300.563 1313.18 297.165 1313.18C293.766 1313.18 291.011 1315.88 291.011 1319.22Z" fill="white"/>
<path opacity="0.3" d="M92.3053 1334.52C92.3053 1337.86 95.0604 1340.56 98.459 1340.56C101.858 1340.56 104.613 1337.86 104.613 1334.52C104.613 1331.19 101.858 1328.49 98.459 1328.49C95.0604 1328.49 92.3053 1331.19 92.3053 1334.52Z" fill="white" fill-opacity="0.3"/>
<path opacity="0.3" d="M122.969 1334.52C122.969 1337.86 125.724 1340.56 129.123 1340.56C132.522 1340.56 135.277 1337.86 135.277 1334.52C135.277 1331.19 132.522 1328.49 129.123 1328.49C125.724 1328.49 122.969 1331.19 122.969 1334.52Z" fill="white" fill-opacity="0.3"/>
<path opacity="0.3" d="M153.54 1319.04C153.54 1322.37 156.295 1325.08 159.694 1325.08C163.093 1325.08 165.848 1322.37 165.848 1319.04C165.848 1315.7 163.093 1313 159.694 1313C156.295 1313 153.54 1315.7 153.54 1319.04Z" fill="white" fill-opacity="0.3"/>
<path opacity="0.3" d="M153.54 1349.44C153.54 1352.77 156.295 1355.48 159.694 1355.48C163.093 1355.48 165.848 1352.77 165.848 1349.44C165.848 1346.1 163.093 1343.4 159.694 1343.4C156.295 1343.4 153.54 1346.1 153.54 1349.44Z" fill="white" fill-opacity="0.3"/>
<path opacity="0.3" d="M184.111 1334.52C184.111 1337.86 186.866 1340.56 190.265 1340.56C193.663 1340.56 196.418 1337.86 196.418 1334.52C196.418 1331.19 193.663 1328.49 190.265 1328.49C186.866 1328.49 184.111 1331.19 184.111 1334.52Z" fill="white" fill-opacity="0.3"/>
<path opacity="0.3" d="M184.111 1349.44C184.111 1352.77 186.866 1355.48 190.265 1355.48C193.663 1355.48 196.418 1352.77 196.418 1349.44C196.418 1346.1 193.663 1343.4 190.265 1343.4C186.866 1343.4 184.111 1346.1 184.111 1349.44Z" fill="white" fill-opacity="0.3"/>
<path opacity="0.3" d="M214.682 1334.52C214.682 1337.86 217.437 1340.56 220.836 1340.56C224.234 1340.56 226.989 1337.86 226.989 1334.52C226.989 1331.19 224.234 1328.49 220.836 1328.49C217.437 1328.49 214.682 1331.19 214.682 1334.52Z" fill="white" fill-opacity="0.3"/>
<path opacity="0.3" d="M229.869 1334.52C229.869 1337.86 232.624 1340.56 236.023 1340.56C239.422 1340.56 242.177 1337.86 242.177 1334.52C242.177 1331.19 239.422 1328.49 236.023 1328.49C232.624 1328.49 229.869 1331.19 229.869 1334.52Z" fill="white" fill-opacity="0.3"/>
<path d="M245.253 1334.52C245.253 1337.86 248.008 1340.56 251.407 1340.56C254.805 1340.56 257.561 1337.86 257.561 1334.52C257.561 1331.19 254.805 1328.49 251.407 1328.49C248.008 1328.49 245.253 1331.19 245.253 1334.52Z" fill="white" fill-opacity="0.3"/>
<path opacity="0.3" d="M275.824 1349.44C275.824 1352.77 278.579 1355.48 281.978 1355.48C285.377 1355.48 288.132 1352.77 288.132 1349.44C288.132 1346.1 285.377 1343.4 281.978 1343.4C278.579 1343.4 275.824 1346.1 275.824 1349.44Z" fill="white" fill-opacity="0.3"/>
<path opacity="0.3" d="M291.011 1334.52C291.011 1337.86 293.766 1340.56 297.165 1340.56C300.564 1340.56 303.319 1337.86 303.319 1334.52C303.319 1331.19 300.564 1328.49 297.165 1328.49C293.766 1328.49 291.011 1331.19 291.011 1334.52Z" fill="white" fill-opacity="0.3"/>
<path d="M306.296 1334.52C306.296 1337.86 309.052 1340.56 312.45 1340.56C315.849 1340.56 318.604 1337.86 318.604 1334.52C318.604 1331.19 315.849 1328.49 312.45 1328.49C309.052 1328.49 306.296 1331.19 306.296 1334.52Z" fill="white" fill-opacity="0.3"/>
<path d="M46.1515 1349.41C46.1515 1352.74 48.9066 1355.45 52.3052 1355.45C55.7039 1355.45 58.459 1352.74 58.459 1349.41C58.459 1346.07 55.7039 1343.37 52.3052 1343.37C48.9066 1343.37 46.1515 1346.07 46.1515 1349.41Z" fill="white" fill-opacity="0.3"/>
<path opacity="0.3" d="M46.1515 1334.31C46.1515 1337.65 48.9066 1340.35 52.3052 1340.35C55.7039 1340.35 58.459 1337.65 58.459 1334.31C58.459 1330.98 55.7039 1328.28 52.3052 1328.28C48.9066 1328.28 46.1515 1330.98 46.1515 1334.31Z" fill="white" fill-opacity="0.3"/>
<path opacity="0.3" d="M76.921 1349.41C76.921 1352.74 79.6761 1355.45 83.0748 1355.45C86.4734 1355.45 89.2285 1352.74 89.2285 1349.41C89.2285 1346.07 86.4734 1343.37 83.0748 1343.37C79.6761 1343.37 76.921 1346.07 76.921 1349.41Z" fill="white" fill-opacity="0.3"/>
<path d="M122.871 1349.41C122.871 1352.74 125.626 1355.45 129.025 1355.45C132.424 1355.45 135.179 1352.74 135.179 1349.41C135.179 1346.07 132.424 1343.37 129.025 1343.37C125.626 1343.37 122.871 1346.07 122.871 1349.41Z" fill="white"/>
<path opacity="0.3" d="M138.156 1334.52C138.156 1337.86 140.911 1340.56 144.31 1340.56C147.708 1340.56 150.463 1337.86 150.463 1334.52C150.463 1331.19 147.708 1328.49 144.31 1328.49C140.911 1328.49 138.156 1331.19 138.156 1334.52Z" fill="white" fill-opacity="0.3"/>
<path opacity="0.3" d="M168.727 1349.41C168.727 1352.74 171.482 1355.45 174.88 1355.45C178.279 1355.45 181.034 1352.74 181.034 1349.41C181.034 1346.07 178.279 1343.37 174.88 1343.37C171.482 1343.37 168.727 1346.07 168.727 1349.41Z" fill="white" fill-opacity="0.3"/>
<path opacity="0.3" d="M199.298 1349.41C199.298 1352.74 202.053 1355.45 205.452 1355.45C208.85 1355.45 211.605 1352.74 211.605 1349.41C211.605 1346.07 208.85 1343.37 205.452 1343.37C202.053 1343.37 199.298 1346.07 199.298 1349.41Z" fill="white" fill-opacity="0.3"/>
<path opacity="0.3" d="M229.869 1349.41C229.869 1352.74 232.624 1355.45 236.023 1355.45C239.421 1355.45 242.176 1352.74 242.176 1349.41C242.176 1346.07 239.421 1343.37 236.023 1343.37C232.624 1343.37 229.869 1346.07 229.869 1349.41Z" fill="white" fill-opacity="0.3"/>
<path opacity="0.3" d="M245.154 1349.41C245.154 1352.74 247.91 1355.45 251.308 1355.45C254.707 1355.45 257.462 1352.74 257.462 1349.41C257.462 1346.07 254.707 1343.37 251.308 1343.37C247.91 1343.37 245.154 1346.07 245.154 1349.41Z" fill="white" fill-opacity="0.3"/>
<path opacity="0.3" d="M245.154 1319.04C245.154 1322.37 247.91 1325.08 251.308 1325.08C254.707 1325.08 257.462 1322.37 257.462 1319.04C257.462 1315.7 254.707 1313 251.308 1313C247.91 1313 245.154 1315.7 245.154 1319.04Z" fill="white" fill-opacity="0.3"/>
<path opacity="0.3" d="M260.44 1334.52C260.44 1337.86 263.195 1340.56 266.594 1340.56C269.992 1340.56 272.748 1337.86 272.748 1334.52C272.748 1331.19 269.992 1328.49 266.594 1328.49C263.195 1328.49 260.44 1331.19 260.44 1334.52Z" fill="white" fill-opacity="0.3"/>
<path d="M16 1257.27H16.8354V1269.31C16.8354 1269.58 16.8325 1269.85 16.8267 1270.11C16.8267 1270.37 16.8006 1271.18 16.7484 1272.54H16.818L21.5957 1257.27H22.7009V1274.5H21.8655V1262.14C21.8655 1261.15 21.9003 1260.12 21.9699 1259.05H21.9003L17.0878 1274.5H16V1257.27Z" fill="white" fill-opacity="0.3"/>
<path d="M29.6716 1274.5L26.2863 1258.81H26.2167C26.2747 1260.46 26.3037 1261.51 26.3037 1261.95V1274.5H25.4857V1257.27H26.7476L29.602 1270.44C29.8573 1271.61 30.0226 1272.6 30.098 1273.41H30.1676C30.2257 1272.83 30.4055 1271.85 30.7072 1270.47L33.5355 1257.27H34.8409V1274.5H33.988V1262.04C33.988 1261.56 34.017 1260.49 34.0751 1258.84H34.0054L30.6376 1274.5H29.6716Z" fill="white" fill-opacity="0.3"/>
<path d="M42.2467 1274.5H37.6344V1257.27H42.2467V1258.38H38.4872V1264.92H42.0378V1266.03H38.4872V1273.39H42.2467V1274.5Z" fill="white" fill-opacity="0.3"/>
<path d="M54.1865 1265.86C54.1865 1268.7 53.8964 1270.88 53.3162 1272.42C52.7419 1273.96 51.9093 1274.73 50.8186 1274.73C49.7453 1274.73 48.9186 1273.99 48.3384 1272.51C47.7583 1271.02 47.4624 1268.86 47.4508 1266.03H45.3448V1274.5H44.4919V1257.27H45.3448V1264.92H47.4508C47.5494 1259.66 48.6778 1257.02 50.836 1257.02C51.9151 1257.02 52.7419 1257.78 53.3162 1259.3C53.8964 1260.81 54.1865 1263 54.1865 1265.86ZM48.3384 1265.86C48.3384 1268.42 48.5502 1270.36 48.9737 1271.67C49.3972 1272.97 50.0122 1273.63 50.8186 1273.63C51.6309 1273.63 52.2458 1272.97 52.6636 1271.66C53.0813 1270.34 53.2901 1268.41 53.2901 1265.86C53.2901 1263.29 53.0813 1261.36 52.6636 1260.08C52.2516 1258.78 51.6425 1258.13 50.836 1258.13C50.0122 1258.13 49.3885 1258.79 48.965 1260.1C48.5473 1261.4 48.3384 1263.32 48.3384 1265.86Z" fill="white" fill-opacity="0.3"/>
<path d="M58.6509 1274.5H57.798V1258.38H55.2656V1257.27H61.1833V1258.38H58.6509V1274.5Z" fill="white" fill-opacity="0.3"/>
<path d="M66.3265 1258.11C65.3692 1258.11 64.6063 1258.79 64.0377 1260.17C63.4749 1261.54 63.1936 1263.43 63.1936 1265.86C63.1936 1267.44 63.3241 1268.81 63.5852 1269.99C63.8463 1271.16 64.2205 1272.05 64.7078 1272.68C65.1951 1273.31 65.7608 1273.63 66.4048 1273.63C67.0662 1273.63 67.6347 1273.47 68.1105 1273.14V1274.2C67.6579 1274.56 67.0633 1274.73 66.3265 1274.73C65.52 1274.73 64.8122 1274.38 64.2031 1273.67C63.5997 1272.97 63.1327 1271.95 62.802 1270.61C62.4713 1269.27 62.3059 1267.68 62.3059 1265.84C62.3059 1263.09 62.6656 1260.93 63.385 1259.36C64.1102 1257.79 65.0965 1257 66.3439 1257C67.1213 1257 67.8001 1257.24 68.3802 1257.73L67.9886 1258.74C67.5013 1258.32 66.9472 1258.11 66.3265 1258.11Z" fill="white" fill-opacity="0.3"/>
<path d="M72.5313 1266.97L70.1643 1274.5H69.1983L71.7307 1266.8C71.0925 1266.58 70.5936 1266.06 70.2339 1265.25C69.8742 1264.43 69.6943 1263.42 69.6943 1262.22C69.6943 1258.92 70.7937 1257.27 72.9926 1257.27H75.0638V1274.5H74.2022V1266.99L72.5313 1266.97ZM74.2022 1258.33H73.1231C72.218 1258.33 71.5683 1258.63 71.1737 1259.24C70.785 1259.84 70.5907 1260.82 70.5907 1262.16C70.5907 1263.47 70.7734 1264.42 71.1389 1265.04C71.5044 1265.65 72.0875 1265.96 72.8881 1265.96H74.2022V1258.33Z" fill="white" fill-opacity="0.3"/>
<path d="M87.3604 1274.5H86.5075V1258.38H82.0693V1274.5H81.2164V1257.27H87.3604V1274.5Z" fill="white" fill-opacity="0.3"/>
<path d="M95.4711 1262.22C95.4711 1264 95.1694 1265.3 94.566 1266.13C93.9685 1266.96 93.0808 1267.38 91.9031 1267.38H90.998V1274.5H90.1452V1257.27H91.8857C93.1272 1257.27 94.0352 1257.67 94.6095 1258.46C95.1839 1259.25 95.4711 1260.51 95.4711 1262.22ZM90.998 1266.32H91.8508C92.8487 1266.32 93.5565 1266 93.9743 1265.37C94.392 1264.73 94.6008 1263.68 94.6008 1262.22C94.6008 1260.83 94.3833 1259.84 93.9481 1259.24C93.5188 1258.63 92.8516 1258.33 91.9466 1258.33H90.998V1266.32Z" fill="white" fill-opacity="0.3"/>
<path d="M104.365 1265.86C104.365 1268.71 104.049 1270.9 103.416 1272.44C102.79 1273.97 101.882 1274.73 100.693 1274.73C99.4916 1274.73 98.5808 1273.96 97.96 1272.42C97.3392 1270.88 97.0288 1268.68 97.0288 1265.84C97.0288 1262.87 97.3363 1260.66 97.9513 1259.2C98.5663 1257.75 99.4887 1257.02 100.719 1257.02C101.902 1257.02 102.804 1257.79 103.425 1259.32C104.052 1260.85 104.365 1263.03 104.365 1265.86ZM97.9165 1265.86C97.9165 1268.42 98.1514 1270.36 98.6214 1271.67C99.0971 1272.97 99.7875 1273.63 100.693 1273.63C101.603 1273.63 102.294 1272.98 102.764 1271.68C103.24 1270.39 103.477 1268.45 103.477 1265.86C103.477 1263.31 103.245 1261.38 102.781 1260.09C102.317 1258.78 101.63 1258.13 100.719 1258.13C99.7846 1258.13 99.0826 1258.79 98.6127 1260.11C98.1485 1261.42 97.9165 1263.34 97.9165 1265.86Z" fill="white" fill-opacity="0.3"/>
<path d="M108.847 1274.5H107.994V1258.38H105.462V1257.27H111.379V1258.38H108.847V1274.5Z" fill="white" fill-opacity="0.3"/>
<path d="M112.928 1257.27H113.764V1269.31C113.764 1269.58 113.761 1269.85 113.755 1270.11C113.755 1270.37 113.729 1271.18 113.677 1272.54H113.746L118.524 1257.27H119.629V1274.5H118.794V1262.14C118.794 1261.15 118.829 1260.12 118.898 1259.05H118.829L114.016 1274.5H112.928V1257.27Z" fill="white" fill-opacity="0.3"/>
<path d="M122.414 1257.27H124.851C125.849 1257.27 126.614 1257.62 127.148 1258.31C127.688 1259 127.957 1260.02 127.957 1261.37C127.957 1263.7 127.328 1265.04 126.069 1265.38V1265.47C126.794 1265.68 127.334 1266.12 127.688 1266.79C128.042 1267.46 128.219 1268.39 128.219 1269.6C128.219 1271.14 127.966 1272.34 127.461 1273.2C126.957 1274.07 126.249 1274.5 125.338 1274.5H122.414V1257.27ZM123.267 1264.94H124.868C125.663 1264.94 126.229 1264.65 126.565 1264.06C126.907 1263.46 127.078 1262.56 127.078 1261.35C127.078 1260.37 126.89 1259.63 126.513 1259.11C126.142 1258.59 125.587 1258.33 124.851 1258.33H123.267V1264.94ZM123.267 1266V1273.44H125.225C126.629 1273.44 127.331 1272.15 127.331 1269.57C127.331 1268.43 127.125 1267.55 126.713 1266.93C126.301 1266.31 125.724 1266 124.981 1266H123.267Z" fill="white" fill-opacity="0.3"/>
<path d="M137.226 1265.86C137.226 1268.71 136.909 1270.9 136.277 1272.44C135.65 1273.97 134.742 1274.73 133.553 1274.73C132.352 1274.73 131.441 1273.96 130.821 1272.42C130.2 1270.88 129.889 1268.68 129.889 1265.84C129.889 1262.87 130.197 1260.66 130.812 1259.2C131.427 1257.75 132.349 1257.02 133.579 1257.02C134.763 1257.02 135.665 1257.79 136.286 1259.32C136.912 1260.85 137.226 1263.03 137.226 1265.86ZM130.777 1265.86C130.777 1268.42 131.012 1270.36 131.482 1271.67C131.958 1272.97 132.648 1273.63 133.553 1273.63C134.464 1273.63 135.154 1272.98 135.624 1271.68C136.1 1270.39 136.338 1268.45 136.338 1265.86C136.338 1263.31 136.106 1261.38 135.642 1260.09C135.178 1258.78 134.49 1258.13 133.579 1258.13C132.645 1258.13 131.943 1258.79 131.473 1260.11C131.009 1261.42 130.777 1263.34 130.777 1265.86Z" fill="white" fill-opacity="0.3"/>
<path d="M145.737 1274.5H144.884V1258.38H140.446V1274.5H139.593V1257.27H145.737V1274.5Z" fill="white" fill-opacity="0.3"/>
<path d="M155.431 1265.86C155.431 1268.71 155.115 1270.9 154.483 1272.44C153.856 1273.97 152.948 1274.73 151.759 1274.73C150.558 1274.73 149.647 1273.96 149.026 1272.42C148.405 1270.88 148.095 1268.68 148.095 1265.84C148.095 1262.87 148.402 1260.66 149.017 1259.2C149.632 1257.75 150.555 1257.02 151.785 1257.02C152.968 1257.02 153.871 1257.79 154.491 1259.32C155.118 1260.85 155.431 1263.03 155.431 1265.86ZM148.983 1265.86C148.983 1268.42 149.218 1270.36 149.688 1271.67C150.163 1272.97 150.854 1273.63 151.759 1273.63C152.67 1273.63 153.36 1272.98 153.83 1271.68C154.306 1270.39 154.544 1268.45 154.544 1265.86C154.544 1263.31 154.311 1261.38 153.847 1260.09C153.383 1258.78 152.696 1258.13 151.785 1258.13C150.851 1258.13 150.149 1258.79 149.679 1260.11C149.215 1261.42 148.983 1263.34 148.983 1265.86Z" fill="white" fill-opacity="0.3"/>
<path d="M158.651 1265.59L162.254 1257.27H163.176L159.539 1265.59L163.464 1274.5H162.48L158.651 1265.68V1274.5H157.798V1257.27H158.651V1265.59Z" fill="white" fill-opacity="0.3"/>
<path d="M169.677 1274.5L168.555 1268.25H165.465L164.36 1274.5H163.472L166.536 1257.27H167.415L170.547 1274.5H169.677ZM168.354 1267.09L167.232 1260.66C167.116 1259.94 167.026 1259.26 166.962 1258.61C166.91 1259.3 166.829 1259.98 166.718 1260.66L165.631 1267.09H168.354Z" fill="white" fill-opacity="0.3"/>
<path d="M176.526 1269.89C176.526 1271.42 176.242 1272.61 175.673 1273.46C175.105 1274.31 174.307 1274.73 173.28 1274.73C172.468 1274.73 171.725 1274.52 171.052 1274.09V1272.81C171.348 1273.06 171.693 1273.26 172.088 1273.41C172.482 1273.56 172.88 1273.63 173.28 1273.63C174.852 1273.63 175.638 1272.39 175.638 1269.91C175.638 1268.61 175.412 1267.65 174.96 1267.04C174.507 1266.43 173.805 1266.12 172.854 1266.12H171.983V1265.01H172.906C173.724 1265.01 174.356 1264.69 174.803 1264.05C175.25 1263.4 175.473 1262.46 175.473 1261.21C175.473 1260.17 175.302 1259.4 174.96 1258.9C174.623 1258.39 174.147 1258.13 173.532 1258.13C173.19 1258.13 172.874 1258.23 172.584 1258.44C172.3 1258.64 172.059 1258.9 171.861 1259.23L171.287 1258.43C171.925 1257.49 172.697 1257.02 173.602 1257.02C174.466 1257.02 175.139 1257.4 175.621 1258.14C176.108 1258.88 176.352 1259.9 176.352 1261.21C176.352 1262.33 176.155 1263.27 175.76 1264.03C175.371 1264.79 174.844 1265.28 174.176 1265.52V1265.61C174.948 1265.75 175.531 1266.18 175.926 1266.92C176.326 1267.66 176.526 1268.65 176.526 1269.89Z" fill="white" fill-opacity="0.3"/>
<path d="M183.845 1274.5L182.722 1268.25H179.633L178.528 1274.5H177.64L180.703 1257.27H181.582L184.715 1274.5H183.845ZM182.522 1267.09L181.399 1260.66C181.283 1259.94 181.193 1259.26 181.13 1258.61C181.077 1259.3 180.996 1259.98 180.886 1260.66L179.798 1267.09H182.522Z" fill="white" fill-opacity="0.3"/>
<path d="M192.26 1274.5H191.407V1266.03H186.969V1274.5H186.116V1257.27H186.969V1264.92H191.407V1257.27H192.26V1274.5Z" fill="white" fill-opacity="0.3"/>
<path d="M195.045 1257.27H195.88V1269.31C195.88 1269.58 195.877 1269.85 195.872 1270.11C195.872 1270.37 195.846 1271.18 195.793 1272.54H195.863L200.641 1257.27H201.746V1274.5H200.91V1262.14C200.91 1261.15 200.945 1260.12 201.015 1259.05H200.945L196.133 1274.5H195.045V1257.27Z" fill="white" fill-opacity="0.3"/>
<path d="M206.845 1266.97L204.478 1274.5H203.512L206.045 1266.8C205.407 1266.58 204.908 1266.06 204.548 1265.25C204.188 1264.43 204.008 1263.42 204.008 1262.22C204.008 1258.92 205.108 1257.27 207.307 1257.27H209.378V1274.5H208.516V1266.99L206.845 1266.97ZM208.516 1258.33H207.437C206.532 1258.33 205.882 1258.63 205.488 1259.24C205.099 1259.84 204.905 1260.82 204.905 1262.16C204.905 1263.47 205.088 1264.42 205.453 1265.04C205.819 1265.65 206.402 1265.96 207.202 1265.96H208.516V1258.33Z" fill="white" fill-opacity="0.3"/>
<path d="M213.451 1272.35C213.068 1274.12 212.586 1275.87 212.006 1277.61H211.458C211.893 1275.61 212.183 1273.76 212.328 1272.08H213.329L213.451 1272.35Z" fill="white" fill-opacity="0.3"/>
<path d="M225.347 1274.5H224.494V1266.03H220.056V1274.5H219.203V1257.27H220.056V1264.92H224.494V1257.27H225.347V1274.5Z" fill="white" fill-opacity="0.3"/>
<path d="M232.744 1274.5H228.132V1257.27H232.744V1258.38H228.985V1264.92H232.535V1266.03H228.985V1273.39H232.744V1274.5Z" fill="white" fill-opacity="0.3"/>
<path d="M241.899 1265.86C241.899 1268.71 241.583 1270.9 240.951 1272.44C240.324 1273.97 239.416 1274.73 238.227 1274.73C237.026 1274.73 236.115 1273.96 235.494 1272.42C234.873 1270.88 234.563 1268.68 234.563 1265.84C234.563 1262.87 234.87 1260.66 235.485 1259.2C236.1 1257.75 237.023 1257.02 238.253 1257.02C239.436 1257.02 240.338 1257.79 240.959 1259.32C241.586 1260.85 241.899 1263.03 241.899 1265.86ZM235.451 1265.86C235.451 1268.42 235.686 1270.36 236.155 1271.67C236.631 1272.97 237.322 1273.63 238.227 1273.63C239.137 1273.63 239.828 1272.98 240.298 1271.68C240.774 1270.39 241.011 1268.45 241.011 1265.86C241.011 1263.31 240.779 1261.38 240.315 1260.09C239.851 1258.78 239.164 1258.13 238.253 1258.13C237.319 1258.13 236.617 1258.79 236.147 1260.11C235.683 1261.42 235.451 1263.34 235.451 1265.86Z" fill="white" fill-opacity="0.3"/>
<path d="M245.119 1258.38V1264.92H246.477C247.614 1264.92 248.452 1265.3 248.992 1266.07C249.537 1266.84 249.81 1268.03 249.81 1269.67C249.81 1271.18 249.514 1272.36 248.922 1273.21C248.336 1274.07 247.527 1274.5 246.494 1274.5H244.266V1257.27H249.235V1258.38H245.119ZM245.119 1273.44H246.529C247.306 1273.44 247.901 1273.12 248.313 1272.47C248.725 1271.82 248.931 1270.88 248.931 1269.67C248.931 1268.4 248.736 1267.47 248.348 1266.87C247.959 1266.28 247.347 1265.98 246.511 1265.98H245.119V1273.44Z" fill="white" fill-opacity="0.3"/>
<path d="M256.432 1274.5H255.545L253.639 1266.58L251.428 1274.5H250.567L253.23 1265.35L250.941 1257.27H251.837L253.726 1264.44L255.562 1257.27H256.432L254.187 1265.61L256.432 1274.5Z" fill="white" fill-opacity="0.3"/>
<path d="M264.926 1265.86C264.926 1268.71 264.61 1270.9 263.977 1272.44C263.351 1273.97 262.443 1274.73 261.253 1274.73C260.052 1274.73 259.142 1273.96 258.521 1272.42C257.9 1270.88 257.59 1268.68 257.59 1265.84C257.59 1262.87 257.897 1260.66 258.512 1259.2C259.127 1257.75 260.05 1257.02 261.28 1257.02C262.463 1257.02 263.365 1257.79 263.986 1259.32C264.613 1260.85 264.926 1263.03 264.926 1265.86ZM258.477 1265.86C258.477 1268.42 258.712 1270.36 259.182 1271.67C259.658 1272.97 260.348 1273.63 261.253 1273.63C262.164 1273.63 262.855 1272.98 263.325 1271.68C263.8 1270.39 264.038 1268.45 264.038 1265.86C264.038 1263.31 263.806 1261.38 263.342 1260.09C262.878 1258.78 262.19 1258.13 261.28 1258.13C260.345 1258.13 259.643 1258.79 259.174 1260.11C258.709 1261.42 258.477 1263.34 258.477 1265.86Z" fill="white" fill-opacity="0.3"/>
<path d="M273.707 1278.85H272.889V1274.5H266.806V1278.85H265.988V1273.39H266.753C267.438 1270.57 267.922 1267.94 268.207 1265.5C268.497 1263.05 268.642 1260.31 268.642 1257.27H272.619V1273.39H273.707V1278.85ZM271.766 1273.39V1258.38H269.503C269.376 1263.92 268.752 1268.92 267.632 1273.39H271.766Z" fill="white" fill-opacity="0.3"/>
<path d="M275.456 1257.27H276.291V1269.31C276.291 1269.58 276.288 1269.85 276.283 1270.11C276.283 1270.37 276.256 1271.18 276.204 1272.54H276.274L281.052 1257.27H282.157V1274.5H281.321V1262.14C281.321 1261.15 281.356 1260.12 281.426 1259.05H281.356L276.544 1274.5H275.456V1257.27Z" fill="white" fill-opacity="0.3"/>
<path d="M289.127 1274.5L285.742 1258.81H285.673C285.731 1260.46 285.76 1261.51 285.76 1261.95V1274.5H284.942V1257.27H286.203L289.058 1270.44C289.313 1271.61 289.478 1272.6 289.554 1273.41H289.624C289.682 1272.83 289.861 1271.85 290.163 1270.47L292.991 1257.27H294.297V1274.5H293.444V1262.04C293.444 1261.56 293.473 1260.49 293.531 1258.84H293.461L290.093 1274.5H289.127Z" fill="white" fill-opacity="0.3"/>
<path d="M304 1265.86C304 1268.71 303.684 1270.9 303.051 1272.44C302.425 1273.97 301.517 1274.73 300.328 1274.73C299.127 1274.73 298.216 1273.96 297.595 1272.42C296.974 1270.88 296.664 1268.68 296.664 1265.84C296.664 1262.87 296.971 1260.66 297.586 1259.2C298.201 1257.75 299.124 1257.02 300.354 1257.02C301.537 1257.02 302.439 1257.79 303.06 1259.32C303.687 1260.85 304 1263.03 304 1265.86ZM297.551 1265.86C297.551 1268.42 297.786 1270.36 298.256 1271.67C298.732 1272.97 299.422 1273.63 300.328 1273.63C301.238 1273.63 301.929 1272.98 302.399 1271.68C302.874 1270.39 303.112 1268.45 303.112 1265.86C303.112 1263.31 302.88 1261.38 302.416 1260.09C301.952 1258.78 301.265 1258.13 300.354 1258.13C299.42 1258.13 298.718 1258.79 298.248 1260.11C297.784 1261.42 297.551 1263.34 297.551 1265.86Z" fill="white" fill-opacity="0.3"/>
<path d="M22.144 1302.65H21.2911V1286.53H16.8528V1302.65H16V1285.42H22.144V1302.65Z" fill="white" fill-opacity="0.3"/>
<path d="M30.2547 1290.37C30.2547 1292.15 29.953 1293.45 29.3496 1294.29C28.752 1295.12 27.8644 1295.53 26.6867 1295.53H25.7816V1302.65H24.9287V1285.42H26.6692C27.9108 1285.42 28.8188 1285.82 29.3931 1286.62C29.9675 1287.41 30.2547 1288.66 30.2547 1290.37ZM25.7816 1294.47H26.6344C27.6323 1294.47 28.3401 1294.16 28.7578 1293.52C29.1756 1292.88 29.3844 1291.84 29.3844 1290.37C29.3844 1288.98 29.1669 1287.99 28.7317 1287.39C28.3024 1286.79 27.6352 1286.49 26.7302 1286.49H25.7816V1294.47Z" fill="white" fill-opacity="0.3"/>
<path d="M39.1486 1294.01C39.1486 1296.87 38.8324 1299.06 38.2 1300.59C37.5735 1302.12 36.6655 1302.89 35.4762 1302.89C34.2752 1302.89 33.3644 1302.12 32.7436 1300.58C32.1228 1299.03 31.8124 1296.84 31.8124 1293.99C31.8124 1291.02 32.1199 1288.81 32.7349 1287.36C33.3499 1285.9 34.2723 1285.18 35.5023 1285.18C36.6858 1285.18 37.588 1285.94 38.2087 1287.48C38.8353 1289 39.1486 1291.18 39.1486 1294.01ZM32.7001 1294.01C32.7001 1296.58 32.935 1298.51 33.405 1299.82C33.8807 1301.13 34.5711 1301.78 35.4762 1301.78C36.387 1301.78 37.0774 1301.13 37.5473 1299.84C38.0231 1298.54 38.261 1296.6 38.261 1294.01C38.261 1291.46 38.0289 1289.54 37.5648 1288.24C37.1006 1286.94 36.4131 1286.29 35.5023 1286.29C34.5682 1286.29 33.8662 1286.95 33.3963 1288.26C32.9321 1289.58 32.7001 1291.49 32.7001 1294.01Z" fill="white" fill-opacity="0.3"/>
<path d="M42.3685 1293.74L45.9714 1285.42H46.8938L43.2562 1293.74L47.181 1302.65H46.1976L42.3685 1293.84V1302.65H41.5157V1285.42H42.3685V1293.74Z" fill="white" fill-opacity="0.3"/>
<path d="M55.4919 1294.01C55.4919 1296.87 55.1757 1299.06 54.5433 1300.59C53.9167 1302.12 53.0088 1302.89 51.8194 1302.89C50.6185 1302.89 49.7076 1302.12 49.0868 1300.58C48.4661 1299.03 48.1557 1296.84 48.1557 1293.99C48.1557 1291.02 48.4632 1288.81 49.0781 1287.36C49.6931 1285.9 50.6156 1285.18 51.8455 1285.18C53.0291 1285.18 53.9312 1285.94 54.552 1287.48C55.1786 1289 55.4919 1291.18 55.4919 1294.01ZM49.0433 1294.01C49.0433 1296.58 49.2783 1298.51 49.7482 1299.82C50.224 1301.13 50.9144 1301.78 51.8194 1301.78C52.7303 1301.78 53.4207 1301.13 53.8906 1299.84C54.3663 1298.54 54.6042 1296.6 54.6042 1294.01C54.6042 1291.46 54.3722 1289.54 53.908 1288.24C53.4439 1286.94 52.7564 1286.29 51.8455 1286.29C50.9115 1286.29 50.2095 1286.95 49.7395 1288.26C49.2754 1289.58 49.0433 1291.49 49.0433 1294.01Z" fill="white" fill-opacity="0.3"/>
<path d="M64.0029 1302.65H63.1501V1294.18H58.7118V1302.65H57.8589V1285.42H58.7118V1293.07H63.1501V1285.42H64.0029V1302.65Z" fill="white" fill-opacity="0.3"/>
<path d="M70.3818 1286.26C69.4245 1286.26 68.6616 1286.95 68.0931 1288.32C67.5303 1289.69 67.2489 1291.59 67.2489 1294.01C67.2489 1295.59 67.3795 1296.97 67.6405 1298.14C67.9016 1299.31 68.2758 1300.21 68.7632 1300.84C69.2505 1301.47 69.8162 1301.78 70.4601 1301.78C71.1215 1301.78 71.6901 1301.62 72.1658 1301.3V1302.36C71.7133 1302.71 71.1186 1302.89 70.3818 1302.89C69.5754 1302.89 68.8676 1302.53 68.2584 1301.83C67.655 1301.12 67.188 1300.1 66.8573 1298.76C66.5266 1297.42 66.3613 1295.83 66.3613 1293.99C66.3613 1291.24 66.721 1289.08 67.4404 1287.51C68.1656 1285.94 69.1519 1285.15 70.3992 1285.15C71.1766 1285.15 71.8554 1285.4 72.4356 1285.88L72.044 1286.9C71.5567 1286.47 71.0026 1286.26 70.3818 1286.26Z" fill="white" fill-opacity="0.3"/>
<path d="M75.6033 1297.61L72.8794 1285.42H73.7671L75.699 1294.25C75.7629 1294.56 75.8615 1295.12 75.9949 1295.95H76.0732C76.1429 1295.28 76.2241 1294.71 76.3169 1294.25L77.9617 1285.42H78.8493L76.0123 1299.8C75.7977 1300.89 75.5308 1301.68 75.2117 1302.17C74.8926 1302.65 74.4778 1302.89 73.9672 1302.89C73.6888 1302.89 73.4335 1302.81 73.2014 1302.65V1301.57C73.4567 1301.71 73.7062 1301.78 73.9498 1301.78C74.2399 1301.78 74.4836 1301.61 74.6808 1301.26C74.8781 1300.91 75.0609 1300.33 75.2291 1299.52L75.6033 1297.61Z" fill="white" fill-opacity="0.3"/>
<path d="M85.5502 1302.65H84.6974V1286.53H82.1998L81.8604 1292.14C81.6109 1296.23 81.405 1298.8 81.2425 1299.86C81.0801 1300.92 80.8567 1301.68 80.5724 1302.13C80.294 1302.59 79.8791 1302.82 79.328 1302.82C79.0611 1302.82 78.8435 1302.75 78.6753 1302.6V1301.52C78.8087 1301.65 79.0089 1301.71 79.2758 1301.71C79.4672 1301.71 79.6268 1301.66 79.7544 1301.56C79.8878 1301.45 80.0068 1301.26 80.1112 1300.97C80.2214 1300.67 80.3172 1300.24 80.3984 1299.69C80.4854 1299.14 80.5666 1298.42 80.6421 1297.53C80.7233 1296.63 80.993 1292.6 81.4514 1285.42H85.5502V1302.65Z" fill="white" fill-opacity="0.3"/>
<path d="M93.8785 1297.82C93.8785 1299.33 93.5826 1300.51 92.9909 1301.37C92.4049 1302.22 91.5956 1302.65 90.5629 1302.65H88.335V1285.42H89.1879V1293.07H90.5455C91.6826 1293.07 92.5209 1293.46 93.0605 1294.23C93.6059 1294.99 93.8785 1296.19 93.8785 1297.82ZM89.1879 1301.59H90.5977C91.3751 1301.59 91.9698 1301.27 92.3817 1300.63C92.7936 1299.97 92.9996 1299.04 92.9996 1297.82C92.9996 1296.56 92.8052 1295.63 92.4165 1295.03C92.0278 1294.43 91.4157 1294.13 90.5803 1294.13H89.1879V1301.59Z" fill="white" fill-opacity="0.3"/>
<path d="M98.0557 1302.65H97.2029V1286.53H94.6705V1285.42H100.588V1286.53H98.0557V1302.65Z" fill="white" fill-opacity="0.3"/>
<path d="M102.137 1285.42H102.973V1297.47C102.973 1297.73 102.97 1298 102.964 1298.27C102.964 1298.53 102.938 1299.34 102.886 1300.7H102.955L107.733 1285.42H108.838V1302.65H108.003V1290.29C108.003 1289.3 108.037 1288.27 108.107 1287.2H108.037L103.225 1302.65H102.137V1285.42Z" fill="white" fill-opacity="0.3"/>
<path d="M116.949 1290.37C116.949 1292.15 116.647 1293.45 116.044 1294.29C115.446 1295.12 114.559 1295.53 113.381 1295.53H112.476V1302.65H111.623V1285.42H113.363C114.605 1285.42 115.513 1285.82 116.087 1286.62C116.662 1287.41 116.949 1288.66 116.949 1290.37ZM112.476 1294.47H113.329C114.326 1294.47 115.034 1294.16 115.452 1293.52C115.87 1292.88 116.079 1291.84 116.079 1290.37C116.079 1288.98 115.861 1287.99 115.426 1287.39C114.997 1286.79 114.329 1286.49 113.424 1286.49H112.476V1294.47Z" fill="white" fill-opacity="0.3"/>
<path d="M125.843 1294.01C125.843 1296.87 125.527 1299.06 124.894 1300.59C124.268 1302.12 123.36 1302.89 122.17 1302.89C120.969 1302.89 120.059 1302.12 119.438 1300.58C118.817 1299.03 118.507 1296.84 118.507 1293.99C118.507 1291.02 118.814 1288.81 119.429 1287.36C120.044 1285.9 120.966 1285.18 122.196 1285.18C123.38 1285.18 124.282 1285.94 124.903 1287.48C125.529 1289 125.843 1291.18 125.843 1294.01ZM119.394 1294.01C119.394 1296.58 119.629 1298.51 120.099 1299.82C120.575 1301.13 121.265 1301.78 122.17 1301.78C123.081 1301.78 123.772 1301.13 124.241 1299.84C124.717 1298.54 124.955 1296.6 124.955 1294.01C124.955 1291.46 124.723 1289.54 124.259 1288.24C123.795 1286.94 123.107 1286.29 122.196 1286.29C121.262 1286.29 120.56 1286.95 120.09 1288.26C119.626 1289.58 119.394 1291.49 119.394 1294.01Z" fill="white" fill-opacity="0.3"/>
<path d="M128.21 1285.42H130.647C131.644 1285.42 132.41 1285.77 132.944 1286.46C133.484 1287.15 133.753 1288.17 133.753 1289.53C133.753 1291.86 133.124 1293.19 131.865 1293.53V1293.63C132.59 1293.83 133.13 1294.27 133.484 1294.95C133.837 1295.61 134.014 1296.55 134.014 1297.75C134.014 1299.29 133.762 1300.49 133.257 1301.36C132.753 1302.22 132.045 1302.65 131.134 1302.65H128.21V1285.42ZM129.063 1293.1H130.664C131.459 1293.1 132.024 1292.8 132.361 1292.21C132.703 1291.62 132.874 1290.71 132.874 1289.5C132.874 1288.53 132.686 1287.78 132.309 1287.26C131.937 1286.74 131.383 1286.49 130.647 1286.49H129.063V1293.1ZM129.063 1294.16V1301.59H131.021C132.425 1301.59 133.127 1300.3 133.127 1297.73C133.127 1296.58 132.921 1295.7 132.509 1295.09C132.097 1294.47 131.52 1294.16 130.777 1294.16H129.063Z" fill="white" fill-opacity="0.3"/>
<path d="M140.924 1302.65L139.802 1296.41H136.712L135.607 1302.65H134.719L137.783 1285.42H138.662L141.794 1302.65H140.924ZM139.601 1295.24L138.479 1288.82C138.363 1288.1 138.273 1287.41 138.209 1286.77C138.157 1287.45 138.076 1288.14 137.965 1288.82L136.878 1295.24H139.601Z" fill="white" fill-opacity="0.3"/>
<path d="M145.31 1302.65H144.457V1286.53H141.925V1285.42H147.843V1286.53H145.31V1302.65Z" fill="white" fill-opacity="0.3"/>
<path d="M154.935 1297.82C154.935 1299.33 154.639 1300.51 154.048 1301.37C153.462 1302.22 152.652 1302.65 151.62 1302.65H149.392V1285.42H150.245V1293.07H151.602C152.739 1293.07 153.578 1293.46 154.117 1294.23C154.662 1294.99 154.935 1296.19 154.935 1297.82ZM150.245 1301.59H151.654C152.432 1301.59 153.026 1301.27 153.438 1300.63C153.85 1299.97 154.056 1299.04 154.056 1297.82C154.056 1296.56 153.862 1295.63 153.473 1295.03C153.084 1294.43 152.472 1294.13 151.637 1294.13H150.245V1301.59Z" fill="white" fill-opacity="0.3"/>
<path d="M160.592 1286.26C159.634 1286.26 158.872 1286.95 158.303 1288.32C157.74 1289.69 157.459 1291.59 157.459 1294.01C157.459 1295.59 157.589 1296.97 157.85 1298.14C158.112 1299.31 158.486 1300.21 158.973 1300.84C159.46 1301.47 160.026 1301.78 160.67 1301.78C161.331 1301.78 161.9 1301.62 162.376 1301.3V1302.36C161.923 1302.71 161.329 1302.89 160.592 1302.89C159.785 1302.89 159.078 1302.53 158.468 1301.83C157.865 1301.12 157.398 1300.1 157.067 1298.76C156.737 1297.42 156.571 1295.83 156.571 1293.99C156.571 1291.24 156.931 1289.08 157.65 1287.51C158.376 1285.94 159.362 1285.15 160.609 1285.15C161.387 1285.15 162.065 1285.4 162.646 1285.88L162.254 1286.9C161.767 1286.47 161.213 1286.26 160.592 1286.26Z" fill="white" fill-opacity="0.3"/>
<path d="M166.797 1295.12L164.43 1302.65H163.464L165.996 1294.96C165.358 1294.73 164.859 1294.21 164.499 1293.4C164.139 1292.59 163.96 1291.58 163.96 1290.37C163.96 1287.07 165.059 1285.42 167.258 1285.42H169.329V1302.65H168.468V1295.15L166.797 1295.12ZM168.468 1286.49H167.388C166.483 1286.49 165.834 1286.79 165.439 1287.39C165.05 1288 164.856 1288.97 164.856 1290.32C164.856 1291.62 165.039 1292.58 165.404 1293.19C165.77 1293.8 166.353 1294.11 167.153 1294.11H168.468V1286.49Z" fill="white" fill-opacity="0.3"/>
<path d="M179.076 1286.26C178.119 1286.26 177.356 1286.95 176.787 1288.32C176.224 1289.69 175.943 1291.59 175.943 1294.01C175.943 1295.59 176.073 1296.97 176.335 1298.14C176.596 1299.31 176.97 1300.21 177.457 1300.84C177.945 1301.47 178.51 1301.78 179.154 1301.78C179.816 1301.78 180.384 1301.62 180.86 1301.3V1302.36C180.407 1302.71 179.813 1302.89 179.076 1302.89C178.269 1302.89 177.562 1302.53 176.952 1301.83C176.349 1301.12 175.882 1300.1 175.551 1298.76C175.221 1297.42 175.055 1295.83 175.055 1293.99C175.055 1291.24 175.415 1289.08 176.134 1287.51C176.86 1285.94 177.846 1285.15 179.093 1285.15C179.871 1285.15 180.549 1285.4 181.13 1285.88L180.738 1286.9C180.251 1286.47 179.697 1286.26 179.076 1286.26Z" fill="white" fill-opacity="0.3"/>
<path d="M189.876 1294.01C189.876 1296.87 189.559 1299.06 188.927 1300.59C188.3 1302.12 187.393 1302.89 186.203 1302.89C185.002 1302.89 184.091 1302.12 183.471 1300.58C182.85 1299.03 182.539 1296.84 182.539 1293.99C182.539 1291.02 182.847 1288.81 183.462 1287.36C184.077 1285.9 184.999 1285.18 186.229 1285.18C187.413 1285.18 188.315 1285.94 188.936 1287.48C189.562 1289 189.876 1291.18 189.876 1294.01ZM183.427 1294.01C183.427 1296.58 183.662 1298.51 184.132 1299.82C184.608 1301.13 185.298 1301.78 186.203 1301.78C187.114 1301.78 187.804 1301.13 188.274 1299.84C188.75 1298.54 188.988 1296.6 188.988 1294.01C188.988 1291.46 188.756 1289.54 188.292 1288.24C187.828 1286.94 187.14 1286.29 186.229 1286.29C185.295 1286.29 184.593 1286.95 184.123 1288.26C183.659 1289.58 183.427 1291.49 183.427 1294.01Z" fill="white" fill-opacity="0.3"/>
<path d="M199.196 1286.26C198.239 1286.26 197.476 1286.95 196.907 1288.32C196.344 1289.69 196.063 1291.59 196.063 1294.01C196.063 1295.59 196.194 1296.97 196.455 1298.14C196.716 1299.31 197.09 1300.21 197.577 1300.84C198.065 1301.47 198.63 1301.78 199.274 1301.78C199.936 1301.78 200.504 1301.62 200.98 1301.3V1302.36C200.527 1302.71 199.933 1302.89 199.196 1302.89C198.39 1302.89 197.682 1302.53 197.073 1301.83C196.469 1301.12 196.002 1300.1 195.671 1298.76C195.341 1297.42 195.175 1295.83 195.175 1293.99C195.175 1291.24 195.535 1289.08 196.255 1287.51C196.98 1285.94 197.966 1285.15 199.213 1285.15C199.991 1285.15 200.67 1285.4 201.25 1285.88L200.858 1286.9C200.371 1286.47 199.817 1286.26 199.196 1286.26Z" fill="white" fill-opacity="0.3"/>
<path d="M209.23 1302.65H208.377V1286.53H203.939V1302.65H203.086V1285.42H209.23V1302.65Z" fill="white" fill-opacity="0.3"/>
<path d="M216.627 1302.65H212.015V1285.42H216.627V1286.53H212.868V1293.07H216.418V1294.18H212.868V1301.54H216.627V1302.65Z" fill="white" fill-opacity="0.3"/>
<path d="M225.016 1301.54H225.982V1307H225.164V1302.65H218.872V1285.42H219.725V1301.54H224.163V1285.42H225.016V1301.54Z" fill="white" fill-opacity="0.3"/>
<path d="M227.853 1285.42H228.689V1297.47C228.689 1297.73 228.686 1298 228.68 1298.27C228.68 1298.53 228.654 1299.34 228.602 1300.7H228.671L233.449 1285.42H234.554V1302.65H233.719V1290.29C233.719 1289.3 233.754 1288.27 233.823 1287.2H233.754L228.941 1302.65H227.853V1285.42Z" fill="white" fill-opacity="0.3"/>
<path d="M242.151 1302.65L241.029 1296.41H237.939L236.834 1302.65H235.947L239.01 1285.42H239.889L243.022 1302.65H242.151ZM240.829 1295.24L239.706 1288.82C239.59 1288.1 239.5 1287.41 239.436 1286.77C239.384 1287.45 239.303 1288.14 239.193 1288.82L238.105 1295.24H240.829Z" fill="white" fill-opacity="0.3"/>
<path d="M249.731 1302.65H248.878V1286.53H246.381L246.041 1292.14C245.792 1296.23 245.586 1298.8 245.424 1299.86C245.261 1300.92 245.038 1301.68 244.753 1302.13C244.475 1302.59 244.06 1302.82 243.509 1302.82C243.242 1302.82 243.025 1302.75 242.856 1302.6V1301.52C242.99 1301.65 243.19 1301.71 243.457 1301.71C243.648 1301.71 243.808 1301.66 243.935 1301.56C244.069 1301.45 244.188 1301.26 244.292 1300.97C244.402 1300.67 244.498 1300.24 244.579 1299.69C244.666 1299.14 244.748 1298.42 244.823 1297.53C244.904 1296.63 245.174 1292.6 245.632 1285.42H249.731V1302.65Z" fill="white" fill-opacity="0.3"/>
<path d="M252.516 1285.42H253.352V1297.47C253.352 1297.73 253.349 1298 253.343 1298.27C253.343 1298.53 253.317 1299.34 253.265 1300.7H253.334L258.112 1285.42H259.217V1302.65H258.382V1290.29C258.382 1289.3 258.416 1288.27 258.486 1287.2H258.416L253.604 1302.65H252.516V1285.42Z" fill="white" fill-opacity="0.3"/>
<path d="M265.596 1286.26C264.639 1286.26 263.876 1286.95 263.307 1288.32C262.744 1289.69 262.463 1291.59 262.463 1294.01C262.463 1295.59 262.594 1296.97 262.855 1298.14C263.116 1299.31 263.49 1300.21 263.977 1300.84C264.465 1301.47 265.03 1301.78 265.674 1301.78C266.336 1301.78 266.904 1301.62 267.38 1301.3V1302.36C266.927 1302.71 266.333 1302.89 265.596 1302.89C264.79 1302.89 264.082 1302.53 263.473 1301.83C262.869 1301.12 262.402 1300.1 262.071 1298.76C261.741 1297.42 261.575 1295.83 261.575 1293.99C261.575 1291.24 261.935 1289.08 262.654 1287.51C263.38 1285.94 264.366 1285.15 265.613 1285.15C266.391 1285.15 267.07 1285.4 267.65 1285.88L267.258 1286.9C266.771 1286.47 266.217 1286.26 265.596 1286.26Z" fill="white" fill-opacity="0.3"/>
<path d="M271.601 1302.65H270.748V1286.53H268.215V1285.42H274.133V1286.53H271.601V1302.65Z" fill="white" fill-opacity="0.3"/>
<path d="M282.592 1294.01C282.592 1296.87 282.276 1299.06 281.643 1300.59C281.017 1302.12 280.109 1302.89 278.919 1302.89C277.719 1302.89 276.808 1302.12 276.187 1300.58C275.566 1299.03 275.256 1296.84 275.256 1293.99C275.256 1291.02 275.563 1288.81 276.178 1287.36C276.793 1285.9 277.716 1285.18 278.946 1285.18C280.129 1285.18 281.031 1285.94 281.652 1287.48C282.279 1289 282.592 1291.18 282.592 1294.01ZM276.143 1294.01C276.143 1296.58 276.378 1298.51 276.848 1299.82C277.324 1301.13 278.014 1301.78 278.919 1301.78C279.83 1301.78 280.521 1301.13 280.991 1299.84C281.466 1298.54 281.704 1296.6 281.704 1294.01C281.704 1291.46 281.472 1289.54 281.008 1288.24C280.544 1286.94 279.856 1286.29 278.946 1286.29C278.011 1286.29 277.309 1286.95 276.84 1288.26C276.375 1289.58 276.143 1291.49 276.143 1294.01Z" fill="white" fill-opacity="0.3"/>
<path d="M289.145 1302.65L285.76 1286.97H285.69C285.748 1288.62 285.777 1289.66 285.777 1290.1V1302.65H284.959V1285.42H286.221L289.075 1298.6C289.331 1299.76 289.496 1300.75 289.571 1301.57H289.641C289.699 1300.99 289.879 1300 290.18 1298.62L293.009 1285.42H294.314V1302.65H293.461V1290.2C293.461 1289.71 293.49 1288.64 293.548 1286.99H293.479L290.111 1302.65H289.145Z" fill="white" fill-opacity="0.3"/>
<rect x="155.255" y="481.768" width="20.0702" height="17.5865" fill="#C6E3F5"/>
<rect x="142.468" y="499.355" width="22.8218" height="23.7743" fill="white" fill-opacity="0.5"/>
<rect x="165.29" y="499.355" width="22.8218" height="23.7743" fill="#10295C"/>
<rect x="136.965" y="521.175" width="51.1466" height="15.7953" fill="#2482BC"/>
<path d="M136.479 529.154H169.903" stroke="white" stroke-width="2.70016"/>
<path d="M165.695 509.125L188.274 509.125" stroke="white" stroke-width="2.70016"/>
<path d="M155.255 489.422L175.325 489.422" stroke="white" stroke-width="2.70016"/>
<path d="M153.798 521.989V536.237" stroke="white" stroke-width="2.70016"/>
<path d="M176.458 499.355L176.458 520.198" stroke="white" stroke-width="2.70016"/>
<path d="M165.29 483.234L165.29 499.68" stroke="white" stroke-width="2.70016"/>
<path d="M155.984 530.457L154.036 529.18M153.765 529.002L151.545 527.548C150.423 526.872 151.338 525.004 152.882 526.041C154.351 527.028 154.184 528.327 153.765 529.002ZM153.765 529.002L151.545 530.457M153.765 529.002L154.036 529.18M153.765 529.002C153.855 528.015 154.433 526.197 155.449 526.041C156.846 525.827 156.878 526.851 156.519 527.548C156.198 528.171 154.863 528.895 154.036 529.18" stroke="white" stroke-width="2.70016"/>
<path d="M178.644 510.428L176.695 509.151M176.424 508.973L174.204 507.519C173.083 506.843 173.998 504.975 175.542 506.012C177.011 506.999 176.843 508.298 176.424 508.973ZM176.424 508.973L174.204 510.428M176.424 508.973L176.695 509.151M176.424 508.973C176.515 507.986 177.093 506.168 178.109 506.012C179.506 505.798 179.538 506.822 179.179 507.519C178.858 508.142 177.523 508.866 176.695 509.151" stroke="white" stroke-width="2.70016"/>
<path d="M167.476 483.722L165.527 482.445M165.256 482.268L163.036 480.813C161.914 480.138 162.83 478.27 164.373 479.307C165.843 480.294 165.675 481.593 165.256 482.268ZM165.256 482.268L163.036 483.722M165.256 482.268L165.527 482.445M165.256 482.268C165.346 481.281 165.924 479.463 166.941 479.307C168.337 479.093 168.369 480.116 168.01 480.813C167.69 481.437 166.355 482.161 165.527 482.445" stroke="white" stroke-width="2.70016"/>
<mask id="mask0_725:3582" style="mask-type:alpha" maskUnits="userSpaceOnUse" x="142" y="500" width="24" height="22">
<rect x="142.306" y="500.006" width="22.8218" height="21.1689" fill="#C4C4C4"/>
</mask>
<g mask="url(#mask0_725:3582)">
<path d="M128.016 500.336L149.115 479.461" stroke="#0E378F" stroke-width="2.70016"/>
<path d="M130.264 503.551L151.363 482.677" stroke="#0E378F" stroke-width="2.70016"/>
<path d="M132.512 506.766L153.611 485.892" stroke="#0E378F" stroke-width="2.70016"/>
<path d="M134.759 509.981L155.859 489.106" stroke="#0E378F" stroke-width="2.70016"/>
<path d="M136.646 512.677L157.745 491.803" stroke="#0E378F" stroke-width="2.70016"/>
<path d="M138.603 515.477L159.703 494.603" stroke="#0E378F" stroke-width="2.70016"/>
<path d="M140.562 518.278L161.661 497.403" stroke="#0E378F" stroke-width="2.70016"/>
<path d="M142.447 520.974L163.546 500.099" stroke="#0E378F" stroke-width="2.70016"/>
<path d="M144.478 523.878L165.577 503.003" stroke="#0E378F" stroke-width="2.70016"/>
<path d="M146.726 527.093L167.825 506.219" stroke="#0E378F" stroke-width="2.70016"/>
<path d="M148.973 530.308L170.073 509.433" stroke="#0E378F" stroke-width="2.70016"/>
<path d="M151.221 533.523L172.321 512.648" stroke="#0E378F" stroke-width="2.70016"/>
<path d="M153.107 536.219L174.207 515.345" stroke="#0E378F" stroke-width="2.70016"/>
<path d="M155.065 539.019L176.165 518.145" stroke="#0E378F" stroke-width="2.70016"/>
<path d="M157.023 541.82L178.122 520.945" stroke="#0E378F" stroke-width="2.70016"/>
</g>
<mask id="mask1_725:3582" style="mask-type:alpha" maskUnits="userSpaceOnUse" x="169" y="521" width="20" height="16">
<rect x="169.175" y="521.012" width="18.9372" height="15.3068" fill="#C4C4C4"/>
</mask>
<g mask="url(#mask1_725:3582)">
<path d="M168.54 539.13L168.169 515.936" stroke="white" stroke-width="2.70016" stroke-dasharray="3.6 3.6"/>
<path d="M171.031 539.163L170.66 515.969" stroke="white" stroke-width="2.70016" stroke-dasharray="3.6 3.6"/>
<path d="M173.617 539.198L173.246 516.004" stroke="white" stroke-width="2.70016" stroke-dasharray="3.6 3.6"/>
<path d="M176.203 539.232L175.832 516.038" stroke="white" stroke-width="2.70016" stroke-dasharray="3.6 3.6"/>
<path d="M178.693 539.265L178.322 516.071" stroke="white" stroke-width="2.70016" stroke-dasharray="3.6 3.6"/>
<path d="M181.376 539.301L181.004 516.107" stroke="white" stroke-width="2.70016" stroke-dasharray="3.6 3.6"/>
<path d="M184.345 539.34L183.974 516.146" stroke="white" stroke-width="2.70016" stroke-dasharray="3.6 3.6"/>
<path d="M187.315 539.38L186.943 516.186" stroke="white" stroke-width="2.70016" stroke-dasharray="3.6 3.6"/>
</g>
<rect x="188.129" y="576.312" width="37.7184" height="38.1728" fill="white" fill-opacity="0.5"/>
<mask id="mask2_725:3582" style="mask-type:alpha" maskUnits="userSpaceOnUse" x="185" y="576" width="43" height="40">
<rect x="185.856" y="576.312" width="41.8083" height="39.0817" fill="#C4C4C4"/>
</mask>
<g mask="url(#mask2_725:3582)">
<path d="M160.942 577.065L199.74 538.681" stroke="#0E378F" stroke-width="3.66442"/>
<path d="M165.077 582.977L203.875 544.593" stroke="#0E378F" stroke-width="3.66442"/>
<path d="M169.21 588.889L208.008 550.505" stroke="#0E378F" stroke-width="3.66442"/>
<path d="M173.343 594.801L212.141 556.417" stroke="#0E378F" stroke-width="3.66442"/>
<path d="M176.811 599.759L215.609 561.375" stroke="#0E378F" stroke-width="3.66442"/>
<path d="M180.411 604.907L219.209 566.523" stroke="#0E378F" stroke-width="3.66442"/>
<path d="M184.011 610.056L222.809 571.672" stroke="#0E378F" stroke-width="3.66442"/>
<path d="M187.478 615.015L226.276 576.631" stroke="#0E378F" stroke-width="3.66442"/>
<path d="M191.212 620.354L230.01 581.97" stroke="#0E378F" stroke-width="3.66442"/>
<path d="M195.346 626.266L234.144 587.882" stroke="#0E378F" stroke-width="3.66442"/>
<path d="M199.479 632.178L238.277 593.794" stroke="#0E378F" stroke-width="3.66442"/>
<path d="M203.613 638.09L242.411 599.705" stroke="#0E378F" stroke-width="3.66442"/>
<path d="M207.08 643.048L245.878 604.664" stroke="#0E378F" stroke-width="3.66442"/>
<path d="M210.681 648.196L249.479 609.812" stroke="#0E378F" stroke-width="3.66442"/>
<path d="M214.28 653.345L253.078 614.961" stroke="#0E378F" stroke-width="3.66442"/>
</g>
<rect x="81.6211" y="614.517" width="36.1758" height="36.6116" fill="white" fill-opacity="0.5"/>
<mask id="mask3_725:3582" style="mask-type:alpha" maskUnits="userSpaceOnUse" x="79" y="614" width="41" height="38">
<rect x="79.4414" y="614.517" width="40.0985" height="37.4833" fill="#C4C4C4"/>
</mask>
<g mask="url(#mask3_725:3582)">
<path d="M55.5466 615.239L92.7578 578.424" stroke="#0E378F" stroke-width="3.66442"/>
<path d="M59.5114 620.909L96.7227 584.094" stroke="#0E378F" stroke-width="3.66442"/>
<path d="M63.4758 626.579L100.687 589.764" stroke="#0E378F" stroke-width="3.66442"/>
<path d="M67.4401 632.249L104.651 595.434" stroke="#0E378F" stroke-width="3.66442"/>
<path d="M70.7663 637.004L107.978 600.19" stroke="#0E378F" stroke-width="3.66442"/>
<path d="M74.2189 641.942L111.43 605.128" stroke="#0E378F" stroke-width="3.66442"/>
<path d="M77.6721 646.88L114.883 610.066" stroke="#0E378F" stroke-width="3.66442"/>
<path d="M80.9973 651.636L118.208 614.822" stroke="#0E378F" stroke-width="3.66442"/>
<path d="M84.5783 656.757L121.79 619.943" stroke="#0E378F" stroke-width="3.66442"/>
<path d="M88.5427 662.428L125.754 625.613" stroke="#0E378F" stroke-width="3.66442"/>
<path d="M92.5075 668.097L129.719 631.283" stroke="#0E378F" stroke-width="3.66442"/>
<path d="M96.4719 673.767L133.683 636.953" stroke="#0E378F" stroke-width="3.66442"/>
<path d="M99.798 678.523L137.009 641.708" stroke="#0E378F" stroke-width="3.66442"/>
<path d="M103.251 683.461L140.462 646.646" stroke="#0E378F" stroke-width="3.66442"/>
<path d="M106.703 688.399L143.914 651.585" stroke="#0E378F" stroke-width="3.66442"/>
</g>
<rect x="150.595" y="536.667" width="18.9348" height="19.1629" fill="white" fill-opacity="0.5"/>
<mask id="mask4_725:3582" style="mask-type:alpha" maskUnits="userSpaceOnUse" x="149" y="536" width="22" height="21">
<rect x="149.454" y="536.667" width="20.988" height="19.6192" fill="#C4C4C4"/>
</mask>
<g mask="url(#mask4_725:3582)">
<path d="M136.948 537.044L156.424 517.775" stroke="#0E378F" stroke-width="2.70016"/>
<path d="M139.023 540.012L158.5 520.743" stroke="#0E378F" stroke-width="2.70016"/>
<path d="M141.098 542.98L160.575 523.711" stroke="#0E378F" stroke-width="2.70016"/>
<path d="M143.173 545.948L162.649 526.679" stroke="#0E378F" stroke-width="2.70016"/>
<path d="M144.913 548.437L164.39 529.168" stroke="#0E378F" stroke-width="2.70016"/>
<path d="M146.721 551.021L166.198 531.752" stroke="#0E378F" stroke-width="2.70016"/>
<path d="M148.528 553.606L168.005 534.337" stroke="#0E378F" stroke-width="2.70016"/>
<path d="M150.268 556.095L169.745 536.826" stroke="#0E378F" stroke-width="2.70016"/>
<path d="M152.143 558.776L171.62 539.507" stroke="#0E378F" stroke-width="2.70016"/>
<path d="M154.218 561.744L173.695 542.475" stroke="#0E378F" stroke-width="2.70016"/>
<path d="M156.293 564.711L175.77 545.442" stroke="#0E378F" stroke-width="2.70016"/>
<path d="M158.368 567.679L177.845 548.41" stroke="#0E378F" stroke-width="2.70016"/>
<path d="M160.109 570.168L179.586 550.899" stroke="#0E378F" stroke-width="2.70016"/>
<path d="M161.916 572.753L181.393 553.484" stroke="#0E378F" stroke-width="2.70016"/>
<path d="M163.723 575.337L183.2 556.068" stroke="#0E378F" stroke-width="2.70016"/>
</g>
<rect x="128.911" y="536.758" width="21.5676" height="18.8986" fill="#C6E3F5"/>
<path d="M128.911 544.982L150.478 544.982" stroke="white" stroke-width="2.70016"/>
<path d="M139.694 538.333L139.694 556.007" stroke="white" stroke-width="2.70016"/>
<path d="M142.043 538.858L139.949 537.486M139.658 537.295L137.272 535.732C136.067 535.006 137.051 532.999 138.709 534.113C140.288 535.174 140.108 536.569 139.658 537.295ZM139.658 537.295L137.272 538.858M139.658 537.295L139.949 537.486M139.658 537.295C139.755 536.234 140.376 534.281 141.468 534.113C142.969 533.883 143.004 534.983 142.618 535.732C142.273 536.402 140.839 537.18 139.949 537.486" stroke="white" stroke-width="2.70016"/>
<rect x="169.747" y="537.027" width="37.9917" height="39.3389" fill="#4AACE9"/>
<path d="M188.877 537.027L188.877 576.366" stroke="white" stroke-width="2.70016"/>
<path d="M191.977 555.349L188.733 553.236M188.282 552.942L184.587 550.536C182.719 549.418 184.243 546.327 186.813 548.043C189.259 549.676 188.98 551.825 188.282 552.942ZM188.282 552.942L184.587 555.349M188.282 552.942L188.733 553.236M188.282 552.942C188.432 551.309 189.395 548.301 191.087 548.043C193.412 547.689 193.465 549.383 192.868 550.536C192.333 551.567 190.111 552.766 188.733 553.236" stroke="white" stroke-width="2.70016"/>
<rect x="143.688" y="595.054" width="22.7063" height="19.1021" fill="#10295C"/>
<mask id="mask5_725:3582" style="mask-type:alpha" maskUnits="userSpaceOnUse" x="142" y="594" width="24" height="21">
<rect x="142.606" y="594.694" width="23.0667" height="19.4655" fill="#C4C4C4"/>
</mask>
<g mask="url(#mask5_725:3582)">
<path d="M141.833 617.735L141.381 588.239" stroke="white" stroke-width="2.60413" stroke-dasharray="3.47 3.47"/>
<path d="M144.867 617.776L144.415 588.281" stroke="white" stroke-width="2.60413" stroke-dasharray="3.47 3.47"/>
<path d="M148.017 617.82L147.565 588.325" stroke="white" stroke-width="2.60413" stroke-dasharray="3.47 3.47"/>
<path d="M151.167 617.864L150.715 588.369" stroke="white" stroke-width="2.60413" stroke-dasharray="3.47 3.47"/>
<path d="M154.201 617.906L153.749 588.411" stroke="white" stroke-width="2.60413" stroke-dasharray="3.47 3.47"/>
<path d="M157.468 617.951L157.016 588.456" stroke="white" stroke-width="2.60413" stroke-dasharray="3.47 3.47"/>
<path d="M161.085 618.001L160.633 588.506" stroke="white" stroke-width="2.60413" stroke-dasharray="3.47 3.47"/>
<path d="M164.702 618.052L164.25 588.557" stroke="white" stroke-width="2.60413" stroke-dasharray="3.47 3.47"/>
</g>
<rect x="116.657" y="555.632" width="53.2258" height="22.8427" fill="#10295C"/>
<path d="M116.881 567.054H170.404" stroke="white" stroke-width="2.70016"/>
<path d="M144.65 555.408V578.251" stroke="white" stroke-width="2.70016"/>
<path d="M147.979 569.069L144.897 567.01M144.469 566.724L140.959 564.379C139.185 563.29 140.632 560.278 143.073 561.95C145.397 563.541 145.131 565.635 144.469 566.724ZM144.469 566.724L140.959 569.069M144.469 566.724L144.897 567.01M144.469 566.724C144.612 565.133 145.526 562.201 147.133 561.95C149.342 561.604 149.392 563.255 148.825 564.379C148.317 565.384 146.207 566.552 144.897 567.01" stroke="white" stroke-width="2.70016"/>
<rect x="100.078" y="576.441" width="43.3799" height="37.7825" fill="#C6E3F5"/>
<path d="M121.768 579.589L121.768 614.923" stroke="white" stroke-width="2.70016"/>
<path d="M126.492 580.639L122.28 577.895M121.694 577.514L116.897 574.389C114.472 572.938 116.45 568.925 119.787 571.153C122.963 573.273 122.6 576.063 121.694 577.514ZM121.694 577.514L116.897 580.639M121.694 577.514L122.28 577.895M121.694 577.514C121.89 575.394 123.14 571.488 125.336 571.153C128.355 570.693 128.424 572.892 127.648 574.389C126.955 575.728 124.07 577.285 122.28 577.895" stroke="white" stroke-width="2.70016"/>
<path d="M100.078 592.883L143.458 592.883" stroke="white" stroke-width="2.70016"/>
<rect x="143.328" y="576.312" width="44.6917" height="19.2174" fill="#2482BC"/>
<path d="M143.328 585.938H187.865" stroke="white" stroke-width="3.34819"/>
<path d="M166.405 576.391V595.377" stroke="white" stroke-width="3.34819"/>
<path d="M169.318 587.674L166.721 585.972M166.36 585.736L163.402 583.798C161.907 582.898 163.127 580.409 165.184 581.79C167.142 583.106 166.918 584.836 166.36 585.736ZM166.36 585.736L163.402 587.674M166.36 585.736L166.721 585.972M166.36 585.736C166.48 584.421 167.251 581.998 168.605 581.79C170.466 581.505 170.508 582.869 170.03 583.798C169.603 584.628 167.824 585.594 166.721 585.972" stroke="white" stroke-width="3.34819"/>
<rect x="153.059" y="614.156" width="86.5" height="36.7625" fill="#2482BC"/>
<path d="M153.419 632.538H239.559" stroke="white" stroke-width="2.70016"/>
<path d="M198.111 613.796V650.558" stroke="white" stroke-width="2.70016"/>
<path d="M203.468 635.781L198.508 632.468M197.819 632.007L192.169 628.233C189.315 626.48 191.644 621.633 195.573 624.324C199.312 626.885 198.885 630.255 197.819 632.007ZM197.819 632.007L192.169 635.781M197.819 632.007L198.508 632.468M197.819 632.007C198.048 629.446 199.52 624.728 202.106 624.324C205.661 623.768 205.742 626.424 204.829 628.233C204.012 629.85 200.615 631.73 198.508 632.468" stroke="white" stroke-width="2.70016"/>
<rect x="117.612" y="614.258" width="35.5552" height="36.816" fill="#4AACE9"/>
<path d="M118.242 629.388L153.419 629.388" stroke="white" stroke-width="2.70016"/>
<path d="M135.515 614.258L135.515 651.074" stroke="white" stroke-width="2.70016"/>
<path d="M138.417 631.405L135.381 629.428M134.959 629.153L131.5 626.901C129.753 625.855 131.179 622.962 133.584 624.568C135.873 626.096 135.611 628.107 134.959 629.153ZM134.959 629.153L131.5 631.405M134.959 629.153L135.381 629.428M134.959 629.153C135.099 627.625 136 624.809 137.584 624.568C139.759 624.236 139.809 625.821 139.25 626.901C138.75 627.866 136.671 628.988 135.381 629.428" stroke="white" stroke-width="2.70016"/>
<rect x="166.394" y="595.506" width="21.5676" height="18.8986" fill="#C6E3F5"/>
<path d="M166.394 603.73L187.962 603.73" stroke="white" stroke-width="2.70016"/>
<path d="M177.178 597.081L177.178 614.754" stroke="white" stroke-width="2.70016"/>
<path d="M179.527 597.606L177.433 596.234M177.142 596.043L174.756 594.48C173.551 593.754 174.534 591.747 176.193 592.861C177.772 593.922 177.592 595.317 177.142 596.043ZM177.142 596.043L174.756 597.606M177.142 596.043L177.433 596.234M177.142 596.043C177.239 594.982 177.86 593.029 178.952 592.861C180.453 592.631 180.487 593.731 180.102 594.48C179.757 595.15 178.323 595.928 177.433 596.234" stroke="white" stroke-width="2.70016"/>
<path d="M120.064 511.037L120.985 513.887L123.964 513.887L121.554 515.649L122.474 518.5L120.064 516.738L117.654 518.5L118.575 515.649L116.165 513.887L119.144 513.887L120.064 511.037Z" fill="#4AACE9"/>
<path d="M215.119 546.278L215.586 547.717H217.099L215.875 548.606L216.343 550.045L215.119 549.156L213.895 550.045L214.362 548.606L213.138 547.717H214.651L215.119 546.278Z" fill="#4AACE9"/>
<path d="M106.193 559.733L106.66 561.172H108.173L106.949 562.062L107.417 563.501L106.193 562.611L104.969 563.501L105.436 562.062L104.212 561.172H105.725L106.193 559.733Z" fill="#4AACE9"/>
<path d="M197.017 522.57L197.736 524.784H200.064L198.181 526.152L198.9 528.366L197.017 526.998L195.134 528.366L195.853 526.152L193.97 524.784H196.298L197.017 522.57Z" fill="#4AACE9"/>
<path d="M132.784 496.3L133.251 497.739H134.764L133.54 498.628L134.008 500.067L132.784 499.178L131.56 500.067L132.027 498.628L130.803 497.739H132.316L132.784 496.3Z" fill="#4AACE9"/>
</svg>
