<svg width="1440" height="873" viewBox="0 0 1440 873" fill="none" xmlns="http://www.w3.org/2000/svg">
<rect width="1440" height="810" fill="#0E378F"/>
<path d="M581 663.764H1011.6L1448 873H1059.5L581 663.764Z" fill="#10295C"/>
<rect x="786.975" y="196.671" width="55.6196" height="48.7367" fill="#C6E3F5"/>
<rect x="751.54" y="245.408" width="63.2449" height="65.8848" fill="white" fill-opacity="0.5"/>
<rect x="814.785" y="245.408" width="63.2449" height="65.8848" fill="#10295C"/>
<rect x="736.289" y="305.878" width="141.74" height="43.7727" fill="#2482BC"/>
<path d="M734.943 327.99H827.568" stroke="white" stroke-width="2.70016"/>
<path d="M815.906 272.484L878.478 272.484" stroke="white" stroke-width="2.70016"/>
<path d="M786.975 217.881L842.594 217.881" stroke="white" stroke-width="2.70016"/>
<path d="M782.938 308.134V347.619" stroke="white" stroke-width="2.70016"/>
<path d="M845.734 245.408L845.734 303.17" stroke="white" stroke-width="2.70016"/>
<path d="M814.785 200.733L814.785 246.31" stroke="white" stroke-width="2.70016"/>
<path d="M788.996 331.599L783.595 328.061M782.844 327.569L776.692 323.538C773.584 321.667 776.12 316.49 780.398 319.363C784.47 322.099 784.005 325.697 782.844 327.569ZM782.844 327.569L776.692 331.599M782.844 327.569L783.595 328.061M782.844 327.569C783.094 324.833 784.697 319.795 787.513 319.363C791.384 318.77 791.472 321.607 790.478 323.538C789.588 325.266 785.889 327.273 783.595 328.061" stroke="white" stroke-width="2.70016"/>
<path d="M851.791 276.094L846.391 272.555M845.64 272.063L839.488 268.033C836.38 266.161 838.916 260.984 843.194 263.858C847.266 266.593 846.801 270.192 845.64 272.063ZM845.64 272.063L839.488 276.094M845.64 272.063L846.391 272.555M845.64 272.063C845.89 269.328 847.493 264.29 850.309 263.858C854.179 263.264 854.268 266.101 853.274 268.033C852.384 269.76 848.685 271.768 846.391 272.555" stroke="white" stroke-width="2.70016"/>
<path d="M820.842 202.087L815.442 198.548M814.691 198.056L808.539 194.025C805.43 192.154 807.967 186.977 812.245 189.85C816.317 192.586 815.852 196.185 814.691 198.056ZM814.691 198.056L808.539 202.087M814.691 198.056L815.442 198.548M814.691 198.056C814.941 195.321 816.544 190.283 819.36 189.85C823.23 189.257 823.319 192.094 822.325 194.025C821.435 195.753 817.736 197.76 815.442 198.548" stroke="white" stroke-width="2.70016"/>
<mask id="mask0_725:3576" style="mask-type:alpha" maskUnits="userSpaceOnUse" x="751" y="247" width="64" height="59">
<rect x="751.091" y="247.213" width="63.2449" height="58.6645" fill="#C4C4C4"/>
</mask>
<g mask="url(#mask0_725:3576)">
<path d="M711.489 248.127L769.961 190.279" stroke="#0E378F" stroke-width="2.70016"/>
<path d="M717.719 257.037L776.191 199.188" stroke="#0E378F" stroke-width="2.70016"/>
<path d="M723.949 265.946L782.421 208.098" stroke="#0E378F" stroke-width="2.70016"/>
<path d="M730.177 274.856L788.649 217.007" stroke="#0E378F" stroke-width="2.70016"/>
<path d="M735.404 282.328L793.876 224.48" stroke="#0E378F" stroke-width="2.70016"/>
<path d="M740.829 290.088L799.302 232.239" stroke="#0E378F" stroke-width="2.70016"/>
<path d="M746.255 297.848L804.728 239.999" stroke="#0E378F" stroke-width="2.70016"/>
<path d="M751.48 305.321L809.952 247.472" stroke="#0E378F" stroke-width="2.70016"/>
<path d="M757.108 313.368L815.58 255.519" stroke="#0E378F" stroke-width="2.70016"/>
<path d="M763.337 322.278L821.81 264.429" stroke="#0E378F" stroke-width="2.70016"/>
<path d="M769.567 331.187L828.039 273.339" stroke="#0E378F" stroke-width="2.70016"/>
<path d="M775.796 340.097L834.269 282.248" stroke="#0E378F" stroke-width="2.70016"/>
<path d="M781.023 347.569L839.495 289.721" stroke="#0E378F" stroke-width="2.70016"/>
<path d="M786.449 355.329L844.921 297.48" stroke="#0E378F" stroke-width="2.70016"/>
<path d="M791.873 363.089L850.346 305.24" stroke="#0E378F" stroke-width="2.70016"/>
</g>
<mask id="mask1_725:3576" style="mask-type:alpha" maskUnits="userSpaceOnUse" x="825" y="305" width="54" height="43">
<rect x="825.55" y="305.427" width="52.4798" height="42.4189" fill="#C4C4C4"/>
</mask>
<g mask="url(#mask1_725:3576)">
<path d="M830.694 355.727L829.665 291.452" stroke="white" stroke-width="2.70016" stroke-dasharray="3.6 3.6"/>
<path d="M837.861 355.823L836.832 291.547" stroke="white" stroke-width="2.70016" stroke-dasharray="3.6 3.6"/>
<path d="M845.027 355.918L843.998 291.643" stroke="white" stroke-width="2.70016" stroke-dasharray="3.6 3.6"/>
<path d="M851.929 356.01L850.9 291.734" stroke="white" stroke-width="2.70016" stroke-dasharray="3.6 3.6"/>
<path d="M859.362 356.109L858.333 291.833" stroke="white" stroke-width="2.70016" stroke-dasharray="3.6 3.6"/>
<path d="M867.592 356.218L866.563 291.942" stroke="white" stroke-width="2.70016" stroke-dasharray="3.6 3.6"/>
<path d="M875.82 356.328L874.791 292.052" stroke="white" stroke-width="2.70016" stroke-dasharray="3.6 3.6"/>
</g>
<rect x="878.076" y="458.678" width="104.527" height="105.787" fill="white" fill-opacity="0.5"/>
<mask id="mask2_725:3576" style="mask-type:alpha" maskUnits="userSpaceOnUse" x="871" y="458" width="117" height="109">
<rect x="871.779" y="458.678" width="115.862" height="108.305" fill="#C4C4C4"/>
</mask>
<g mask="url(#mask2_725:3576)">
<path d="M802.736 460.764L910.255 354.392" stroke="#0E378F" stroke-width="3.66442"/>
<path d="M814.193 477.147L921.712 370.775" stroke="#0E378F" stroke-width="3.66442"/>
<path d="M825.647 493.53L933.166 387.158" stroke="#0E378F" stroke-width="3.66442"/>
<path d="M837.101 509.913L944.62 403.541" stroke="#0E378F" stroke-width="3.66442"/>
<path d="M846.711 523.654L954.23 417.282" stroke="#0E378F" stroke-width="3.66442"/>
<path d="M856.688 537.921L964.207 431.549" stroke="#0E378F" stroke-width="3.66442"/>
<path d="M866.665 552.191L974.185 445.819" stroke="#0E378F" stroke-width="3.66442"/>
<path d="M876.273 565.932L983.792 459.56" stroke="#0E378F" stroke-width="3.66442"/>
<path d="M886.62 580.73L994.14 474.357" stroke="#0E378F" stroke-width="3.66442"/>
<path d="M898.077 597.113L1005.6 490.741" stroke="#0E378F" stroke-width="3.66442"/>
<path d="M909.531 613.495L1017.05 507.123" stroke="#0E378F" stroke-width="3.66442"/>
<path d="M920.987 629.878L1028.51 523.506" stroke="#0E378F" stroke-width="3.66442"/>
<path d="M930.596 643.618L1038.12 537.246" stroke="#0E378F" stroke-width="3.66442"/>
<path d="M940.574 657.887L1048.09 551.515" stroke="#0E378F" stroke-width="3.66442"/>
<path d="M950.548 672.156L1058.07 565.784" stroke="#0E378F" stroke-width="3.66442"/>
</g>
<rect x="582.915" y="564.551" width="100.252" height="101.46" fill="white" fill-opacity="0.5"/>
<mask id="mask3_725:3576" style="mask-type:alpha" maskUnits="userSpaceOnUse" x="576" y="564" width="112" height="105">
<rect x="576.876" y="564.551" width="111.123" height="103.876" fill="#C4C4C4"/>
</mask>
<g mask="url(#mask3_725:3576)">
<path d="M510.656 566.552L613.778 464.53" stroke="#0E378F" stroke-width="3.66442"/>
<path d="M521.645 582.266L624.767 480.244" stroke="#0E378F" stroke-width="3.66442"/>
<path d="M532.63 597.978L635.752 495.956" stroke="#0E378F" stroke-width="3.66442"/>
<path d="M543.616 613.691L646.738 511.67" stroke="#0E378F" stroke-width="3.66442"/>
<path d="M552.833 626.87L655.955 524.848" stroke="#0E378F" stroke-width="3.66442"/>
<path d="M562.403 640.554L665.524 538.532" stroke="#0E378F" stroke-width="3.66442"/>
<path d="M571.971 654.24L675.093 552.218" stroke="#0E378F" stroke-width="3.66442"/>
<path d="M581.186 667.419L684.308 565.397" stroke="#0E378F" stroke-width="3.66442"/>
<path d="M591.111 681.611L694.232 579.59" stroke="#0E378F" stroke-width="3.66442"/>
<path d="M602.098 697.325L705.22 595.303" stroke="#0E378F" stroke-width="3.66442"/>
<path d="M613.083 713.037L716.205 611.015" stroke="#0E378F" stroke-width="3.66442"/>
<path d="M624.071 728.75L727.192 626.728" stroke="#0E378F" stroke-width="3.66442"/>
<path d="M633.287 741.928L736.409 639.906" stroke="#0E378F" stroke-width="3.66442"/>
<path d="M642.857 755.613L745.979 653.591" stroke="#0E378F" stroke-width="3.66442"/>
<path d="M652.423 769.299L755.545 667.277" stroke="#0E378F" stroke-width="3.66442"/>
</g>
<rect x="774.062" y="348.809" width="52.4732" height="53.1054" fill="white" fill-opacity="0.5"/>
<mask id="mask4_725:3576" style="mask-type:alpha" maskUnits="userSpaceOnUse" x="770" y="348" width="60" height="56">
<rect x="770.9" y="348.809" width="58.1631" height="54.3698" fill="#C4C4C4"/>
</mask>
<g mask="url(#mask4_725:3576)">
<path d="M736.241 349.856L790.216 296.457" stroke="#0E378F" stroke-width="2.70016"/>
<path d="M741.992 358.081L795.967 304.681" stroke="#0E378F" stroke-width="2.70016"/>
<path d="M747.742 366.305L801.717 312.906" stroke="#0E378F" stroke-width="2.70016"/>
<path d="M753.492 374.529L807.467 321.13" stroke="#0E378F" stroke-width="2.70016"/>
<path d="M758.316 381.427L812.291 328.028" stroke="#0E378F" stroke-width="2.70016"/>
<path d="M763.325 388.59L817.3 335.19" stroke="#0E378F" stroke-width="2.70016"/>
<path d="M768.332 395.753L822.308 342.354" stroke="#0E378F" stroke-width="2.70016"/>
<path d="M773.156 402.651L827.131 349.252" stroke="#0E378F" stroke-width="2.70016"/>
<path d="M778.351 410.08L832.326 356.68" stroke="#0E378F" stroke-width="2.70016"/>
<path d="M784.102 418.304L838.077 364.905" stroke="#0E378F" stroke-width="2.70016"/>
<path d="M789.852 426.528L843.827 373.129" stroke="#0E378F" stroke-width="2.70016"/>
<path d="M795.602 434.752L849.577 381.353" stroke="#0E378F" stroke-width="2.70016"/>
<path d="M800.427 441.65L854.402 388.251" stroke="#0E378F" stroke-width="2.70016"/>
<path d="M805.435 448.813L859.41 395.413" stroke="#0E378F" stroke-width="2.70016"/>
<path d="M810.443 455.976L864.418 402.577" stroke="#0E378F" stroke-width="2.70016"/>
</g>
<rect x="713.968" y="349.062" width="59.7693" height="52.3728" fill="#C6E3F5"/>
<path d="M713.968 371.854L773.737 371.854" stroke="white" stroke-width="2.70016"/>
<path d="M743.853 353.427L743.853 402.405" stroke="white" stroke-width="2.70016"/>
<path d="M750.362 354.882L744.559 351.079M743.752 350.55L737.141 346.219C733.8 344.208 736.526 338.644 741.123 341.732C745.499 344.672 744.999 348.539 743.752 350.55ZM743.752 350.55L737.141 354.882M743.752 350.55L744.559 351.079M743.752 350.55C744.021 347.611 745.743 342.197 748.769 341.732C752.928 341.094 753.024 344.143 751.955 346.219C750.999 348.075 747.024 350.232 744.559 351.079" stroke="white" stroke-width="2.70016"/>
<rect x="827.134" y="349.808" width="105.285" height="109.018" fill="#4AACE9"/>
<path d="M880.149 349.808L880.149 458.826" stroke="white" stroke-width="2.70016"/>
<path d="M888.74 400.583L879.75 394.728M878.5 393.914L868.259 387.244C863.084 384.148 867.307 375.581 874.428 380.336C881.207 384.863 880.433 390.817 878.5 393.914ZM878.5 393.914L868.259 400.583M878.5 393.914L879.75 394.728M878.5 393.914C878.916 389.388 881.584 381.051 886.273 380.336C892.716 379.354 892.863 384.048 891.208 387.244C889.727 390.103 883.569 393.424 879.75 394.728" stroke="white" stroke-width="2.70016"/>
<rect x="754.92" y="510.616" width="62.9248" height="52.9368" fill="#10295C"/>
<mask id="mask5_725:3576" style="mask-type:alpha" maskUnits="userSpaceOnUse" x="751" y="509" width="65" height="55">
<rect x="751.923" y="509.617" width="63.9236" height="53.944" fill="#C4C4C4"/>
</mask>
<g mask="url(#mask5_725:3576)">
<path d="M758.188 573.585L756.935 491.846" stroke="white" stroke-width="2.60413" stroke-dasharray="3.47 3.47"/>
<path d="M766.917 573.706L765.664 491.967" stroke="white" stroke-width="2.60413" stroke-dasharray="3.47 3.47"/>
<path d="M775.647 573.828L774.394 492.088" stroke="white" stroke-width="2.60413" stroke-dasharray="3.47 3.47"/>
<path d="M784.053 573.944L782.8 492.205" stroke="white" stroke-width="2.60413" stroke-dasharray="3.47 3.47"/>
<path d="M793.107 574.07L791.854 492.331" stroke="white" stroke-width="2.60413" stroke-dasharray="3.47 3.47"/>
<path d="M803.131 574.208L801.878 492.469" stroke="white" stroke-width="2.60413" stroke-dasharray="3.47 3.47"/>
<path d="M813.153 574.349L811.9 492.609" stroke="white" stroke-width="2.60413" stroke-dasharray="3.47 3.47"/>
</g>
<rect x="680.009" y="401.368" width="147.502" height="63.303" fill="#10295C"/>
<path d="M680.63 433.019H828.958" stroke="white" stroke-width="2.70016"/>
<path d="M757.586 400.747V464.05" stroke="white" stroke-width="2.70016"/>
<path d="M766.811 438.604L758.271 432.899M757.083 432.105L747.356 425.606C742.44 422.589 746.451 414.241 753.216 418.875C759.655 423.285 758.919 429.088 757.083 432.105ZM757.083 432.105L747.356 438.604M757.083 432.105L758.271 432.899M757.083 432.105C757.479 427.695 760.013 419.571 764.467 418.875C770.587 417.918 770.727 422.492 769.155 425.606C767.748 428.392 761.899 431.628 758.271 432.899" stroke="white" stroke-width="2.70016"/>
<rect x="634.063" y="459.033" width="120.217" height="104.705" fill="#C6E3F5"/>
<path d="M694.172 467.759L694.172 565.677" stroke="white" stroke-width="2.70016"/>
<path d="M707.265 470.667L695.592 463.064M693.969 462.007L680.673 453.348C673.954 449.327 679.436 438.205 688.683 444.379C697.484 450.256 696.479 457.987 693.969 462.007ZM693.969 462.007L680.673 470.667M693.969 462.007L695.592 463.064M693.969 462.007C694.51 456.131 697.974 445.307 704.061 444.379C712.427 443.103 712.618 449.198 710.469 453.348C708.547 457.059 700.551 461.372 695.592 463.064" stroke="white" stroke-width="2.70016"/>
<path d="M634.063 504.599L754.28 504.599" stroke="white" stroke-width="2.70016"/>
<rect x="753.921" y="458.678" width="123.852" height="53.2564" fill="#2482BC"/>
<path d="M753.921 485.353H877.344" stroke="white" stroke-width="3.34819"/>
<path d="M817.874 458.895V511.51" stroke="white" stroke-width="3.34819"/>
<path d="M825.947 490.163L818.75 485.448M817.75 484.792L809.553 479.421C805.41 476.928 808.79 470.029 814.491 473.859C819.917 477.504 819.297 482.299 817.75 484.792ZM817.75 484.792L809.553 490.163M817.75 484.792L818.75 485.448M817.75 484.792C818.083 481.148 820.219 474.434 823.972 473.859C829.129 473.067 829.247 476.848 827.922 479.421C826.737 481.723 821.808 484.398 818.75 485.448" stroke="white" stroke-width="3.34819"/>
<rect x="780.889" y="563.553" width="239.714" height="101.878" fill="#2482BC"/>
<path d="M781.888 614.492H1020.6" stroke="white" stroke-width="2.70016"/>
<path d="M905.739 562.554V664.432" stroke="white" stroke-width="2.70016"/>
<path d="M920.585 623.481L906.842 614.299M904.93 613.022L889.275 602.562C881.364 597.706 887.819 584.272 898.706 591.729C909.069 598.827 907.885 608.165 904.93 613.022ZM904.93 613.022L889.275 623.481M904.93 613.022L906.842 614.299M904.93 613.022C905.567 605.924 909.646 592.85 916.813 591.729C926.663 590.188 926.888 597.55 924.358 602.562C922.094 607.045 912.68 612.254 906.842 614.299" stroke="white" stroke-width="2.70016"/>
<rect x="682.655" y="563.835" width="98.5324" height="102.026" fill="#4AACE9"/>
<path d="M684.402 605.764L781.887 605.764" stroke="white" stroke-width="2.70016"/>
<path d="M732.271 563.835L732.271 665.861" stroke="white" stroke-width="2.70016"/>
<path d="M740.311 611.354L731.897 605.874M730.727 605.112L721.143 598.87C716.3 595.972 720.252 587.955 726.916 592.405C733.261 596.641 732.536 602.214 730.727 605.112ZM730.727 605.112L721.143 611.354M730.727 605.112L731.897 605.874M730.727 605.112C731.117 600.877 733.613 593.074 738.001 592.405C744.031 591.486 744.169 595.879 742.62 598.87C741.234 601.546 735.471 604.654 731.897 605.874" stroke="white" stroke-width="2.70016"/>
<rect x="817.844" y="511.868" width="59.7693" height="52.3728" fill="#C6E3F5"/>
<path d="M817.844 534.66L877.613 534.66" stroke="white" stroke-width="2.70016"/>
<path d="M847.729 516.232L847.729 565.211" stroke="white" stroke-width="2.70016"/>
<path d="M854.238 517.687L848.435 513.885M847.628 513.356L841.017 509.024C837.676 507.013 840.402 501.45 844.999 504.538C849.375 507.478 848.875 511.345 847.628 513.356ZM847.628 513.356L841.017 517.687M847.628 513.356L848.435 513.885M847.628 513.356C847.897 510.417 849.619 505.002 852.645 504.538C856.804 503.9 856.9 506.949 855.831 509.024C854.875 510.881 850.9 513.038 848.435 513.885" stroke="white" stroke-width="2.70016"/>
<path d="M689.452 277.783L692.003 285.682H700.259L693.58 290.564L696.131 298.464L689.452 293.582L682.773 298.464L685.324 290.564L678.645 285.682H686.901L689.452 277.783Z" fill="#4AACE9"/>
<path d="M952.871 375.444L954.167 379.432H958.36L954.968 381.896L956.264 385.884L952.871 383.419L949.479 385.884L950.775 381.896L947.383 379.432H951.576L952.871 375.444Z" fill="#4AACE9"/>
<path d="M651.01 412.733L652.306 416.72H656.499L653.107 419.185L654.402 423.172L651.01 420.708L647.618 423.172L648.914 419.185L645.522 416.72H649.714L651.01 412.733Z" fill="#4AACE9"/>
<path d="M902.709 309.745L904.703 315.879H911.153L905.935 319.671L907.928 325.806L902.709 322.014L897.491 325.806L899.484 319.671L894.266 315.879H900.716L902.709 309.745Z" fill="#4AACE9"/>
<path d="M724.7 236.943L725.995 240.93H730.188L726.796 243.395L728.092 247.382L724.7 244.918L721.308 247.382L722.603 243.395L719.211 240.93H723.404L724.7 236.943Z" fill="#4AACE9"/>
<path opacity="0.3" d="M-1.99988 825.803C-1.99988 833.02 3.82717 838.871 11.0152 838.871C18.2032 838.871 24.0303 833.02 24.0303 825.803C24.0303 818.585 18.2032 812.734 11.0152 812.734C3.82717 812.734 -1.99988 818.585 -1.99988 825.803Z" fill="white" fill-opacity="0.3"/>
<path d="M30.5372 825.803C30.5372 833.02 36.3643 838.871 43.5523 838.871C50.7403 838.871 56.5674 833.02 56.5674 825.803C56.5674 818.585 50.7403 812.734 43.5523 812.734C36.3643 812.734 30.5372 818.585 30.5372 825.803Z" fill="white"/>
<path opacity="0.3" d="M63.0753 825.802C63.0753 833.02 68.9024 838.871 76.0904 838.871C83.2784 838.871 89.1055 833.02 89.1055 825.802C89.1055 818.585 83.2784 812.734 76.0904 812.734C68.9024 812.734 63.0753 818.585 63.0753 825.802Z" fill="white" fill-opacity="0.3"/>
<path opacity="0.3" d="M63.0753 793.132C63.0753 800.349 68.9024 806.2 76.0904 806.2C83.2784 806.2 89.1055 800.349 89.1055 793.132C89.1055 785.914 83.2784 780.063 76.0904 780.063C68.9024 780.063 63.0753 785.914 63.0753 793.132Z" fill="white" fill-opacity="0.3"/>
<path d="M30.3282 793.132C30.3282 800.349 36.1553 806.2 43.3433 806.2C50.5314 806.2 56.3584 800.349 56.3584 793.132C56.3584 785.914 50.5314 780.063 43.3433 780.063C36.1553 780.063 30.3282 785.914 30.3282 793.132Z" fill="white" fill-opacity="0.3"/>
<path d="M63.0753 760.461C63.0753 767.678 68.9024 773.529 76.0904 773.529C83.2784 773.529 89.1055 767.678 89.1055 760.461C89.1055 753.244 83.2784 747.393 76.0904 747.393C68.9024 747.393 63.0753 753.244 63.0753 760.461Z" fill="white" fill-opacity="0.3"/>
<path opacity="0.3" d="M30.3282 760.461C30.3282 767.678 36.1553 773.529 43.3433 773.529C50.5314 773.529 56.3584 767.678 56.3584 760.461C56.3584 753.244 50.5314 747.393 43.3433 747.393C36.1553 747.393 30.3282 753.244 30.3282 760.461Z" fill="white" fill-opacity="0.3"/>
<path d="M160.688 760.461C160.688 767.678 166.515 773.529 173.703 773.529C180.891 773.529 186.718 767.678 186.718 760.461C186.718 753.244 180.891 747.393 173.703 747.393C166.515 747.393 160.688 753.244 160.688 760.461Z" fill="white"/>
<path d="M257.871 760.461C257.871 767.678 263.698 773.529 270.886 773.529C278.074 773.529 283.901 767.678 283.901 760.461C283.901 753.244 278.074 747.393 270.886 747.393C263.698 747.393 257.871 753.244 257.871 760.461Z" fill="white" fill-opacity="0.3"/>
<path d="M387.186 760.461C387.186 767.678 393.013 773.529 400.201 773.529C407.389 773.529 413.216 767.678 413.216 760.461C413.216 753.244 407.389 747.393 400.201 747.393C393.013 747.393 387.186 753.244 387.186 760.461Z" fill="white"/>
<path d="M451.843 760.461C451.843 767.678 457.67 773.529 464.858 773.529C472.046 773.529 477.873 767.678 477.873 760.461C477.873 753.244 472.046 747.393 464.858 747.393C457.67 747.393 451.843 753.244 451.843 760.461Z" fill="white" fill-opacity="0.3"/>
<path d="M613.484 760.461C613.484 767.678 619.312 773.529 626.5 773.529C633.688 773.529 639.515 767.678 639.515 760.461C639.515 753.244 633.688 747.393 626.5 747.393C619.312 747.393 613.484 753.244 613.484 760.461Z" fill="white"/>
<path d="M678.142 825.933C678.142 833.151 683.969 839.002 691.157 839.002C698.345 839.002 704.172 833.151 704.172 825.933C704.172 818.716 698.345 812.865 691.157 812.865C683.969 812.865 678.142 818.716 678.142 825.933Z" fill="white"/>
<path opacity="0.3" d="M193.226 793.589C193.226 800.806 199.053 806.657 206.241 806.657C213.429 806.657 219.256 800.806 219.256 793.589C219.256 786.371 213.429 780.521 206.241 780.521C199.053 780.521 193.226 786.371 193.226 793.589Z" fill="white" fill-opacity="0.3"/>
<path opacity="0.3" d="M258.079 793.589C258.079 800.806 263.906 806.657 271.094 806.657C278.282 806.657 284.109 800.806 284.109 793.589C284.109 786.371 278.282 780.521 271.094 780.521C263.906 780.521 258.079 786.371 258.079 793.589Z" fill="white" fill-opacity="0.3"/>
<path opacity="0.3" d="M322.736 760.068C322.736 767.286 328.563 773.137 335.752 773.137C342.94 773.137 348.767 767.286 348.767 760.068C348.767 752.851 342.94 747 335.752 747C328.563 747 322.736 752.851 322.736 760.068Z" fill="white" fill-opacity="0.3"/>
<path opacity="0.3" d="M322.736 825.868C322.736 833.085 328.563 838.936 335.752 838.936C342.94 838.936 348.767 833.085 348.767 825.868C348.767 818.65 342.94 812.799 335.752 812.799C328.563 812.799 322.736 818.65 322.736 825.868Z" fill="white" fill-opacity="0.3"/>
<path opacity="0.3" d="M387.393 793.589C387.393 800.806 393.22 806.657 400.408 806.657C407.596 806.657 413.423 800.806 413.423 793.589C413.423 786.371 407.596 780.521 400.408 780.521C393.22 780.521 387.393 786.371 387.393 793.589Z" fill="white" fill-opacity="0.3"/>
<path opacity="0.3" d="M387.393 825.868C387.393 833.085 393.22 838.936 400.408 838.936C407.596 838.936 413.423 833.085 413.423 825.868C413.423 818.65 407.596 812.799 400.408 812.799C393.22 812.799 387.393 818.65 387.393 825.868Z" fill="white" fill-opacity="0.3"/>
<path opacity="0.3" d="M452.05 793.589C452.05 800.806 457.877 806.657 465.065 806.657C472.253 806.657 478.08 800.806 478.08 793.589C478.08 786.371 472.253 780.521 465.065 780.521C457.877 780.521 452.05 786.371 452.05 793.589Z" fill="white" fill-opacity="0.3"/>
<path opacity="0.3" d="M484.171 793.589C484.171 800.806 489.998 806.657 497.186 806.657C504.374 806.657 510.201 800.806 510.201 793.589C510.201 786.371 504.374 780.521 497.186 780.521C489.998 780.521 484.171 786.371 484.171 793.589Z" fill="white" fill-opacity="0.3"/>
<path d="M516.707 793.589C516.707 800.806 522.534 806.657 529.722 806.657C536.91 806.657 542.737 800.806 542.737 793.589C542.737 786.371 536.91 780.521 529.722 780.521C522.534 780.521 516.707 786.371 516.707 793.589Z" fill="white" fill-opacity="0.3"/>
<path opacity="0.3" d="M581.365 825.868C581.365 833.085 587.192 838.936 594.38 838.936C601.568 838.936 607.396 833.085 607.396 825.868C607.396 818.65 601.568 812.799 594.38 812.799C587.192 812.799 581.365 818.65 581.365 825.868Z" fill="white" fill-opacity="0.3"/>
<path opacity="0.3" d="M613.485 793.589C613.485 800.806 619.313 806.657 626.501 806.657C633.689 806.657 639.516 800.806 639.516 793.589C639.516 786.371 633.689 780.521 626.501 780.521C619.313 780.521 613.485 786.371 613.485 793.589Z" fill="white" fill-opacity="0.3"/>
<path d="M645.814 793.589C645.814 800.806 651.641 806.657 658.829 806.657C666.017 806.657 671.844 800.806 671.844 793.589C671.844 786.371 666.017 780.521 658.829 780.521C651.641 780.521 645.814 786.371 645.814 793.589Z" fill="white" fill-opacity="0.3"/>
<path d="M95.6124 825.803C95.6124 833.02 101.439 838.871 108.628 838.871C115.816 838.871 121.643 833.02 121.643 825.803C121.643 818.585 115.816 812.734 108.628 812.734C101.439 812.734 95.6124 818.585 95.6124 825.803Z" fill="white" fill-opacity="0.3"/>
<path opacity="0.3" d="M95.6124 793.132C95.6124 800.349 101.439 806.2 108.628 806.2C115.816 806.2 121.643 800.349 121.643 793.132C121.643 785.914 115.816 780.063 108.628 780.063C101.439 780.063 95.6124 785.914 95.6124 793.132Z" fill="white" fill-opacity="0.3"/>
<path opacity="0.3" d="M160.688 825.803C160.688 833.02 166.515 838.871 173.703 838.871C180.891 838.871 186.718 833.02 186.718 825.803C186.718 818.585 180.891 812.734 173.703 812.734C166.515 812.734 160.688 818.585 160.688 825.803Z" fill="white" fill-opacity="0.3"/>
<path d="M257.871 825.803C257.871 833.02 263.698 838.871 270.886 838.871C278.074 838.871 283.901 833.02 283.901 825.803C283.901 818.585 278.074 812.734 270.886 812.734C263.698 812.734 257.871 818.585 257.871 825.803Z" fill="white"/>
<path opacity="0.3" d="M290.198 793.589C290.198 800.806 296.025 806.657 303.213 806.657C310.401 806.657 316.229 800.806 316.229 793.589C316.229 786.371 310.401 780.521 303.213 780.521C296.025 780.521 290.198 786.371 290.198 793.589Z" fill="white" fill-opacity="0.3"/>
<path opacity="0.3" d="M354.856 825.803C354.856 833.02 360.683 838.871 367.871 838.871C375.059 838.871 380.886 833.02 380.886 825.803C380.886 818.585 375.059 812.734 367.871 812.734C360.683 812.734 354.856 818.585 354.856 825.803Z" fill="white" fill-opacity="0.3"/>
<path opacity="0.3" d="M419.513 825.803C419.513 833.02 425.34 838.871 432.528 838.871C439.716 838.871 445.543 833.02 445.543 825.803C445.543 818.585 439.716 812.734 432.528 812.734C425.34 812.734 419.513 818.585 419.513 825.803Z" fill="white" fill-opacity="0.3"/>
<path opacity="0.3" d="M484.17 825.803C484.17 833.02 489.997 838.871 497.185 838.871C504.373 838.871 510.2 833.02 510.2 825.803C510.2 818.585 504.373 812.734 497.185 812.734C489.997 812.734 484.17 818.585 484.17 825.803Z" fill="white" fill-opacity="0.3"/>
<path opacity="0.3" d="M516.499 825.803C516.499 833.02 522.326 838.871 529.514 838.871C536.702 838.871 542.529 833.02 542.529 825.803C542.529 818.585 536.702 812.734 529.514 812.734C522.326 812.734 516.499 818.585 516.499 825.803Z" fill="white" fill-opacity="0.3"/>
<path opacity="0.3" d="M516.499 760.068C516.499 767.286 522.326 773.137 529.514 773.137C536.702 773.137 542.529 767.286 542.529 760.068C542.529 752.851 536.702 747 529.514 747C522.326 747 516.499 752.851 516.499 760.068Z" fill="white" fill-opacity="0.3"/>
<path opacity="0.3" d="M678.142 760.068C678.142 767.286 683.969 773.137 691.157 773.137C698.345 773.137 704.172 767.286 704.172 760.068C704.172 752.851 698.345 747 691.157 747C683.969 747 678.142 752.851 678.142 760.068Z" fill="white" fill-opacity="0.3"/>
<path opacity="0.3" d="M548.827 793.589C548.827 800.806 554.654 806.657 561.842 806.657C569.03 806.657 574.857 800.806 574.857 793.589C574.857 786.371 569.03 780.521 561.842 780.521C554.654 780.521 548.827 786.371 548.827 793.589Z" fill="white" fill-opacity="0.3"/>
<path opacity="0.3" d="M710.47 793.589C710.47 800.806 716.297 806.657 723.485 806.657C730.673 806.657 736.5 800.806 736.5 793.589C736.5 786.371 730.673 780.521 723.485 780.521C716.297 780.521 710.47 786.371 710.47 793.589Z" fill="white" fill-opacity="0.3"/>
<path opacity="0.3" d="M678.142 793.589C678.142 800.806 683.969 806.657 691.157 806.657C698.345 806.657 704.172 800.806 704.172 793.589C704.172 786.371 698.345 780.521 691.157 780.521C683.969 780.521 678.142 786.371 678.142 793.589Z" fill="white" fill-opacity="0.3"/>
<path opacity="0.3" d="M736.5 825.803C736.5 833.02 742.327 838.871 749.515 838.871C756.703 838.871 762.53 833.02 762.53 825.803C762.53 818.585 756.703 812.734 749.515 812.734C742.327 812.734 736.5 818.585 736.5 825.803Z" fill="white" fill-opacity="0.3"/>
<path d="M769.037 825.803C769.037 833.02 774.864 838.871 782.052 838.871C789.24 838.871 795.067 833.02 795.067 825.803C795.067 818.585 789.24 812.734 782.052 812.734C774.864 812.734 769.037 818.585 769.037 825.803Z" fill="white"/>
<path opacity="0.3" d="M801.575 825.802C801.575 833.02 807.402 838.871 814.59 838.871C821.778 838.871 827.605 833.02 827.605 825.802C827.605 818.585 821.778 812.734 814.59 812.734C807.402 812.734 801.575 818.585 801.575 825.802Z" fill="white" fill-opacity="0.3"/>
<path opacity="0.3" d="M801.575 793.132C801.575 800.349 807.402 806.2 814.59 806.2C821.778 806.2 827.605 800.349 827.605 793.132C827.605 785.914 821.778 780.063 814.59 780.063C807.402 780.063 801.575 785.914 801.575 793.132Z" fill="white" fill-opacity="0.3"/>
<path d="M768.828 793.132C768.828 800.349 774.655 806.2 781.843 806.2C789.031 806.2 794.858 800.349 794.858 793.132C794.858 785.914 789.031 780.063 781.843 780.063C774.655 780.063 768.828 785.914 768.828 793.132Z" fill="white" fill-opacity="0.3"/>
<path d="M801.575 760.461C801.575 767.678 807.402 773.529 814.59 773.529C821.778 773.529 827.605 767.678 827.605 760.461C827.605 753.244 821.778 747.393 814.59 747.393C807.402 747.393 801.575 753.244 801.575 760.461Z" fill="white" fill-opacity="0.3"/>
<path opacity="0.3" d="M768.828 760.461C768.828 767.678 774.655 773.529 781.843 773.529C789.031 773.529 794.858 767.678 794.858 760.461C794.858 753.244 789.031 747.393 781.843 747.393C774.655 747.393 768.828 753.244 768.828 760.461Z" fill="white" fill-opacity="0.3"/>
<path d="M899.188 760.461C899.188 767.678 905.015 773.529 912.203 773.529C919.391 773.529 925.218 767.678 925.218 760.461C925.218 753.244 919.391 747.393 912.203 747.393C905.015 747.393 899.188 753.244 899.188 760.461Z" fill="white"/>
<path d="M996.371 760.461C996.371 767.678 1002.2 773.529 1009.39 773.529C1016.57 773.529 1022.4 767.678 1022.4 760.461C1022.4 753.244 1016.57 747.393 1009.39 747.393C1002.2 747.393 996.371 753.244 996.371 760.461Z" fill="white" fill-opacity="0.3"/>
<path d="M1125.69 760.461C1125.69 767.678 1131.51 773.529 1138.7 773.529C1145.89 773.529 1151.72 767.678 1151.72 760.461C1151.72 753.244 1145.89 747.393 1138.7 747.393C1131.51 747.393 1125.69 753.244 1125.69 760.461Z" fill="white"/>
<path d="M1190.34 760.461C1190.34 767.678 1196.17 773.529 1203.36 773.529C1210.55 773.529 1216.37 767.678 1216.37 760.461C1216.37 753.244 1210.55 747.393 1203.36 747.393C1196.17 747.393 1190.34 753.244 1190.34 760.461Z" fill="white" fill-opacity="0.3"/>
<path d="M1351.98 760.461C1351.98 767.678 1357.81 773.529 1365 773.529C1372.19 773.529 1378.01 767.678 1378.01 760.461C1378.01 753.244 1372.19 747.393 1365 747.393C1357.81 747.393 1351.98 753.244 1351.98 760.461Z" fill="white"/>
<path d="M1416.64 825.933C1416.64 833.151 1422.47 839.002 1429.66 839.002C1436.84 839.002 1442.67 833.151 1442.67 825.933C1442.67 818.716 1436.84 812.865 1429.66 812.865C1422.47 812.865 1416.64 818.716 1416.64 825.933Z" fill="white"/>
<path opacity="0.3" d="M931.726 793.589C931.726 800.806 937.553 806.657 944.741 806.657C951.929 806.657 957.756 800.806 957.756 793.589C957.756 786.371 951.929 780.521 944.741 780.521C937.553 780.521 931.726 786.371 931.726 793.589Z" fill="white" fill-opacity="0.3"/>
<path opacity="0.3" d="M996.579 793.589C996.579 800.806 1002.41 806.657 1009.59 806.657C1016.78 806.657 1022.61 800.806 1022.61 793.589C1022.61 786.371 1016.78 780.521 1009.59 780.521C1002.41 780.521 996.579 786.371 996.579 793.589Z" fill="white" fill-opacity="0.3"/>
<path opacity="0.3" d="M1061.24 760.068C1061.24 767.286 1067.06 773.137 1074.25 773.137C1081.44 773.137 1087.27 767.286 1087.27 760.068C1087.27 752.851 1081.44 747 1074.25 747C1067.06 747 1061.24 752.851 1061.24 760.068Z" fill="white" fill-opacity="0.3"/>
<path opacity="0.3" d="M1061.24 825.868C1061.24 833.085 1067.06 838.936 1074.25 838.936C1081.44 838.936 1087.27 833.085 1087.27 825.868C1087.27 818.65 1081.44 812.799 1074.25 812.799C1067.06 812.799 1061.24 818.65 1061.24 825.868Z" fill="white" fill-opacity="0.3"/>
<path opacity="0.3" d="M1125.89 793.589C1125.89 800.806 1131.72 806.657 1138.91 806.657C1146.1 806.657 1151.92 800.806 1151.92 793.589C1151.92 786.371 1146.1 780.521 1138.91 780.521C1131.72 780.521 1125.89 786.371 1125.89 793.589Z" fill="white" fill-opacity="0.3"/>
<path opacity="0.3" d="M1125.89 825.868C1125.89 833.085 1131.72 838.936 1138.91 838.936C1146.1 838.936 1151.92 833.085 1151.92 825.868C1151.92 818.65 1146.1 812.799 1138.91 812.799C1131.72 812.799 1125.89 818.65 1125.89 825.868Z" fill="white" fill-opacity="0.3"/>
<path opacity="0.3" d="M1190.55 793.589C1190.55 800.806 1196.38 806.657 1203.57 806.657C1210.75 806.657 1216.58 800.806 1216.58 793.589C1216.58 786.371 1210.75 780.521 1203.57 780.521C1196.38 780.521 1190.55 786.371 1190.55 793.589Z" fill="white" fill-opacity="0.3"/>
<path opacity="0.3" d="M1222.67 793.589C1222.67 800.806 1228.5 806.657 1235.69 806.657C1242.87 806.657 1248.7 800.806 1248.7 793.589C1248.7 786.371 1242.87 780.521 1235.69 780.521C1228.5 780.521 1222.67 786.371 1222.67 793.589Z" fill="white" fill-opacity="0.3"/>
<path d="M1255.21 793.589C1255.21 800.806 1261.03 806.657 1268.22 806.657C1275.41 806.657 1281.24 800.806 1281.24 793.589C1281.24 786.371 1275.41 780.521 1268.22 780.521C1261.03 780.521 1255.21 786.371 1255.21 793.589Z" fill="white" fill-opacity="0.3"/>
<path opacity="0.3" d="M1319.87 825.868C1319.87 833.085 1325.69 838.936 1332.88 838.936C1340.07 838.936 1345.9 833.085 1345.9 825.868C1345.9 818.65 1340.07 812.799 1332.88 812.799C1325.69 812.799 1319.87 818.65 1319.87 825.868Z" fill="white" fill-opacity="0.3"/>
<path opacity="0.3" d="M1351.99 793.589C1351.99 800.806 1357.81 806.657 1365 806.657C1372.19 806.657 1378.02 800.806 1378.02 793.589C1378.02 786.371 1372.19 780.521 1365 780.521C1357.81 780.521 1351.99 786.371 1351.99 793.589Z" fill="white" fill-opacity="0.3"/>
<path d="M1384.31 793.589C1384.31 800.806 1390.14 806.657 1397.33 806.657C1404.52 806.657 1410.34 800.806 1410.34 793.589C1410.34 786.371 1404.52 780.521 1397.33 780.521C1390.14 780.521 1384.31 786.371 1384.31 793.589Z" fill="white" fill-opacity="0.3"/>
<path d="M834.112 825.803C834.112 833.02 839.939 838.871 847.128 838.871C854.316 838.871 860.143 833.02 860.143 825.803C860.143 818.585 854.316 812.734 847.128 812.734C839.939 812.734 834.112 818.585 834.112 825.803Z" fill="white" fill-opacity="0.3"/>
<path opacity="0.3" d="M834.112 793.132C834.112 800.349 839.939 806.2 847.128 806.2C854.316 806.2 860.143 800.349 860.143 793.132C860.143 785.914 854.316 780.063 847.128 780.063C839.939 780.063 834.112 785.914 834.112 793.132Z" fill="white" fill-opacity="0.3"/>
<path opacity="0.3" d="M899.188 825.803C899.188 833.02 905.015 838.871 912.203 838.871C919.391 838.871 925.218 833.02 925.218 825.803C925.218 818.585 919.391 812.734 912.203 812.734C905.015 812.734 899.188 818.585 899.188 825.803Z" fill="white" fill-opacity="0.3"/>
<path d="M996.371 825.803C996.371 833.02 1002.2 838.871 1009.39 838.871C1016.57 838.871 1022.4 833.02 1022.4 825.803C1022.4 818.585 1016.57 812.734 1009.39 812.734C1002.2 812.734 996.371 818.585 996.371 825.803Z" fill="white"/>
<path opacity="0.3" d="M1028.7 793.589C1028.7 800.806 1034.53 806.657 1041.71 806.657C1048.9 806.657 1054.73 800.806 1054.73 793.589C1054.73 786.371 1048.9 780.521 1041.71 780.521C1034.53 780.521 1028.7 786.371 1028.7 793.589Z" fill="white" fill-opacity="0.3"/>
<path opacity="0.3" d="M1093.36 825.803C1093.36 833.02 1099.18 838.871 1106.37 838.871C1113.56 838.871 1119.39 833.02 1119.39 825.803C1119.39 818.585 1113.56 812.734 1106.37 812.734C1099.18 812.734 1093.36 818.585 1093.36 825.803Z" fill="white" fill-opacity="0.3"/>
<path opacity="0.3" d="M1158.01 825.803C1158.01 833.02 1163.84 838.871 1171.03 838.871C1178.22 838.871 1184.04 833.02 1184.04 825.803C1184.04 818.585 1178.22 812.734 1171.03 812.734C1163.84 812.734 1158.01 818.585 1158.01 825.803Z" fill="white" fill-opacity="0.3"/>
<path opacity="0.3" d="M1222.67 825.803C1222.67 833.02 1228.5 838.871 1235.69 838.871C1242.87 838.871 1248.7 833.02 1248.7 825.803C1248.7 818.585 1242.87 812.734 1235.69 812.734C1228.5 812.734 1222.67 818.585 1222.67 825.803Z" fill="white" fill-opacity="0.3"/>
<path opacity="0.3" d="M1255 825.803C1255 833.02 1260.83 838.871 1268.01 838.871C1275.2 838.871 1281.03 833.02 1281.03 825.803C1281.03 818.585 1275.2 812.734 1268.01 812.734C1260.83 812.734 1255 818.585 1255 825.803Z" fill="white" fill-opacity="0.3"/>
<path opacity="0.3" d="M1255 760.068C1255 767.286 1260.83 773.137 1268.01 773.137C1275.2 773.137 1281.03 767.286 1281.03 760.068C1281.03 752.851 1275.2 747 1268.01 747C1260.83 747 1255 752.851 1255 760.068Z" fill="white" fill-opacity="0.3"/>
<path opacity="0.3" d="M1416.64 760.068C1416.64 767.286 1422.47 773.137 1429.66 773.137C1436.84 773.137 1442.67 767.286 1442.67 760.068C1442.67 752.851 1436.84 747 1429.66 747C1422.47 747 1416.64 752.851 1416.64 760.068Z" fill="white" fill-opacity="0.3"/>
<path opacity="0.3" d="M1287.33 793.589C1287.33 800.806 1293.15 806.657 1300.34 806.657C1307.53 806.657 1313.36 800.806 1313.36 793.589C1313.36 786.371 1307.53 780.521 1300.34 780.521C1293.15 780.521 1287.33 786.371 1287.33 793.589Z" fill="white" fill-opacity="0.3"/>
<path opacity="0.3" d="M1416.64 793.589C1416.64 800.806 1422.47 806.657 1429.66 806.657C1436.84 806.657 1442.67 800.806 1442.67 793.589C1442.67 786.371 1436.84 780.521 1429.66 780.521C1422.47 780.521 1416.64 786.371 1416.64 793.589Z" fill="white" fill-opacity="0.3"/>
<path d="M219.663 712.277H221.155V728.161C221.155 728.514 221.15 728.866 221.14 729.218C221.14 729.56 221.093 730.627 221 732.42H221.124L229.657 712.277H231.631V735H230.139V718.696C230.139 717.39 230.201 716.033 230.325 714.624H230.201L221.606 735H219.663V712.277ZM244.081 735L238.034 714.313H237.91C238.014 716.489 238.066 717.867 238.066 718.447V735H236.605V712.277H238.858L243.956 729.653C244.412 731.187 244.707 732.492 244.842 733.57H244.966C245.07 732.803 245.391 731.508 245.93 729.684L250.981 712.277H253.313V735H251.79V718.572C251.79 717.929 251.841 716.52 251.945 714.344H251.821L245.806 735H244.081ZM266.54 735H258.302V712.277H266.54V713.738H259.825V722.364H266.166V723.825H259.825V733.539H266.54V735ZM287.864 723.607C287.864 727.348 287.346 730.234 286.31 732.265C285.284 734.295 283.797 735.311 281.849 735.311C279.932 735.311 278.455 734.332 277.419 732.373C276.383 730.415 275.855 727.565 275.834 723.825H272.073V735H270.549V712.277H272.073V722.364H275.834C276.01 715.422 278.025 711.95 281.88 711.95C283.807 711.95 285.284 712.95 286.31 714.95C287.346 716.95 287.864 719.836 287.864 723.607ZM277.419 723.607C277.419 726.985 277.797 729.539 278.554 731.27C279.31 732.99 280.409 733.85 281.849 733.85C283.3 733.85 284.398 732.985 285.144 731.254C285.89 729.513 286.263 726.965 286.263 723.607C286.263 720.219 285.89 717.675 285.144 715.976C284.408 714.266 283.32 713.411 281.88 713.411C280.409 713.411 279.295 714.277 278.538 716.007C277.792 717.727 277.419 720.26 277.419 723.607ZM295.837 735H294.314V713.738H289.791V712.277H300.36V713.738H295.837V735ZM309.546 713.38C307.836 713.38 306.473 714.287 305.458 716.1C304.453 717.903 303.95 720.406 303.95 723.607C303.95 725.69 304.184 727.503 304.65 729.047C305.116 730.591 305.784 731.778 306.655 732.606C307.525 733.435 308.535 733.85 309.686 733.85C310.867 733.85 311.882 733.637 312.732 733.213V734.611C311.924 735.078 310.862 735.311 309.546 735.311C308.105 735.311 306.841 734.845 305.753 733.912C304.676 732.979 303.842 731.632 303.251 729.871C302.66 728.099 302.365 726.001 302.365 723.576C302.365 719.95 303.007 717.1 304.292 715.028C305.588 712.955 307.349 711.919 309.577 711.919C310.965 711.919 312.178 712.241 313.214 712.883L312.514 714.22C311.644 713.66 310.654 713.38 309.546 713.38ZM320.628 725.068L316.4 735H314.675L319.198 724.851C318.058 724.55 317.167 723.866 316.524 722.799C315.882 721.721 315.561 720.39 315.561 718.805C315.561 714.453 317.524 712.277 321.451 712.277H325.15V735H323.612V725.099L320.628 725.068ZM323.612 713.676H321.684C320.068 713.676 318.908 714.075 318.203 714.872C317.509 715.67 317.162 716.955 317.162 718.727C317.162 720.447 317.488 721.711 318.141 722.519C318.794 723.328 319.835 723.732 321.265 723.732H323.612V713.676ZM347.112 735H345.589V713.738H337.662V735H336.139V712.277H347.112V735ZM361.598 718.805C361.598 721.146 361.059 722.866 359.981 723.965C358.914 725.063 357.329 725.612 355.225 725.612H353.609V735H352.086V712.277H355.194C357.412 712.277 359.033 712.8 360.059 713.847C361.085 714.893 361.598 716.546 361.598 718.805ZM353.609 724.213H355.132C356.914 724.213 358.178 723.794 358.924 722.955C359.67 722.115 360.043 720.732 360.043 718.805C360.043 716.971 359.655 715.66 358.878 714.872C358.111 714.075 356.919 713.676 355.303 713.676H353.609V724.213ZM377.482 723.607C377.482 727.369 376.917 730.26 375.788 732.28C374.669 734.301 373.047 735.311 370.923 735.311C368.778 735.311 367.152 734.295 366.043 732.265C364.934 730.223 364.38 727.327 364.38 723.576C364.38 719.66 364.929 716.743 366.027 714.826C367.126 712.909 368.773 711.95 370.97 711.95C373.084 711.95 374.695 712.961 375.804 714.981C376.923 716.991 377.482 719.867 377.482 723.607ZM365.965 723.607C365.965 726.985 366.385 729.539 367.224 731.27C368.074 732.99 369.307 733.85 370.923 733.85C372.55 733.85 373.783 732.995 374.622 731.285C375.472 729.576 375.897 727.016 375.897 723.607C375.897 720.24 375.482 717.701 374.653 715.991C373.825 714.271 372.597 713.411 370.97 713.411C369.302 713.411 368.048 714.282 367.209 716.023C366.38 717.753 365.965 720.281 365.965 723.607ZM385.487 735H383.963V713.738H379.441V712.277H390.009V713.738H385.487V735ZM392.776 712.277H394.268V728.161C394.268 728.514 394.263 728.866 394.253 729.218C394.253 729.56 394.206 730.627 394.113 732.42H394.237L402.77 712.277H404.744V735H403.252V718.696C403.252 717.39 403.314 716.033 403.438 714.624H403.314L394.719 735H392.776V712.277ZM409.717 712.277H414.069C415.852 712.277 417.219 712.733 418.173 713.645C419.136 714.556 419.618 715.903 419.618 717.686C419.618 720.763 418.494 722.525 416.245 722.97V723.094C417.54 723.364 418.504 723.944 419.136 724.835C419.768 725.716 420.084 726.949 420.084 728.534C420.084 730.565 419.634 732.151 418.732 733.29C417.831 734.43 416.566 735 414.94 735H409.717V712.277ZM411.241 722.395H414.1C415.52 722.395 416.53 722.006 417.131 721.229C417.743 720.442 418.048 719.25 418.048 717.655C418.048 716.37 417.711 715.385 417.038 714.701C416.375 714.018 415.385 713.676 414.069 713.676H411.241V722.395ZM411.241 723.794V733.601H414.738C417.245 733.601 418.499 731.902 418.499 728.503C418.499 726.99 418.131 725.83 417.395 725.022C416.66 724.203 415.629 723.794 414.302 723.794H411.241ZM436.171 723.607C436.171 727.369 435.606 730.26 434.477 732.28C433.358 734.301 431.736 735.311 429.612 735.311C427.467 735.311 425.84 734.295 424.732 732.265C423.623 730.223 423.068 727.327 423.068 723.576C423.068 719.66 423.618 716.743 424.716 714.826C425.814 712.909 427.462 711.95 429.659 711.95C431.772 711.95 433.384 712.961 434.492 714.981C435.611 716.991 436.171 719.867 436.171 723.607ZM424.654 723.607C424.654 726.985 425.073 729.539 425.913 731.27C426.762 732.99 427.995 733.85 429.612 733.85C431.239 733.85 432.472 732.995 433.311 731.285C434.161 729.576 434.585 727.016 434.585 723.607C434.585 720.24 434.171 717.701 433.342 715.991C432.513 714.271 431.285 713.411 429.659 713.411C427.99 713.411 426.737 714.282 425.897 716.023C425.068 717.753 424.654 720.281 424.654 723.607ZM451.371 735H449.848V713.738H441.922V735H440.398V712.277H451.371V735ZM468.686 723.607C468.686 727.369 468.121 730.26 466.992 732.28C465.873 734.301 464.251 735.311 462.127 735.311C459.982 735.311 458.355 734.295 457.247 732.265C456.138 730.223 455.583 727.327 455.583 723.576C455.583 719.66 456.133 716.743 457.231 714.826C458.329 712.909 459.977 711.95 462.174 711.95C464.287 711.95 465.899 712.961 467.007 714.981C468.126 716.991 468.686 719.867 468.686 723.607ZM457.169 723.607C457.169 726.985 457.588 729.539 458.428 731.27C459.277 732.99 460.51 733.85 462.127 733.85C463.754 733.85 464.987 732.995 465.826 731.285C466.676 729.576 467.1 727.016 467.1 723.607C467.1 720.24 466.686 717.701 465.857 715.991C465.028 714.271 463.8 713.411 462.174 713.411C460.505 713.411 459.252 714.282 458.412 716.023C457.583 717.753 457.169 720.281 457.169 723.607ZM474.437 723.25L480.871 712.277H482.519L476.022 723.25L483.032 735H481.275L474.437 723.374V735H472.913V712.277H474.437V723.25ZM494.129 735L492.124 726.762H486.606L484.632 735H483.047L488.518 712.277H490.088L495.683 735H494.129ZM491.767 725.224L489.762 716.753C489.554 715.8 489.394 714.898 489.28 714.049C489.186 714.95 489.041 715.852 488.845 716.753L486.902 725.224H491.767ZM506.361 728.923C506.361 730.943 505.853 732.513 504.838 733.632C503.822 734.751 502.398 735.311 500.564 735.311C499.113 735.311 497.787 735.026 496.585 734.456V732.777C497.113 733.109 497.73 733.373 498.434 733.57C499.139 733.757 499.849 733.85 500.564 733.85C503.372 733.85 504.776 732.218 504.776 728.954C504.776 727.234 504.372 725.97 503.563 725.162C502.755 724.353 501.501 723.949 499.802 723.949H498.248V722.488H499.895C501.356 722.488 502.486 722.063 503.284 721.214C504.081 720.364 504.48 719.116 504.48 717.468C504.48 716.1 504.175 715.085 503.563 714.422C502.962 713.748 502.113 713.411 501.014 713.411C500.403 713.411 499.838 713.546 499.32 713.816C498.812 714.085 498.382 714.432 498.03 714.857L497.004 713.8C498.144 712.567 499.522 711.95 501.139 711.95C502.683 711.95 503.885 712.443 504.745 713.427C505.615 714.401 506.05 715.748 506.05 717.468C506.05 718.95 505.698 720.193 504.993 721.198C504.299 722.193 503.356 722.846 502.164 723.157V723.281C503.543 723.457 504.584 724.032 505.289 725.006C506.003 725.98 506.361 727.286 506.361 728.923ZM519.432 735L517.427 726.762H511.91L509.936 735H508.35L513.821 712.277H515.391L520.986 735H519.432ZM517.07 725.224L515.065 716.753C514.858 715.8 514.697 714.898 514.583 714.049C514.49 714.95 514.345 715.852 514.148 716.753L512.205 725.224H517.07ZM534.462 735H532.939V723.825H525.012V735H523.489V712.277H525.012V722.364H532.939V712.277H534.462V735ZM539.435 712.277H540.928V728.161C540.928 728.514 540.922 728.866 540.912 729.218C540.912 729.56 540.865 730.627 540.772 732.42H540.896L549.429 712.277H551.403V735H549.911V718.696C549.911 717.39 549.973 716.033 550.098 714.624H549.973L541.378 735H539.435V712.277ZM560.511 725.068L556.284 735H554.558L559.081 724.851C557.941 724.55 557.05 723.866 556.408 722.799C555.766 721.721 555.444 720.39 555.444 718.805C555.444 714.453 557.408 712.277 561.335 712.277H565.034V735H563.495V725.099L560.511 725.068ZM563.495 713.676H561.568C559.952 713.676 558.791 714.075 558.087 714.872C557.392 715.67 557.045 716.955 557.045 718.727C557.045 720.447 557.372 721.711 558.024 722.519C558.677 723.328 559.718 723.732 561.148 723.732H563.495V713.676ZM572.308 732.171C571.624 734.503 570.764 736.813 569.728 739.103H568.749C569.526 736.461 570.044 734.031 570.303 731.814H572.09L572.308 732.171ZM593.555 735H592.031V723.825H584.105V735H582.582V712.277H584.105V722.364H592.031V712.277H593.555V735ZM606.766 735H598.528V712.277H606.766V713.738H600.051V722.364H606.393V723.825H600.051V733.539H606.766V735ZM623.117 723.607C623.117 727.369 622.552 730.26 621.422 732.28C620.303 734.301 618.682 735.311 616.558 735.311C614.413 735.311 612.786 734.295 611.677 732.265C610.569 730.223 610.014 727.327 610.014 723.576C610.014 719.66 610.563 716.743 611.662 714.826C612.76 712.909 614.408 711.95 616.604 711.95C618.718 711.95 620.329 712.961 621.438 714.981C622.557 716.991 623.117 719.867 623.117 723.607ZM611.6 723.607C611.6 726.985 612.019 729.539 612.858 731.27C613.708 732.99 614.941 733.85 616.558 733.85C618.184 733.85 619.417 732.995 620.257 731.285C621.106 729.576 621.531 727.016 621.531 723.607C621.531 720.24 621.117 717.701 620.288 715.991C619.459 714.271 618.231 713.411 616.604 713.411C614.936 713.411 613.682 714.282 612.843 716.023C612.014 717.753 611.6 720.281 611.6 723.607ZM628.867 713.738V722.364H631.292C633.323 722.364 634.82 722.872 635.784 723.887C636.758 724.892 637.245 726.472 637.245 728.628C637.245 730.617 636.716 732.176 635.659 733.306C634.613 734.435 633.167 735 631.323 735H627.344V712.277H636.219V713.738H628.867ZM628.867 733.601H631.385C632.774 733.601 633.836 733.176 634.571 732.327C635.307 731.467 635.675 730.234 635.675 728.628C635.675 726.959 635.328 725.731 634.634 724.944C633.939 724.156 632.846 723.763 631.354 723.763H628.867V733.601ZM649.073 735H647.487L644.083 724.555L640.136 735H638.597L643.353 722.939L639.265 712.277H640.866L644.239 721.727L647.518 712.277H649.073L645.063 723.281L649.073 735ZM664.242 723.607C664.242 727.369 663.677 730.26 662.548 732.28C661.429 734.301 659.807 735.311 657.683 735.311C655.538 735.311 653.911 734.295 652.803 732.265C651.694 730.223 651.14 727.327 651.14 723.576C651.14 719.66 651.689 716.743 652.787 714.826C653.886 712.909 655.533 711.95 657.73 711.95C659.844 711.95 661.455 712.961 662.564 714.981C663.683 716.991 664.242 719.867 664.242 723.607ZM652.725 723.607C652.725 726.985 653.145 729.539 653.984 731.27C654.834 732.99 656.067 733.85 657.683 733.85C659.31 733.85 660.543 732.995 661.382 731.285C662.232 729.576 662.657 727.016 662.657 723.607C662.657 720.24 662.242 717.701 661.413 715.991C660.584 714.271 659.357 713.411 657.73 713.411C656.062 713.411 654.808 714.282 653.968 716.023C653.14 717.753 652.725 720.281 652.725 723.607ZM679.925 740.735H678.464V735H667.599V740.735H666.138V733.539H667.506C668.729 729.819 669.594 726.348 670.102 723.125C670.62 719.903 670.879 716.287 670.879 712.277H677.982V733.539H679.925V740.735ZM676.459 733.539V713.738H672.417C672.19 721.043 671.076 727.643 669.076 733.539H676.459ZM683.049 712.277H684.541V728.161C684.541 728.514 684.535 728.866 684.525 729.218C684.525 729.56 684.478 730.627 684.385 732.42H684.51L693.042 712.277H695.016V735H693.524V718.696C693.524 717.39 693.586 716.033 693.711 714.624H693.586L684.991 735H683.049V712.277ZM707.466 735L701.42 714.313H701.296C701.399 716.489 701.451 717.867 701.451 718.447V735H699.99V712.277H702.244L707.342 729.653C707.797 731.187 708.093 732.492 708.227 733.57H708.352C708.455 732.803 708.777 731.508 709.315 729.684L714.367 712.277H716.698V735H715.175V718.572C715.175 717.929 715.227 716.52 715.33 714.344H715.206L709.191 735H707.466ZM734.028 723.607C734.028 727.369 733.463 730.26 732.334 732.28C731.215 734.301 729.593 735.311 727.469 735.311C725.324 735.311 723.698 734.295 722.589 732.265C721.48 730.223 720.926 727.327 720.926 723.576C720.926 719.66 721.475 716.743 722.573 714.826C723.672 712.909 725.319 711.95 727.516 711.95C729.63 711.95 731.241 712.961 732.35 714.981C733.469 716.991 734.028 719.867 734.028 723.607ZM722.511 723.607C722.511 726.985 722.931 729.539 723.77 731.27C724.62 732.99 725.853 733.85 727.469 733.85C729.096 733.85 730.329 732.995 731.168 731.285C732.018 729.576 732.443 727.016 732.443 723.607C732.443 720.24 732.028 717.701 731.199 715.991C730.37 714.271 729.143 713.411 727.516 713.411C725.848 713.411 724.594 714.282 723.755 716.023C722.926 717.753 722.511 720.281 722.511 723.607ZM755.228 735H753.705V713.738H745.778V735H744.255V712.277H755.228V735ZM769.714 718.805C769.714 721.146 769.175 722.866 768.097 723.965C767.03 725.063 765.445 725.612 763.341 725.612H761.725V735H760.202V712.277H763.31C765.528 712.277 767.149 712.8 768.175 713.847C769.201 714.893 769.714 716.546 769.714 718.805ZM761.725 724.213H763.248C765.03 724.213 766.294 723.794 767.04 722.955C767.787 722.115 768.16 720.732 768.16 718.805C768.16 716.971 767.771 715.66 766.994 714.872C766.227 714.075 765.036 713.676 763.419 713.676H761.725V724.213ZM785.598 723.607C785.598 727.369 785.034 730.26 783.904 732.28C782.785 734.301 781.163 735.311 779.039 735.311C776.894 735.311 775.268 734.295 774.159 732.265C773.05 730.223 772.496 727.327 772.496 723.576C772.496 719.66 773.045 716.743 774.143 714.826C775.242 712.909 776.889 711.95 779.086 711.95C781.2 711.95 782.811 712.961 783.92 714.981C785.039 716.991 785.598 719.867 785.598 723.607ZM774.081 723.607C774.081 726.985 774.501 729.539 775.34 731.27C776.19 732.99 777.423 733.85 779.039 733.85C780.666 733.85 781.899 732.995 782.738 731.285C783.588 729.576 784.013 727.016 784.013 723.607C784.013 720.24 783.598 717.701 782.77 715.991C781.941 714.271 780.713 713.411 779.086 713.411C777.418 713.411 776.164 714.282 775.325 716.023C774.496 717.753 774.081 720.281 774.081 723.607ZM791.349 723.25L797.784 712.277H799.431L792.934 723.25L799.944 735H798.188L791.349 723.374V735H789.826V712.277H791.349V723.25ZM814.787 723.607C814.787 727.369 814.222 730.26 813.093 732.28C811.974 734.301 810.352 735.311 808.228 735.311C806.083 735.311 804.457 734.295 803.348 732.265C802.239 730.223 801.685 727.327 801.685 723.576C801.685 719.66 802.234 716.743 803.332 714.826C804.431 712.909 806.078 711.95 808.275 711.95C810.389 711.95 812 712.961 813.109 714.981C814.228 716.991 814.787 719.867 814.787 723.607ZM803.27 723.607C803.27 726.985 803.69 729.539 804.529 731.27C805.379 732.99 806.612 733.85 808.228 733.85C809.855 733.85 811.088 732.995 811.927 731.285C812.777 729.576 813.202 727.016 813.202 723.607C813.202 720.24 812.787 717.701 811.958 715.991C811.13 714.271 809.902 713.411 808.275 713.411C806.607 713.411 805.353 714.282 804.514 716.023C803.685 717.753 803.27 720.281 803.27 723.607ZM829.988 735H828.465V723.825H820.538V735H819.015V712.277H820.538V722.364H828.465V712.277H829.988V735ZM841.38 713.38C839.671 713.38 838.308 714.287 837.293 716.1C836.288 717.903 835.785 720.406 835.785 723.607C835.785 725.69 836.018 727.503 836.485 729.047C836.951 730.591 837.619 731.778 838.49 732.606C839.36 733.435 840.37 733.85 841.52 733.85C842.702 733.85 843.717 733.637 844.567 733.213V734.611C843.758 735.078 842.696 735.311 841.38 735.311C839.94 735.311 838.676 734.845 837.588 733.912C836.51 732.979 835.676 731.632 835.086 729.871C834.495 728.099 834.2 726.001 834.2 723.576C834.2 719.95 834.842 717.1 836.127 715.028C837.422 712.955 839.184 711.919 841.412 711.919C842.8 711.919 844.012 712.241 845.049 712.883L844.349 714.22C843.479 713.66 842.489 713.38 841.38 713.38ZM850.706 728.348L845.841 712.277H847.427L850.877 723.918C850.991 724.322 851.167 725.068 851.405 726.156H851.545C851.67 725.276 851.815 724.53 851.98 723.918L854.918 712.277H856.503L851.437 731.239C851.053 732.679 850.576 733.72 850.007 734.363C849.437 734.995 848.696 735.311 847.784 735.311C847.287 735.311 846.831 735.207 846.416 735V733.57C846.872 733.757 847.318 733.85 847.753 733.85C848.271 733.85 848.706 733.622 849.058 733.166C849.411 732.7 849.737 731.933 850.038 730.866L850.706 728.348ZM868.471 735H866.948V713.738H862.487L861.881 721.136C861.436 726.524 861.068 729.918 860.778 731.316C860.487 732.715 860.089 733.715 859.581 734.316C859.083 734.917 858.343 735.218 857.358 735.218C856.882 735.218 856.493 735.124 856.193 734.938V733.508C856.431 733.674 856.788 733.757 857.265 733.757C857.607 733.757 857.892 733.689 858.12 733.555C858.358 733.42 858.571 733.161 858.757 732.777C858.954 732.384 859.125 731.824 859.27 731.099C859.425 730.374 859.57 729.42 859.705 728.239C859.85 727.058 860.332 721.737 861.151 712.277H868.471V735ZM883.345 728.628C883.345 730.617 882.817 732.176 881.76 733.306C880.713 734.435 879.268 735 877.424 735H873.445V712.277H874.968V722.364H877.393C879.423 722.364 880.921 722.872 881.884 723.887C882.858 724.892 883.345 726.472 883.345 728.628ZM874.968 733.601H877.486C878.874 733.601 879.936 733.176 880.672 732.327C881.408 731.467 881.776 730.234 881.776 728.628C881.776 726.959 881.428 725.731 880.734 724.944C880.04 724.156 878.947 723.763 877.455 723.763H874.968V733.601ZM890.806 735H889.283V713.738H884.76V712.277H895.329V713.738H890.806V735ZM898.095 712.277H899.587V728.161C899.587 728.514 899.582 728.866 899.572 729.218C899.572 729.56 899.525 730.627 899.432 732.42H899.556L908.089 712.277H910.063V735H908.571V718.696C908.571 717.39 908.633 716.033 908.757 714.624H908.633L900.038 735H898.095V712.277ZM924.549 718.805C924.549 721.146 924.01 722.866 922.932 723.965C921.865 725.063 920.28 725.612 918.176 725.612H916.56V735H915.037V712.277H918.145C920.363 712.277 921.984 712.8 923.01 713.847C924.036 714.893 924.549 716.546 924.549 718.805ZM916.56 724.213H918.083C919.865 724.213 921.129 723.794 921.875 722.955C922.621 722.115 922.994 720.732 922.994 718.805C922.994 716.971 922.606 715.66 921.829 714.872C921.062 714.075 919.87 713.676 918.254 713.676H916.56V724.213ZM940.433 723.607C940.433 727.369 939.868 730.26 938.739 732.28C937.62 734.301 935.998 735.311 933.874 735.311C931.729 735.311 930.103 734.295 928.994 732.265C927.885 730.223 927.331 727.327 927.331 723.576C927.331 719.66 927.88 716.743 928.978 714.826C930.077 712.909 931.724 711.95 933.921 711.95C936.035 711.95 937.646 712.961 938.755 714.981C939.874 716.991 940.433 719.867 940.433 723.607ZM928.916 723.607C928.916 726.985 929.336 729.539 930.175 731.27C931.025 732.99 932.258 733.85 933.874 733.85C935.501 733.85 936.734 732.995 937.573 731.285C938.423 729.576 938.848 727.016 938.848 723.607C938.848 720.24 938.433 717.701 937.604 715.991C936.775 714.271 935.548 713.411 933.921 713.411C932.253 713.411 930.999 714.282 930.159 716.023C929.331 717.753 928.916 720.281 928.916 723.607ZM944.661 712.277H949.013C950.795 712.277 952.163 712.733 953.116 713.645C954.079 714.556 954.561 715.903 954.561 717.686C954.561 720.763 953.437 722.525 951.189 722.97V723.094C952.484 723.364 953.447 723.944 954.079 724.835C954.712 725.716 955.028 726.949 955.028 728.534C955.028 730.565 954.577 732.151 953.675 733.29C952.774 734.43 951.51 735 949.883 735H944.661V712.277ZM946.184 722.395H949.044C950.463 722.395 951.474 722.006 952.074 721.229C952.686 720.442 952.991 719.25 952.991 717.655C952.991 716.37 952.655 715.385 951.981 714.701C951.318 714.018 950.329 713.676 949.013 713.676H946.184V722.395ZM946.184 723.794V733.601H949.681C952.188 733.601 953.442 731.902 953.442 728.503C953.442 726.99 953.074 725.83 952.339 725.022C951.603 724.203 950.572 723.794 949.246 723.794H946.184ZM967.368 735L965.363 726.762H959.846L957.872 735H956.286L961.757 712.277H963.327L968.923 735H967.368ZM965.006 725.224L963.001 716.753C962.794 715.8 962.633 714.898 962.519 714.049C962.426 714.95 962.281 715.852 962.084 716.753L960.141 725.224H965.006ZM975.202 735H973.679V713.738H969.156V712.277H979.725V713.738H975.202V735ZM992.392 728.628C992.392 730.617 991.863 732.176 990.807 733.306C989.76 734.435 988.315 735 986.47 735H982.491V712.277H984.014V722.364H986.439C988.47 722.364 989.967 722.872 990.931 723.887C991.905 724.892 992.392 726.472 992.392 728.628ZM984.014 733.601H986.532C987.921 733.601 988.983 733.176 989.719 732.327C990.454 731.467 990.822 730.234 990.822 728.628C990.822 726.959 990.475 725.731 989.781 724.944C989.086 724.156 987.993 723.763 986.501 723.763H984.014V733.601ZM1002.49 713.38C1000.78 713.38 999.422 714.287 998.407 716.1C997.402 717.903 996.899 720.406 996.899 723.607C996.899 725.69 997.132 727.503 997.599 729.047C998.065 730.591 998.733 731.778 999.604 732.606C1000.47 733.435 1001.48 733.85 1002.63 733.85C1003.82 733.85 1004.83 733.637 1005.68 733.213V734.611C1004.87 735.078 1003.81 735.311 1002.49 735.311C1001.05 735.311 999.79 734.845 998.702 733.912C997.625 732.979 996.79 731.632 996.2 729.871C995.609 728.099 995.314 726.001 995.314 723.576C995.314 719.95 995.956 717.1 997.241 715.028C998.536 712.955 1000.3 711.919 1002.53 711.919C1003.91 711.919 1005.13 712.241 1006.16 712.883L1005.46 714.22C1004.59 713.66 1003.6 713.38 1002.49 713.38ZM1013.58 725.068L1009.35 735H1007.62L1012.15 724.851C1011.01 724.55 1010.12 723.866 1009.47 722.799C1008.83 721.721 1008.51 720.39 1008.51 718.805C1008.51 714.453 1010.47 712.277 1014.4 712.277H1018.1V735H1016.56V725.099L1013.58 725.068ZM1016.56 713.676H1014.63C1013.02 713.676 1011.86 714.075 1011.15 714.872C1010.46 715.67 1010.11 716.955 1010.11 718.727C1010.11 720.447 1010.44 721.711 1011.09 722.519C1011.74 723.328 1012.78 723.732 1014.21 723.732H1016.56V713.676ZM1035.51 713.38C1033.8 713.38 1032.43 714.287 1031.42 716.1C1030.41 717.903 1029.91 720.406 1029.91 723.607C1029.91 725.69 1030.14 727.503 1030.61 729.047C1031.08 730.591 1031.75 731.778 1032.62 732.606C1033.49 733.435 1034.5 733.85 1035.65 733.85C1036.83 733.85 1037.84 733.637 1038.69 733.213V734.611C1037.88 735.078 1036.82 735.311 1035.51 735.311C1034.07 735.311 1032.8 734.845 1031.71 733.912C1030.64 732.979 1029.8 731.632 1029.21 729.871C1028.62 728.099 1028.33 726.001 1028.33 723.576C1028.33 719.95 1028.97 717.1 1030.25 715.028C1031.55 712.955 1033.31 711.919 1035.54 711.919C1036.93 711.919 1038.14 712.241 1039.17 712.883L1038.48 714.22C1037.61 713.66 1036.62 713.38 1035.51 713.38ZM1054.8 723.607C1054.8 727.369 1054.23 730.26 1053.1 732.28C1051.98 734.301 1050.36 735.311 1048.24 735.311C1046.09 735.311 1044.46 734.295 1043.36 732.265C1042.25 730.223 1041.69 727.327 1041.69 723.576C1041.69 719.66 1042.24 716.743 1043.34 714.826C1044.44 712.909 1046.09 711.95 1048.28 711.95C1050.4 711.95 1052.01 712.961 1053.12 714.981C1054.24 716.991 1054.8 719.867 1054.8 723.607ZM1043.28 723.607C1043.28 726.985 1043.7 729.539 1044.54 731.27C1045.39 732.99 1046.62 733.85 1048.24 733.85C1049.86 733.85 1051.1 732.995 1051.94 731.285C1052.78 729.576 1053.21 727.016 1053.21 723.607C1053.21 720.24 1052.8 717.701 1051.97 715.991C1051.14 714.271 1049.91 713.411 1048.28 713.411C1046.61 713.411 1045.36 714.282 1044.52 716.023C1043.69 717.753 1043.28 720.281 1043.28 723.607ZM1071.44 713.38C1069.73 713.38 1068.37 714.287 1067.35 716.1C1066.35 717.903 1065.85 720.406 1065.85 723.607C1065.85 725.69 1066.08 727.503 1066.55 729.047C1067.01 730.591 1067.68 731.778 1068.55 732.606C1069.42 733.435 1070.43 733.85 1071.58 733.85C1072.76 733.85 1073.78 733.637 1074.63 733.213V734.611C1073.82 735.078 1072.76 735.311 1071.44 735.311C1070 735.311 1068.74 734.845 1067.65 733.912C1066.57 732.979 1065.74 731.632 1065.15 729.871C1064.56 728.099 1064.26 726.001 1064.26 723.576C1064.26 719.95 1064.9 717.1 1066.19 715.028C1067.48 712.955 1069.24 711.919 1071.47 711.919C1072.86 711.919 1074.07 712.241 1075.11 712.883L1074.41 714.22C1073.54 713.66 1072.55 713.38 1071.44 713.38ZM1089.36 735H1087.84V713.738H1079.91V735H1078.39V712.277H1089.36V735ZM1102.57 735H1094.34V712.277H1102.57V713.738H1095.86V722.364H1102.2V723.825H1095.86V733.539H1102.57V735ZM1117.56 733.539H1119.28V740.735H1117.82V735H1106.58V712.277H1108.11V733.539H1116.03V712.277H1117.56V733.539ZM1122.62 712.277H1124.11V728.161C1124.11 728.514 1124.11 728.866 1124.1 729.218C1124.1 729.56 1124.05 730.627 1123.96 732.42H1124.08L1132.62 712.277H1134.59V735H1133.1V718.696C1133.1 717.39 1133.16 716.033 1133.28 714.624H1133.16L1124.57 735H1122.62V712.277ZM1148.16 735L1146.15 726.762H1140.64L1138.66 735H1137.08L1142.55 712.277H1144.12L1149.71 735H1148.16ZM1145.8 725.224L1143.79 716.753C1143.58 715.8 1143.42 714.898 1143.31 714.049C1143.22 714.95 1143.07 715.852 1142.87 716.753L1140.93 725.224H1145.8ZM1161.7 735H1160.17V713.738H1155.71L1155.11 721.136C1154.66 726.524 1154.29 729.918 1154 731.316C1153.71 732.715 1153.31 733.715 1152.81 734.316C1152.31 734.917 1151.57 735.218 1150.58 735.218C1150.11 735.218 1149.72 735.124 1149.42 734.938V733.508C1149.66 733.674 1150.01 733.757 1150.49 733.757C1150.83 733.757 1151.12 733.689 1151.35 733.555C1151.58 733.42 1151.8 733.161 1151.98 732.777C1152.18 732.384 1152.35 731.824 1152.5 731.099C1152.65 730.374 1152.8 729.42 1152.93 728.239C1153.08 727.058 1153.56 721.737 1154.38 712.277H1161.7V735ZM1166.67 712.277H1168.16V728.161C1168.16 728.514 1168.16 728.866 1168.15 729.218C1168.15 729.56 1168.1 730.627 1168.01 732.42H1168.13L1176.66 712.277H1178.64V735H1177.15V718.696C1177.15 717.39 1177.21 716.033 1177.33 714.624H1177.21L1168.61 735H1166.67V712.277ZM1190.03 713.38C1188.32 713.38 1186.96 714.287 1185.94 716.1C1184.94 717.903 1184.44 720.406 1184.44 723.607C1184.44 725.69 1184.67 727.503 1185.13 729.047C1185.6 730.591 1186.27 731.778 1187.14 732.606C1188.01 733.435 1189.02 733.85 1190.17 733.85C1191.35 733.85 1192.37 733.637 1193.22 733.213V734.611C1192.41 735.078 1191.35 735.311 1190.03 735.311C1188.59 735.311 1187.33 734.845 1186.24 733.912C1185.16 732.979 1184.33 731.632 1183.74 729.871C1183.15 728.099 1182.85 726.001 1182.85 723.576C1182.85 719.95 1183.49 717.1 1184.78 715.028C1186.07 712.955 1187.83 711.919 1190.06 711.919C1191.45 711.919 1192.66 712.241 1193.7 712.883L1193 714.22C1192.13 713.66 1191.14 713.38 1190.03 713.38ZM1200.76 735H1199.23V713.738H1194.71V712.277H1205.28V713.738H1200.76V735ZM1220.39 723.607C1220.39 727.369 1219.82 730.26 1218.69 732.28C1217.57 734.301 1215.95 735.311 1213.83 735.311C1211.68 735.311 1210.05 734.295 1208.95 732.265C1207.84 730.223 1207.28 727.327 1207.28 723.576C1207.28 719.66 1207.83 716.743 1208.93 714.826C1210.03 712.909 1211.68 711.95 1213.87 711.95C1215.99 711.95 1217.6 712.961 1218.71 714.981C1219.83 716.991 1220.39 719.867 1220.39 723.607ZM1208.87 723.607C1208.87 726.985 1209.29 729.539 1210.13 731.27C1210.98 732.99 1212.21 733.85 1213.83 733.85C1215.45 733.85 1216.69 732.995 1217.53 731.285C1218.38 729.576 1218.8 727.016 1218.8 723.607C1218.8 720.24 1218.39 717.701 1217.56 715.991C1216.73 714.271 1215.5 713.411 1213.87 713.411C1212.2 713.411 1210.95 714.282 1210.11 716.023C1209.28 717.753 1208.87 720.281 1208.87 723.607ZM1232.09 735L1226.04 714.313H1225.92C1226.02 716.489 1226.07 717.867 1226.07 718.447V735H1224.61V712.277H1226.87L1231.96 729.653C1232.42 731.187 1232.72 732.492 1232.85 733.57H1232.97C1233.08 732.803 1233.4 731.508 1233.94 729.684L1238.99 712.277H1241.32V735H1239.8V718.572C1239.8 717.929 1239.85 716.52 1239.95 714.344H1239.83L1233.81 735H1232.09Z" fill="white" fill-opacity="0.3"/>
</svg>
